<svg xmlns="http://www.w3.org/2000/svg" fill="none" viewBox="0 0 96 96" id="Atlassian--Streamline-Svg-Logos" height="24" width="24">
  <desc>
    Atlassian Streamline Icon: https://streamlinehq.com
  </desc>
  <path fill="url(#a)" d="M28.8757 44.4136c-1.4048-1.5006-3.5936-1.4155-4.5483.4939L1.29099 90.9813c-.427071.8537-.381584 1.8676.12021 2.6797.50179.812 1.38831 1.3062 2.34287 1.3062H35.8355c1.0501.0243 2.0159-.5726 2.4636-1.5228 6.9176-14.3027 2.7265-36.0493-9.4234-49.0308Z"></path>
  <path fill="#2681ff" d="M45.7802 2.50816C32.8956 22.9222 33.7457 45.5312 42.2325 62.5052l15.4692 30.9386c.4665.9329 1.4201 1.5223 2.4631 1.5223h32.081c.9545.0001 1.841-.4942 2.3428-1.3062s.5473-1.826.1202-2.6797c0 0-43.1586-86.3296-44.2442-88.48957-.9707-1.93366-3.4364-1.959951-4.6844.01753Z"></path>
  <defs>
    <linearGradient id="a" x1="4051.45" x2="821.719" y1="858.62" y2="4327.92" gradientUnits="userSpaceOnUse">
      <stop stop-color="#0052cc"></stop>
      <stop offset=".923" stop-color="#2684ff"></stop>
    </linearGradient>
  </defs>
</svg>