<svg version="1.1" id="Layer_1" xmlns="http://www.w3.org/2000/svg" xmlns:xlink="http://www.w3.org/1999/xlink" x="0px" y="0px"
	 width="100%" viewBox="0 0 400 400" enable-background="new 0 0 400 400" xml:space="preserve">
<path fill="#FFFFFF" opacity="1.000000" stroke="none" 
	d="
M368.000000,401.000000 
	C245.371506,401.000000 123.243011,401.000000 1.057256,401.000000 
	C1.057256,267.746521 1.057256,134.493011 1.057256,1.119745 
	C134.211746,1.119745 267.423645,1.119745 400.817749,1.119745 
	C400.817749,134.333115 400.817749,267.666565 400.817749,401.000000 
	C390.159729,401.000000 379.329865,401.000000 368.000000,401.000000 
M67.878838,185.545822 
	C67.700859,185.235260 67.522881,184.924683 67.205162,183.925079 
	C65.465500,183.782684 63.725834,183.640305 61.986172,183.497925 
	C62.715397,185.182495 63.444618,186.867065 64.278107,189.254608 
	C65.603226,192.097733 67.716095,194.876144 64.328697,198.139908 
	C63.530796,198.425507 62.732895,198.711105 61.508739,199.237396 
	C61.241779,199.462830 61.103485,199.750214 61.149456,200.136795 
	C61.149456,200.136795 61.181801,200.195374 60.428192,200.200485 
	C59.978340,201.293518 58.847565,203.001022 59.189312,203.379730 
	C61.382378,205.810028 63.898327,207.948944 66.549393,210.407303 
	C65.695274,210.857162 64.249207,211.173080 63.559254,212.070374 
	C61.866051,214.272446 60.297558,216.645859 59.204674,219.177322 
	C58.953442,219.759247 60.714481,221.383148 61.783234,222.233810 
	C62.034576,222.433868 63.234287,221.442413 64.569954,220.897751 
	C64.954514,220.871933 65.339081,220.846100 66.670418,220.940308 
	C69.870354,220.905228 73.070282,220.870132 76.983459,220.839600 
	C80.342201,221.072540 84.320694,222.546265 85.621368,217.690018 
	C86.806236,213.266098 89.558380,212.005081 93.764259,212.482529 
	C96.066177,212.743851 98.485809,212.303680 100.708717,212.810226 
	C102.243500,213.159973 104.109528,214.272171 104.832222,215.589630 
	C108.135391,221.611191 108.453270,221.879517 115.934952,220.083862 
	C111.147293,208.730042 106.450127,197.431442 101.588188,186.204193 
	C100.686691,184.122421 100.264008,181.472717 96.534256,181.861755 
	C93.033409,182.226898 90.683022,182.867065 89.724327,186.746246 
	C88.978386,189.764526 87.325592,192.558685 85.165062,195.359543 
	C78.763496,196.528152 74.153305,193.466980 70.124809,189.007584 
	C69.370506,188.172592 68.555420,187.392517 67.827599,186.313202 
	C67.827599,186.313202 67.712845,186.070419 67.878838,185.545822 
M326.222870,184.160751 
	C322.923309,188.408051 323.094635,190.922745 327.194000,194.630066 
	C331.843628,197.968307 335.995117,197.774841 338.992188,194.080231 
	C341.543579,190.935013 341.231384,185.963974 338.310547,183.226151 
	C335.042877,180.163239 330.958344,180.435120 326.222870,184.160751 
M197.711700,220.098328 
	C204.681229,220.098328 211.650757,220.098328 218.672974,220.098328 
	C218.672974,217.885590 218.672974,216.012833 218.672974,213.713837 
	C211.376648,213.713837 204.448700,213.713837 197.408203,213.713837 
	C197.408203,210.253143 197.408203,207.231918 197.408203,203.803650 
	C203.822464,203.803650 209.911423,203.803650 216.034332,203.803650 
	C216.034332,201.625153 216.034332,199.870590 216.034332,197.626434 
	C209.720276,197.626434 203.639145,197.626434 197.427017,197.626434 
	C197.427017,194.244247 197.427017,191.368057 197.427017,188.026352 
	C204.680771,188.026352 211.596817,188.026352 218.679947,188.026352 
	C218.679947,185.786118 218.679947,184.018219 218.679947,182.179779 
	C209.170395,182.179779 199.904266,182.179779 190.374893,182.179779 
	C190.374893,188.592911 190.374893,194.745529 190.374893,200.898132 
	C190.374893,207.175369 190.374893,213.452621 190.374893,220.098373 
	C192.835388,220.098373 194.807785,220.098373 197.711700,220.098328 
M228.245209,195.517944 
	C228.245209,203.593903 228.245209,211.669876 228.245209,219.919312 
	C230.720428,219.919312 232.668793,219.919312 235.120941,219.919312 
	C235.120941,215.527435 235.120941,211.302567 235.120941,207.613617 
	C241.742325,205.128128 245.323593,208.219406 247.956665,213.250702 
	C248.339645,213.982513 248.950165,214.598511 249.309540,215.338867 
	C251.544693,219.943619 255.097519,221.248550 260.246674,219.513611 
	C257.145416,215.021042 254.101089,210.610962 250.949951,206.046127 
	C252.098572,205.368057 252.944931,204.912491 253.746246,204.388107 
	C258.546631,201.246689 260.389709,197.022308 259.392242,191.634857 
	C258.381744,186.177170 254.817184,182.840027 249.655396,182.397202 
	C242.636215,181.795029 235.526596,182.247162 228.245758,182.247162 
	C228.245758,186.582336 228.245758,190.554749 228.245209,195.517944 
M166.562485,220.841400 
	C172.523621,220.575668 177.914429,219.109451 181.400818,214.362900 
	C180.149887,212.543381 179.122162,211.048523 178.187515,209.689056 
	C169.005035,215.623840 162.690979,215.830215 157.840637,210.746826 
	C153.247116,205.932587 152.671677,197.638382 157.007568,192.466339 
	C158.615677,190.548141 161.215439,188.227768 163.353317,188.237366 
	C168.189072,188.259094 173.018845,189.616638 177.851044,190.430908 
	C177.859421,190.885635 177.867798,191.340378 177.876175,191.795120 
	C179.084183,190.303131 180.292191,188.811142 181.477722,187.346909 
	C174.775482,180.673401 164.245911,179.282242 156.592697,183.860870 
	C149.444977,188.137100 145.758163,196.498276 147.354111,204.812714 
	C149.158157,214.211472 154.752701,219.102356 166.562485,220.841400 
M281.532806,220.083115 
	C284.162994,220.482635 285.356537,219.777054 285.287231,216.699142 
	C285.075592,207.296112 285.210388,197.885300 285.210388,188.115875 
	C289.565430,188.115875 293.171387,188.115875 296.850342,188.115875 
	C296.850342,185.856552 296.850342,183.985626 296.850342,182.188995 
	C286.433868,182.188995 276.354889,182.188995 266.312195,182.188995 
	C266.312195,184.251862 266.312195,186.036362 266.312195,188.218719 
	C270.308990,188.218719 274.068909,188.218719 278.290375,188.218719 
	C278.290375,197.896912 278.283539,207.181534 278.296417,216.466110 
	C278.298828,218.203491 277.694244,220.403748 281.532806,220.083115 
M299.183136,213.391907 
	C297.320038,215.433746 297.133240,217.564178 300.132782,218.178604 
	C304.716187,219.117447 309.458008,219.977356 314.085999,219.779770 
	C317.655548,219.627380 319.687439,216.589737 320.116791,212.850235 
	C320.552948,209.051422 319.055664,206.338394 315.591217,204.835983 
	C312.856110,203.649841 309.947510,202.842743 307.278900,201.534927 
	C306.293640,201.052078 304.959076,199.225952 305.212097,198.701355 
	C305.735687,197.615753 307.272491,196.244476 308.293701,196.320465 
	C311.193176,196.536194 314.042908,197.420639 317.315094,198.129013 
	C317.918549,196.967361 318.632538,195.592880 320.034424,192.894226 
	C315.211853,192.145905 311.254547,191.064362 307.291290,191.042206 
	C302.920685,191.017761 299.731842,193.384171 298.956543,198.067078 
	C298.172638,202.801575 300.429657,205.686005 304.735718,207.224045 
	C307.075500,208.059769 309.531250,208.643066 311.744446,209.728210 
	C312.726837,210.209885 314.048340,212.022079 313.793365,212.578842 
	C313.282867,213.693512 311.764923,215.103134 310.712708,215.063660 
	C308.130249,214.966751 305.576141,214.116547 303.010559,213.569748 
	C301.870575,213.326782 300.730377,213.084656 299.183136,213.391907 
M123.485092,197.513733 
	C123.504799,203.987000 123.624054,210.462051 123.507294,216.932846 
	C123.435982,220.884537 125.861694,220.866257 128.743103,220.970413 
	C132.080658,221.091080 132.537827,219.325211 132.512115,216.617767 
	C132.423874,207.322327 132.503281,198.025314 132.416153,188.729843 
	C132.396713,186.654282 131.959381,184.582611 131.709442,182.466949 
	C128.907181,182.466949 126.648689,182.466949 123.486115,182.466949 
	C123.486115,187.328003 123.486115,191.924713 123.485092,197.513733 
M63.653133,191.827072 
	C58.715572,190.520935 58.062302,191.013916 58.937954,196.663223 
	C60.893425,195.044510 62.392155,193.803879 63.653133,191.827072 
z"/>
<path fill="#121515" opacity="1.000000" stroke="none" 
	d="
M197.245941,220.098358 
	C194.807785,220.098373 192.835388,220.098373 190.374893,220.098373 
	C190.374893,213.452621 190.374893,207.175369 190.374893,200.898132 
	C190.374893,194.745529 190.374893,188.592911 190.374893,182.179779 
	C199.904266,182.179779 209.170395,182.179779 218.679947,182.179779 
	C218.679947,184.018219 218.679947,185.786118 218.679947,188.026352 
	C211.596817,188.026352 204.680771,188.026352 197.427017,188.026352 
	C197.427017,191.368057 197.427017,194.244247 197.427017,197.626434 
	C203.639145,197.626434 209.720276,197.626434 216.034332,197.626434 
	C216.034332,199.870590 216.034332,201.625153 216.034332,203.803650 
	C209.911423,203.803650 203.822464,203.803650 197.408203,203.803650 
	C197.408203,207.231918 197.408203,210.253143 197.408203,213.713837 
	C204.448700,213.713837 211.376648,213.713837 218.672974,213.713837 
	C218.672974,216.012833 218.672974,217.885590 218.672974,220.098328 
	C211.650757,220.098328 204.681229,220.098328 197.245941,220.098358 
z"/>
<path fill="#111314" opacity="1.000000" stroke="none" 
	d="
M228.245483,195.022552 
	C228.245758,190.554749 228.245758,186.582336 228.245758,182.247162 
	C235.526596,182.247162 242.636215,181.795029 249.655396,182.397202 
	C254.817184,182.840027 258.381744,186.177170 259.392242,191.634857 
	C260.389709,197.022308 258.546631,201.246689 253.746246,204.388107 
	C252.944931,204.912491 252.098572,205.368057 250.949951,206.046127 
	C254.101089,210.610962 257.145416,215.021042 260.246674,219.513611 
	C255.097519,221.248550 251.544693,219.943619 249.309540,215.338867 
	C248.950165,214.598511 248.339645,213.982513 247.956665,213.250702 
	C245.323593,208.219406 241.742325,205.128128 235.120941,207.613617 
	C235.120941,211.302567 235.120941,215.527435 235.120941,219.919312 
	C232.668793,219.919312 230.720428,219.919312 228.245209,219.919312 
	C228.245209,211.669876 228.245209,203.593903 228.245483,195.022552 
M243.290512,188.005234 
	C240.668869,188.005234 238.047226,188.005234 235.277267,188.005234 
	C235.277267,192.509460 235.277267,196.563919 235.277267,201.207123 
	C239.865997,200.838516 244.252045,201.021851 248.346100,200.016312 
	C253.039825,198.863480 254.497711,193.282516 251.005356,190.249725 
	C249.342285,188.805481 246.506668,188.711472 243.290512,188.005234 
z"/>
<path fill="#CCAD49" opacity="1.000000" stroke="none" 
	d="
M86.075844,195.452454 
	C87.325592,192.558685 88.978386,189.764526 89.724327,186.746246 
	C90.683022,182.867065 93.033409,182.226898 96.534256,181.861755 
	C100.264008,181.472717 100.686691,184.122421 101.588188,186.204193 
	C106.450127,197.431442 111.147293,208.730042 115.934952,220.083862 
	C108.453270,221.879517 108.135391,221.611191 104.832222,215.589630 
	C104.109528,214.272171 102.243500,213.159973 100.708717,212.810226 
	C98.485809,212.303680 96.066177,212.743851 93.764259,212.482529 
	C89.558380,212.005081 86.806236,213.266098 85.621368,217.690018 
	C84.320694,222.546265 80.342201,221.072540 76.626678,220.482788 
	C77.493393,215.755127 78.716881,211.384293 80.187950,206.906250 
	C80.668526,206.334274 80.901520,205.869507 81.400772,205.271271 
	C82.048210,204.494217 82.429398,203.850632 82.877609,202.842010 
	C82.959648,201.983231 82.974655,201.489517 83.272995,200.863800 
	C84.011002,199.850693 84.465675,198.969589 84.978165,197.798553 
	C85.382607,196.823242 85.729233,196.137848 86.075844,195.452454 
M92.153831,200.756638 
	C91.789276,201.959366 91.424713,203.162094 90.954597,204.713074 
	C94.168045,204.713074 96.889084,204.713074 100.582054,204.713074 
	C98.980659,200.578690 97.609329,197.038254 95.793259,192.349625 
	C94.370506,195.678146 93.432861,197.871750 92.153831,200.756638 
z"/>
<path fill="#121515" opacity="1.000000" stroke="none" 
	d="
M166.124146,220.840057 
	C154.752701,219.102356 149.158157,214.211472 147.354111,204.812714 
	C145.758163,196.498276 149.444977,188.137100 156.592697,183.860870 
	C164.245911,179.282242 174.775482,180.673401 181.477722,187.346909 
	C180.292191,188.811142 179.084183,190.303131 177.876175,191.795120 
	C177.867798,191.340378 177.859421,190.885635 177.851044,190.430908 
	C173.018845,189.616638 168.189072,188.259094 163.353317,188.237366 
	C161.215439,188.227768 158.615677,190.548141 157.007568,192.466339 
	C152.671677,197.638382 153.247116,205.932587 157.840637,210.746826 
	C162.690979,215.830215 169.005035,215.623840 178.187515,209.689056 
	C179.122162,211.048523 180.149887,212.543381 181.400818,214.362900 
	C177.914429,219.109451 172.523621,220.575668 166.124146,220.840057 
z"/>
<path fill="#121515" opacity="1.000000" stroke="none" 
	d="
M281.141113,220.096100 
	C277.694244,220.403748 278.298828,218.203491 278.296417,216.466110 
	C278.283539,207.181534 278.290375,197.896912 278.290375,188.218719 
	C274.068909,188.218719 270.308990,188.218719 266.312195,188.218719 
	C266.312195,186.036362 266.312195,184.251862 266.312195,182.188995 
	C276.354889,182.188995 286.433868,182.188995 296.850342,182.188995 
	C296.850342,183.985626 296.850342,185.856552 296.850342,188.115875 
	C293.171387,188.115875 289.565430,188.115875 285.210388,188.115875 
	C285.210388,197.885300 285.075592,207.296112 285.287231,216.699142 
	C285.356537,219.777054 284.162994,220.482635 281.141113,220.096100 
z"/>
<path fill="#121515" opacity="1.000000" stroke="none" 
	d="
M299.386719,213.117020 
	C300.730377,213.084656 301.870575,213.326782 303.010559,213.569748 
	C305.576141,214.116547 308.130249,214.966751 310.712708,215.063660 
	C311.764923,215.103134 313.282867,213.693512 313.793365,212.578842 
	C314.048340,212.022079 312.726837,210.209885 311.744446,209.728210 
	C309.531250,208.643066 307.075500,208.059769 304.735718,207.224045 
	C300.429657,205.686005 298.172638,202.801575 298.956543,198.067078 
	C299.731842,193.384171 302.920685,191.017761 307.291290,191.042206 
	C311.254547,191.064362 315.211853,192.145905 320.034424,192.894226 
	C318.632538,195.592880 317.918549,196.967361 317.315094,198.129013 
	C314.042908,197.420639 311.193176,196.536194 308.293701,196.320465 
	C307.272491,196.244476 305.735687,197.615753 305.212097,198.701355 
	C304.959076,199.225952 306.293640,201.052078 307.278900,201.534927 
	C309.947510,202.842743 312.856110,203.649841 315.591217,204.835983 
	C319.055664,206.338394 320.552948,209.051422 320.116791,212.850235 
	C319.687439,216.589737 317.655548,219.627380 314.085999,219.779770 
	C309.458008,219.977356 304.716187,219.117447 300.132782,218.178604 
	C297.133240,217.564178 297.320038,215.433746 299.386719,213.117020 
z"/>
<path fill="#CAAC4C" opacity="1.000000" stroke="none" 
	d="
M123.485603,197.017578 
	C123.486115,191.924713 123.486115,187.328003 123.486115,182.466949 
	C126.648689,182.466949 128.907181,182.466949 131.709442,182.466949 
	C131.959381,184.582611 132.396713,186.654282 132.416153,188.729843 
	C132.503281,198.025314 132.423874,207.322327 132.512115,216.617767 
	C132.537827,219.325211 132.080658,221.091080 128.743103,220.970413 
	C125.861694,220.866257 123.435982,220.884537 123.507294,216.932846 
	C123.624054,210.462051 123.504799,203.987000 123.485603,197.017578 
z"/>
<path fill="#D9DADA" opacity="1.000000" stroke="none" 
	d="
M326.894836,194.024002 
	C323.094635,190.922745 322.923309,188.408051 326.781616,184.347046 
	C328.083588,184.324142 328.901306,184.248566 329.557251,183.882858 
	C332.597412,182.188019 335.738403,182.298203 337.365967,185.296051 
	C338.410675,187.220291 338.572327,190.483932 337.634827,192.425293 
	C336.181396,195.435165 333.034393,195.751373 329.862335,194.337463 
	C328.998260,193.952332 327.890656,194.113525 326.894836,194.024002 
z"/>
<path fill="#FCF8E4" opacity="1.000000" stroke="none" 
	d="
M82.810585,203.207062 
	C82.429398,203.850632 82.048210,204.494217 80.992676,205.149658 
	C74.852333,205.078964 69.388847,209.113235 67.013695,214.987518 
	C67.016724,214.987076 67.026878,214.975693 66.624779,214.865967 
	C64.836098,215.343552 63.449520,215.930862 62.062943,216.518188 
	C62.707863,218.011826 63.352783,219.505478 63.997704,220.999115 
	C63.234287,221.442413 62.034576,222.433868 61.783234,222.233810 
	C60.714481,221.383148 58.953442,219.759247 59.204674,219.177322 
	C60.297558,216.645859 61.866051,214.272446 63.559254,212.070374 
	C64.249207,211.173080 65.695274,210.857162 66.549393,210.407303 
	C63.898327,207.948944 61.382378,205.810028 59.189312,203.379730 
	C58.847565,203.001022 59.978340,201.293518 60.828720,200.550552 
	C61.498119,203.689896 62.832024,205.083160 65.824615,204.768570 
	C71.478836,204.174194 77.147766,203.719696 82.810585,203.207062 
z"/>
<path fill="#FCF8E4" opacity="1.000000" stroke="none" 
	d="
M79.940369,207.013443 
	C78.716881,211.384293 77.493393,215.755127 76.270065,220.480499 
	C73.070282,220.870132 69.870354,220.905228 66.419998,220.563568 
	C66.455345,218.449768 66.741112,216.712738 67.026878,214.975693 
	C67.026878,214.975693 67.016724,214.987076 67.359924,215.002502 
	C69.300041,213.633926 70.763138,212.039520 72.526833,210.917709 
	C74.875565,209.423782 77.458206,208.297607 79.940369,207.013443 
z"/>
<path fill="#454545" opacity="1.000000" stroke="none" 
	d="
M327.044434,194.327026 
	C327.890656,194.113525 328.998260,193.952332 329.862335,194.337463 
	C333.034393,195.751373 336.181396,195.435165 337.634827,192.425293 
	C338.572327,190.483932 338.410675,187.220291 337.365967,185.296051 
	C335.738403,182.298203 332.597412,182.188019 329.557251,183.882858 
	C328.901306,184.248566 328.083588,184.324142 327.135284,184.258484 
	C330.958344,180.435120 335.042877,180.163239 338.310547,183.226151 
	C341.231384,185.963974 341.543579,190.935013 338.992188,194.080231 
	C335.995117,197.774841 331.843628,197.968307 327.044434,194.327026 
z"/>
<path fill="#D5BF80" opacity="1.000000" stroke="none" 
	d="
M82.877609,202.842010 
	C77.147766,203.719696 71.478836,204.174194 65.824615,204.768570 
	C62.832024,205.083160 61.498119,203.689896 61.205524,200.548004 
	C61.181801,200.195374 61.149456,200.136795 61.349678,200.014587 
	C61.678268,199.593811 61.806629,199.295258 61.934994,198.996704 
	C62.732895,198.711105 63.530796,198.425507 64.982468,198.139587 
	C66.441620,198.752991 67.246994,199.366699 68.265121,200.271912 
	C70.351494,200.465256 72.225121,200.367111 74.446671,200.286102 
	C76.171219,200.420456 77.547852,200.537659 79.324265,200.746689 
	C80.812592,200.890945 81.901123,200.943375 82.989655,200.995804 
	C82.974655,201.489517 82.959648,201.983231 82.877609,202.842010 
z"/>
<path fill="#D5BF80" opacity="1.000000" stroke="none" 
	d="
M85.620453,195.406006 
	C85.729233,196.137848 85.382607,196.823242 84.556458,197.760956 
	C82.372047,198.038010 80.667160,198.062759 78.638344,198.056488 
	C77.880959,198.034500 77.447517,198.043503 76.762733,198.006241 
	C76.341095,197.964783 76.170792,197.969620 75.656586,197.923172 
	C72.539619,194.921341 69.766556,191.970810 67.073799,188.766159 
	C67.358864,187.870392 67.563622,187.228745 67.768387,186.587097 
	C68.555420,187.392517 69.370506,188.172592 70.124809,189.007584 
	C74.153305,193.466980 78.763496,196.528152 85.620453,195.406006 
z"/>
<path fill="#F4F4F5" opacity="1.000000" stroke="none" 
	d="
M66.993484,189.020279 
	C69.766556,191.970810 72.539619,194.921341 75.735260,198.099274 
	C76.443253,198.235306 76.728661,198.143921 77.014069,198.052521 
	C77.447517,198.043503 77.880959,198.034500 78.645676,198.378113 
	C78.959465,199.372131 78.941971,200.013504 78.924477,200.654877 
	C77.547852,200.537659 76.171219,200.420456 74.242607,199.968658 
	C71.811203,199.749542 69.931786,199.864990 68.052368,199.980423 
	C67.246994,199.366699 66.441620,198.752991 65.318481,198.095245 
	C67.716095,194.876144 65.603226,192.097733 64.582840,188.922531 
	C65.589546,188.733734 66.291512,188.876999 66.993484,189.020279 
z"/>
<path fill="#CAAC4C" opacity="1.000000" stroke="none" 
	d="
M67.073792,188.766159 
	C66.291512,188.876999 65.589546,188.733734 64.530708,188.571045 
	C63.444618,186.867065 62.715397,185.182495 61.986172,183.497925 
	C63.725834,183.640305 65.465500,183.782684 67.210739,184.535110 
	C67.381828,185.453568 67.547333,185.761993 67.712845,186.070419 
	C67.712845,186.070419 67.827599,186.313202 67.797989,186.450150 
	C67.563622,187.228745 67.358864,187.870392 67.073792,188.766159 
z"/>
<path fill="#CAAC4C" opacity="1.000000" stroke="none" 
	d="
M66.624779,214.865967 
	C66.741112,216.712738 66.455345,218.449768 65.946609,220.503540 
	C65.339081,220.846100 64.954514,220.871933 64.283829,220.948425 
	C63.352783,219.505478 62.707863,218.011826 62.062943,216.518188 
	C63.449520,215.930862 64.836098,215.343552 66.624779,214.865967 
z"/>
<path fill="#F4F4F5" opacity="1.000000" stroke="none" 
	d="
M63.772011,192.195160 
	C62.392155,193.803879 60.893425,195.044510 58.937954,196.663223 
	C58.062302,191.013916 58.715572,190.520935 63.772011,192.195160 
z"/>
<path fill="#FCF8E4" opacity="1.000000" stroke="none" 
	d="
M61.721867,199.117050 
	C61.806629,199.295258 61.678268,199.593811 61.321884,199.995972 
	C61.103485,199.750214 61.241779,199.462830 61.721867,199.117050 
z"/>
<path fill="#D5BF80" opacity="1.000000" stroke="none" 
	d="
M67.795837,185.808121 
	C67.547333,185.761993 67.381828,185.453568 67.280609,184.879639 
	C67.522881,184.924683 67.700859,185.235260 67.795837,185.808121 
z"/>
<path fill="#F4F4F5" opacity="1.000000" stroke="none" 
	d="
M243.746338,188.005524 
	C246.506668,188.711472 249.342285,188.805481 251.005356,190.249725 
	C254.497711,193.282516 253.039825,198.863480 248.346100,200.016312 
	C244.252045,201.021851 239.865997,200.838516 235.277267,201.207123 
	C235.277267,196.563919 235.277267,192.509460 235.277267,188.005234 
	C238.047226,188.005234 240.668869,188.005234 243.746338,188.005524 
z"/>
<path fill="#FAF3D3" opacity="1.000000" stroke="none" 
	d="
M92.324524,200.410995 
	C93.432861,197.871750 94.370506,195.678146 95.793259,192.349625 
	C97.609329,197.038254 98.980659,200.578690 100.582054,204.713074 
	C96.889084,204.713074 94.168045,204.713074 90.954597,204.713074 
	C91.424713,203.162094 91.789276,201.959366 92.324524,200.410995 
z"/>
<path fill="#D5BF80" opacity="1.000000" stroke="none" 
	d="
M80.187950,206.906250 
	C77.458206,208.297607 74.875565,209.423782 72.526833,210.917709 
	C70.763138,212.039520 69.300041,213.633926 67.356895,215.002930 
	C69.388847,209.113235 74.852333,205.078964 80.726418,205.283127 
	C80.901520,205.869507 80.668526,206.334274 80.187950,206.906250 
z"/>
<path fill="#FAF3D3" opacity="1.000000" stroke="none" 
	d="
M79.324265,200.746704 
	C78.941971,200.013504 78.959465,199.372131 78.969620,198.409134 
	C80.667160,198.062759 82.372047,198.038010 84.498642,198.050873 
	C84.465675,198.969589 84.011002,199.850693 83.272995,200.863800 
	C81.901123,200.943375 80.812592,200.890945 79.324265,200.746704 
z"/>
<path fill="#FAF3D3" opacity="1.000000" stroke="none" 
	d="
M68.265121,200.271912 
	C69.931786,199.864990 71.811203,199.749542 73.894684,199.951538 
	C72.225121,200.367111 70.351494,200.465256 68.265121,200.271912 
z"/>
<path fill="#FAF3D3" opacity="1.000000" stroke="none" 
	d="
M76.762733,198.006241 
	C76.728661,198.143921 76.443253,198.235306 76.079163,198.150574 
	C76.170792,197.969620 76.341095,197.964783 76.762733,198.006241 
z"/>
</svg>