<?xml version="1.0" encoding="UTF-8"?>
<svg version="1.1" xmlns="http://www.w3.org/2000/svg" width="400" height="400">
<path d="M0 0 C132 0 264 0 400 0 C400 132 400 264 400 400 C268 400 136 400 0 400 C0 268 0 136 0 0 Z " fill="#025D34" transform="translate(0,0)"/>
<path d="M0 0 C3.71789954 0.01615095 7.43471982 -0.00000077 11.15258789 -0.01904297 C49.92806281 -0.05220014 83.95718648 8.64680162 119.08422852 24.64111328 C120.59726562 25.32947266 120.59726562 25.32947266 122.14086914 26.03173828 C124.60131402 27.1511824 127.06159707 28.27098058 129.52172852 29.39111328 C129.5922048 48.42104854 129.64490398 67.45095686 129.67716503 86.48099613 C129.69255096 95.3194881 129.71347951 104.1578984 129.74804688 112.99633789 C129.77820551 120.71128175 129.79736339 128.42616639 129.803994 136.14116758 C129.80786209 140.21589627 129.81677348 144.29045573 129.83891869 148.36512947 C130.07658771 193.9108732 130.07658771 193.9108732 122.33422852 215.32861328 C121.94058105 216.45976562 121.54693359 217.59091797 121.14135742 218.75634766 C105.26093151 263.26995225 70.48873773 293.35520588 28.64672852 313.32861328 C21.11835201 316.8350866 13.47730825 319.97641157 5.52172852 322.39111328 C4.75086914 322.66181641 3.98000977 322.93251953 3.18579102 323.21142578 C-1.03064949 323.49581913 -4.37779719 321.87149299 -8.22827148 320.26611328 C-9.08936523 319.91355469 -9.95045898 319.56099609 -10.83764648 319.19775391 C-26.68892722 312.52175286 -42.61915718 304.64570133 -56.47827148 294.39111328 C-57.75812215 293.46910328 -59.03807827 292.54723963 -60.31811523 291.62548828 C-78.30091798 278.54050995 -93.30391821 263.7305405 -104.47827148 244.39111328 C-104.99019043 243.50528564 -104.99019043 243.50528564 -105.51245117 242.6015625 C-115.0374963 225.7253701 -121.12119585 206.59835767 -123.47827148 187.39111328 C-123.564374 186.71590448 -123.65047651 186.04069569 -123.73918819 185.34502602 C-124.60815639 177.78746509 -124.61257066 170.26824577 -124.59179688 162.66992188 C-124.59151426 161.21033734 -124.59167418 159.75075266 -124.59223938 158.29116821 C-124.59252446 154.35798885 -124.58667474 150.42484044 -124.57966542 146.49166822 C-124.57338349 142.37039315 -124.57282427 138.24911725 -124.57164001 134.12783813 C-124.56854091 126.33665157 -124.56034678 118.54547916 -124.55029052 110.75429881 C-124.53908513 101.87878428 -124.53360781 93.00326905 -124.52859509 84.1277492 C-124.51816289 65.88219589 -124.50059112 47.63665573 -124.47827148 29.39111328 C-120.6792154 27.60743199 -116.87804615 25.82835302 -113.07499695 24.0532074 C-111.785999 23.45079997 -110.49755027 22.84721571 -109.20970154 22.24235535 C-94.60084305 15.38312106 -80.00676237 10.10397568 -64.35327148 6.14111328 C-63.45584229 5.90658447 -62.55841309 5.67205566 -61.63378906 5.43041992 C-41.46791965 0.62079876 -20.6371044 -0.10624343 0 0 Z " fill="#FBFDFC" transform="translate(197.478271484375,48.60888671875)"/>
<path d="M0 0 C0.6614502 0.34861084 1.32290039 0.69722168 2.00439453 1.05639648 C9.5661138 4.96683074 16.26804096 7.02460386 24.8125 7 C25.76519775 7.00257813 26.71789551 7.00515625 27.69946289 7.0078125 C35.46471784 6.7800127 41.12248147 4.58282243 47.97241211 1.12963867 C55.77019184 -2.70844724 63.07636963 -3.7197345 71.54785156 -1.04394531 C75.35820277 0.34091257 79.05348024 1.9159062 82.73046875 3.62109375 C91.63931227 7.67233448 103.63339677 7.52245841 113.0625 5.09375 C115.99692715 3.99333982 118.70824518 2.54772121 121.5 1.125 C129.12888628 -2.45518418 136.25663577 -3.67260596 144.45800781 -1.06884766 C148.15227003 0.30259277 151.73116613 1.86614599 155.3046875 3.5234375 C159.22596463 5.31673987 163.1070762 6.31859741 167.3125 7.25 C165.48699582 31.70318862 156.42030853 56.57382042 140.3125 75.25 C139.78140625 75.91644531 139.2503125 76.58289063 138.703125 77.26953125 C132.37647314 85.0758033 124.1559825 91.06200663 116.3125 97.25 C112.63180113 95.71356148 110.32474796 93.46849055 107.5625 90.625 C106.76328125 89.80773437 105.9640625 88.99046875 105.140625 88.1484375 C104.53734375 87.52195312 103.9340625 86.89546875 103.3125 86.25 C100.6219472 87.47007944 100.6219472 87.47007944 98.3125 89.25 C98.07768307 91.43292774 97.89886677 93.62203174 97.75 95.8125 C97.66621094 97.01003906 97.58242187 98.20757812 97.49609375 99.44140625 C97.43550781 100.36824219 97.37492188 101.29507813 97.3125 102.25 C97.951875 102.518125 98.59125 102.78625 99.25 103.0625 C101.3125 104.25 101.3125 104.25 102.3125 107.25 C65.75341839 127.64602511 65.75341839 127.64602511 57.9375 125.640625 C45.74783972 120.34392738 33.60306849 114.27419501 22.3125 107.25 C23.125 105.3125 23.125 105.3125 24.3125 103.25 C25.3025 102.92 26.2925 102.59 27.3125 102.25 C27.22541962 100.14505699 27.11724307 98.04097858 27 95.9375 C26.94199219 94.76574219 26.88398438 93.59398437 26.82421875 92.38671875 C26.29645232 89.1516314 25.88869276 88.16315119 23.3125 86.25 C19.63180113 87.78643852 17.32474796 90.03150945 14.5625 92.875 C13.76328125 93.69226563 12.9640625 94.50953125 12.140625 95.3515625 C11.53734375 95.97804688 10.9340625 96.60453125 10.3125 97.25 C4.0232617 95.09812658 0.04675306 90.76786753 -4.6875 86.25 C-5.18797852 85.77675293 -5.68845703 85.30350586 -6.20410156 84.81591797 C-16.14560099 75.37118108 -23.42477408 65.50385403 -29.6875 53.25 C-30.2546875 52.20972656 -30.821875 51.16945313 -31.40625 50.09765625 C-37.93175715 37.37577937 -43.0487404 21.63742435 -42.6875 7.25 C-41.68589844 6.92386719 -40.68429688 6.59773437 -39.65234375 6.26171875 C-38.3098418 5.82047685 -36.96739693 5.37906129 -35.625 4.9375 C-34.96822266 4.72416016 -34.31144531 4.51082031 -33.63476562 4.29101562 C-29.20306428 2.82833587 -24.96354992 1.11848203 -20.6875 -0.75 C-14.17697519 -2.92017494 -6.28020369 -2.86485141 0 0 Z " fill="#065C35" transform="translate(137.6875,223.75)"/>
<path d="M0 0 C0.66 0 1.32 0 2 0 C3.33984375 1.36328125 3.33984375 1.36328125 4.9375 3.3125 C9.64725624 8.85109533 14.82769051 13.90049111 20 19 C25.68897118 24.60889853 31.35072198 30.19353013 36.51977539 36.29492188 C38.87467806 39.00754603 41.4296619 41.49235307 44 44 C48.29067546 42.34763349 51.1429553 39.1094793 54.296875 35.8984375 C54.89050842 35.30197418 55.48414185 34.70551086 56.09576416 34.0909729 C57.98526627 32.1903019 59.86768392 30.28278526 61.75 28.375 C63.03209065 27.08287532 64.31463761 25.79120324 65.59765625 24.5 C68.73708432 21.33855521 71.87017801 18.1709539 75 15 C78.69148451 18.12621058 82.36280216 21.23689148 85.7890625 24.65625 C86.42070312 25.28660156 87.05234375 25.91695312 87.703125 26.56640625 C88.65445313 27.52353516 88.65445313 27.52353516 89.625 28.5 C90.26695312 29.13808594 90.90890625 29.77617187 91.5703125 30.43359375 C94.38366674 33.25271306 97.12375961 36.07381735 99.6484375 39.15625 C101.91318332 42.07329834 101.91318332 42.07329834 104.79296875 44.32421875 C107.91898301 48.11416524 107.5712465 51.06350647 107.3125 55.8125 C107.27866211 56.99489258 107.27866211 56.99489258 107.24414062 58.20117188 C107.18554161 60.13493929 107.09586827 62.06772167 107 64 C99.64103339 63.1363129 99.64103339 63.1363129 96.1875 61.125 C85.58609355 55.56027707 74.01028173 54.20083901 62.32421875 57.16015625 C58.29624918 58.61564105 54.55837773 60.62516337 50.796875 62.66015625 C43.9938728 65.91913636 35.77841408 66.11459871 28.625 63.8125 C26.1470291 62.92384837 23.89480479 61.94299098 21.578125 60.6875 C11.13166843 55.3736955 -2.33336116 54.73976098 -13.65673828 57.69287109 C-18.64938441 59.3882479 -23.3066326 61.61325097 -28 64 C-37.50064545 67.16688182 -45.34038278 64.06298567 -54 60 C-65.43797398 55.17887445 -78.96194085 54.27984844 -90.6875 58.875 C-93.2098014 60.03070332 -95.45094287 61.28058667 -97.8125 62.75 C-100.41962815 64.23978752 -102.04686331 64.09762435 -105 64 C-105.24721233 61.3691725 -105.42265689 58.76204159 -105.5625 56.125 C-105.67561523 55.03445312 -105.67561523 55.03445312 -105.79101562 53.921875 C-105.9971701 48.69929486 -104.64893606 46.05546391 -101.1875 42.15625 C-99.47834115 40.41760255 -97.74764356 38.69995909 -96 37 C-94.58623665 35.56148564 -93.17249689 34.12294725 -91.76011658 32.68307495 C-89.33879317 30.22736375 -86.88670112 27.80284767 -84.4375 25.375 C-83.41838246 24.36091554 -82.39950101 23.34659375 -81.38085938 22.33203125 C-78.92327588 19.88529165 -76.46255754 17.44173456 -74 15 C-67.25919575 20.52650334 -61.1928871 26.69449559 -55.0625 32.875 C-53.98656273 33.95596274 -52.91039269 35.03669383 -51.83398438 36.1171875 C-49.21996708 38.74212641 -46.60911404 41.37018628 -44 44 C-40.81058851 42.48123262 -38.66753164 40.91059243 -36.1875 38.375 C-35.56230469 37.74335938 -34.93710938 37.11171875 -34.29296875 36.4609375 C-32.47404568 34.50877134 -30.74213393 32.52848974 -29.01171875 30.5 C-23.85937608 24.57870243 -18.20628589 19.13682989 -12.625 13.625 C-10.4476508 11.47422699 -8.27363898 9.32015877 -6.1015625 7.1640625 C-5.60371246 6.6745108 -5.10586243 6.18495911 -4.59292603 5.68057251 C-1.96183578 3.0942157 -1.96183578 3.0942157 0 0 Z " fill="#055D35" transform="translate(199,149)"/>
<path d="M0 0 C1.27085449 -0.00193359 1.27085449 -0.00193359 2.56738281 -0.00390625 C7.61786124 0.08347914 11.82582488 0.90267564 16.6875 2.375 C20.50129827 2.39419697 24.06965095 1.58094968 27.6875 0.375 C39.06757322 -0.64737337 50.10812488 -0.22232008 60.6875 4.375 C61.6875 5.375 61.6875 5.375 61.75 8.4375 C61.729375 9.406875 61.70875 10.37625 61.6875 11.375 C63.9975 11.375 66.3075 11.375 68.6875 11.375 C68.6875 26.555 68.6875 41.735 68.6875 57.375 C36.3475 57.375 4.0075 57.375 -29.3125 57.375 C-29.3125 42.195 -29.3125 27.015 -29.3125 11.375 C-27.0025 11.375 -24.6925 11.375 -22.3125 11.375 C-22.3125 9.065 -22.3125 6.755 -22.3125 4.375 C-14.806074 0.9574402 -8.16777269 -0.01200702 0 0 Z " fill="#0D5F3A" transform="translate(180.3125,75.625)"/>
<path d="M0 0 C0.96164063 -0.00128906 1.92328125 -0.00257812 2.9140625 -0.00390625 C3.91179687 -0.00003906 4.90953125 0.00382812 5.9375 0.0078125 C7.43410156 0.00201172 7.43410156 0.00201172 8.9609375 -0.00390625 C9.92257813 -0.00261719 10.88421875 -0.00132813 11.875 0 C12.75027344 0.00112793 13.62554687 0.00225586 14.52734375 0.00341797 C16.9375 0.1328125 16.9375 0.1328125 20.9375 1.1328125 C20.9375 13.0128125 20.9375 24.8928125 20.9375 37.1328125 C17.4725 36.6378125 17.4725 36.6378125 13.9375 36.1328125 C12.54194881 36.05291165 11.1439282 36.00247373 9.74609375 36 C9.02873047 35.99871094 8.31136719 35.99742188 7.57226562 35.99609375 C6.48461914 36.00189453 6.48461914 36.00189453 5.375 36.0078125 C4.64603516 36.00394531 3.91707031 36.00007813 3.16601562 35.99609375 C2.0919043 35.99802734 2.0919043 35.99802734 0.99609375 36 C0.04174438 36.00169189 0.04174438 36.00169189 -0.93188477 36.00341797 C-3.66307956 36.16928634 -6.36350247 36.68297958 -9.0625 37.1328125 C-9.0625 25.2528125 -9.0625 13.3728125 -9.0625 1.1328125 C-5.72310502 0.29796376 -3.37140949 0.0043446 0 0 Z " fill="#F7FCFA" transform="translate(175.0625,84.8671875)"/>
<path d="M0 0 C0.91201172 -0.00128906 1.82402344 -0.00257812 2.76367188 -0.00390625 C3.70919922 -0.00003906 4.65472656 0.00382812 5.62890625 0.0078125 C6.57056641 0.00394531 7.51222656 0.00007813 8.48242188 -0.00390625 C9.85237305 -0.00197266 9.85237305 -0.00197266 11.25 0 C12.07814209 0.00112793 12.90628418 0.00225586 13.75952148 0.00341797 C16.19140625 0.1328125 16.19140625 0.1328125 21.19140625 1.1328125 C21.19140625 13.0128125 21.19140625 24.8928125 21.19140625 37.1328125 C17.72640625 36.6378125 17.72640625 36.6378125 14.19140625 36.1328125 C12.79585506 36.05291165 11.39783445 36.00247373 10 36 C9.28263672 35.99871094 8.56527344 35.99742188 7.82617188 35.99609375 C6.73852539 36.00189453 6.73852539 36.00189453 5.62890625 36.0078125 C4.89994141 36.00394531 4.17097656 36.00007813 3.41992188 35.99609375 C2.34581055 35.99802734 2.34581055 35.99802734 1.25 36 C0.29565063 36.00169189 0.29565063 36.00169189 -0.67797852 36.00341797 C-3.40917331 36.16928634 -6.10959622 36.68297958 -8.80859375 37.1328125 C-8.80859375 25.2528125 -8.80859375 13.3728125 -8.80859375 1.1328125 C-5.54295155 0.31640195 -3.28497779 0.00448024 0 0 Z " fill="#FCFEFD" transform="translate(212.80859375,84.8671875)"/>
<path d="M0 0 C4.24803004 2.12401502 6.65081502 4.77143025 9.47265625 8.4765625 C11.31226312 10.31146449 12.41778149 10.79322078 15 11 C18.48210449 8.55511813 21.06006359 6.01136534 23.6875 2.6875 C24.450625 1.800625 25.21375 0.91375 26 0 C26.99 0 27.98 0 29 0 C32.78279996 3.86543394 33.2582741 7.87133523 33.234375 13.1171875 C31.48161388 21.70571701 21.29465744 28.53747421 15 34 C7.50502448 30.56566414 0.69041218 23.70701626 -4 17 C-5.39266111 12.35132633 -5.56460322 8.61391503 -4 4 C-1.92578125 1.63671875 -1.92578125 1.63671875 0 0 Z " fill="#F5FBF9" transform="translate(186,276)"/>
<path d="M0 0 C3.28812406 1.69103523 5.13168002 3.16130802 7.5 6.0625 C9.98735846 8.98514619 11.38172788 9.96620797 15 11 C15.78375 10.175 16.5675 9.35 17.375 8.5 C20 6 20 6 22 6 C22 5.34 22 4.68 22 4 C23.96147874 2.61061923 25.96166576 1.2739589 28 0 C31.49416858 2.99601827 32.82367695 5.08785175 33.3125 9.6875 C33.22971586 16.29517962 30.43181007 19.33733799 25.91088867 23.9855957 C22.35451565 27.4180809 18.73303012 30.76046338 15 34 C7.50502448 30.56566414 0.69041218 23.70701626 -4 17 C-5.39266111 12.35132633 -5.56460322 8.61391503 -4 4 C-1.92578125 1.63671875 -1.92578125 1.63671875 0 0 Z " fill="#F3FAF7" transform="translate(186,243)"/>
<path d="M0 0 C3.90285767 1.58667578 6.33520982 4.13350481 9.25 7.125 C10.14203125 8.03507812 11.0340625 8.94515625 11.953125 9.8828125 C12.62859375 10.58148438 13.3040625 11.28015625 14 12 C18.56030824 8.19524578 22.85089392 4.25030379 27 0 C29.46800047 1.15173355 31.04783565 2.04783565 33 4 C34.08166611 9.23699792 34.22684137 14.06786619 31.3046875 18.66992188 C28.98400737 21.19477334 26.57050586 23.48054438 24 25.75 C23.14148438 26.554375 22.28296875 27.35875 21.3984375 28.1875 C19.2902687 30.15512422 17.15963234 32.08926146 15 34 C13.31917323 32.56414312 11.64028302 31.12614669 9.96435547 29.68457031 C8.74750461 28.64103677 7.52603486 27.60283162 6.29736328 26.57324219 C-3.33940917 18.39854011 -3.33940917 18.39854011 -4.91015625 12.6953125 C-5.04053259 8.05844973 -5.08061488 5.22797145 -1.9375 1.65625 C-1.298125 1.1096875 -0.65875 0.563125 0 0 Z " fill="#F2FAF7" transform="translate(239,276)"/>
<path d="M0 0 C3.90285767 1.58667578 6.33520982 4.13350481 9.25 7.125 C10.14203125 8.03507812 11.0340625 8.94515625 11.953125 9.8828125 C12.62859375 10.58148438 13.3040625 11.28015625 14 12 C18.56030824 8.19524578 22.85089392 4.25030379 27 0 C29.46800047 1.15173355 31.04783565 2.04783565 33 4 C34.08166611 9.23699792 34.22684137 14.06786619 31.3046875 18.66992188 C28.98400737 21.19477334 26.57050586 23.48054438 24 25.75 C23.14148438 26.554375 22.28296875 27.35875 21.3984375 28.1875 C19.2902687 30.15512422 17.15963234 32.08926146 15 34 C13.31917323 32.56414312 11.64028302 31.12614669 9.96435547 29.68457031 C8.74750461 28.64103677 7.52603486 27.60283162 6.29736328 26.57324219 C-3.33940917 18.39854011 -3.33940917 18.39854011 -4.91015625 12.6953125 C-5.04053259 8.05844973 -5.08061488 5.22797145 -1.9375 1.65625 C-1.298125 1.1096875 -0.65875 0.563125 0 0 Z " fill="#F6FCFA" transform="translate(132,276)"/>
<path d="M0 0 C3.90285767 1.58667578 6.33520982 4.13350481 9.25 7.125 C10.14203125 8.03507813 11.0340625 8.94515625 11.953125 9.8828125 C12.62859375 10.58148438 13.3040625 11.28015625 14 12 C18.56030824 8.19524578 22.85089392 4.25030379 27 0 C29.46800047 1.15173355 31.04783565 2.04783565 33 4 C34.08166611 9.23699792 34.22684137 14.06786619 31.3046875 18.66992188 C28.98400737 21.19477334 26.57050586 23.48054438 24 25.75 C23.14148438 26.554375 22.28296875 27.35875 21.3984375 28.1875 C19.2902687 30.15512422 17.15963234 32.08926146 15 34 C13.31917323 32.56414312 11.64028302 31.12614669 9.96435547 29.68457031 C8.74750461 28.64103677 7.52603486 27.60283162 6.29736328 26.57324219 C-3.33940917 18.39854011 -3.33940917 18.39854011 -4.91015625 12.6953125 C-5.04053259 8.05844973 -5.08061488 5.22797145 -1.9375 1.65625 C-1.298125 1.1096875 -0.65875 0.563125 0 0 Z " fill="#F9FDFC" transform="translate(239,243)"/>
<path d="M0 0 C3.90285767 1.58667578 6.33520982 4.13350481 9.25 7.125 C10.14203125 8.03507813 11.0340625 8.94515625 11.953125 9.8828125 C12.62859375 10.58148438 13.3040625 11.28015625 14 12 C18.56030824 8.19524578 22.85089392 4.25030379 27 0 C29.46800047 1.15173355 31.04783565 2.04783565 33 4 C34.08166611 9.23699792 34.22684137 14.06786619 31.3046875 18.66992188 C28.98400737 21.19477334 26.57050586 23.48054438 24 25.75 C23.14148438 26.554375 22.28296875 27.35875 21.3984375 28.1875 C19.2902687 30.15512422 17.15963234 32.08926146 15 34 C13.31917323 32.56414312 11.64028302 31.12614669 9.96435547 29.68457031 C8.74750461 28.64103677 7.52603486 27.60283162 6.29736328 26.57324219 C-3.33940917 18.39854011 -3.33940917 18.39854011 -4.91015625 12.6953125 C-5.04053259 8.05844973 -5.08061488 5.22797145 -1.9375 1.65625 C-1.298125 1.1096875 -0.65875 0.563125 0 0 Z " fill="#F1F9F6" transform="translate(132,243)"/>
<path d="M0 0 C5.01202555 2.98334854 8.38748484 6.43951988 12 11 C14.80279425 10.91756487 16.50385923 10.50523235 18.4921875 8.48046875 C19.50506221 7.23405557 20.51019207 5.98131207 21.5078125 4.72265625 C23.38564559 2.55479134 25.44779859 1.27610071 28 0 C31.49416858 2.99601827 32.82367695 5.08785175 33.3125 9.6875 C33.22971586 16.29517962 30.43181007 19.33733799 25.91088867 23.9855957 C22.35451565 27.4180809 18.73303012 30.76046338 15 34 C7.50502448 30.56566414 0.69041218 23.70701626 -4 17 C-5.39266111 12.35132633 -5.56460322 8.61391503 -4 4 C-1.92578125 1.63671875 -1.92578125 1.63671875 0 0 Z " fill="#F5FBF9" transform="translate(186,309)"/>
<path d="M0 0 C0.75539062 0.00064453 1.51078125 0.00128906 2.2890625 0.00195312 C6.02297349 0.03082357 9.64993575 0.22550418 13.3515625 0.7265625 C17.20685492 1.21363371 20.17409979 0.78117417 24 0.1875 C27.33525725 0.09934342 30.66438763 0.12709656 34 0.1875 C34 0.5175 34 0.8475 34 1.1875 C32.02 1.1875 30.04 1.1875 28 1.1875 C28 1.8475 28 2.5075 28 3.1875 C28.66 3.5175 29.32 3.8475 30 4.1875 C30.495 5.1775 30.495 5.1775 31 6.1875 C27.04 6.8475 23.08 7.5075 19 8.1875 C18.67 20.3975 18.34 32.6075 18 45.1875 C14 46.1875 14 46.1875 12 45.1875 C12 33.3075 12 21.4275 12 9.1875 C3.25001528 8.60961637 3.25001528 8.60961637 -5.5012207 8.05126953 C-7.13450317 7.9369458 -7.13450317 7.9369458 -8.80078125 7.8203125 C-9.91622314 7.74699707 -11.03166504 7.67368164 -12.1809082 7.59814453 C-15 7.1875 -15 7.1875 -18 5.1875 C-17.67 4.1975 -17.34 3.2075 -17 2.1875 C-11.27224767 0.2633332 -6.00168341 -0.09729692 0 0 Z " fill="#075B34" transform="translate(185,76.8125)"/>
<path d="M0 0 C1.33961792 -0.00084595 1.33961792 -0.00084595 2.70629883 -0.00170898 C9.35886595 0.10789935 19.62056243 0.37056243 24.625 5.375 C24.66580783 7.37458364 24.66754356 9.37545254 24.625 11.375 C21.625 12.375 21.625 12.375 17.625 11.375 C17.625 22.925 17.625 34.475 17.625 46.375 C17.295 46.375 16.965 46.375 16.625 46.375 C16.625 34.495 16.625 22.615 16.625 10.375 C6.725 10.375 -3.175 10.375 -13.375 10.375 C-10.09036341 8.18524227 -7.16803725 7.37693437 -3.375 6.375 C-3.705 5.055 -4.035 3.735 -4.375 2.375 C-7.015 2.375 -9.655 2.375 -12.375 2.375 C-8.23377282 -0.38581812 -4.87274798 -0.00761017 0 0 Z " fill="#186341" transform="translate(217.375,75.625)"/>
<path d="M0 0 C0 3.20395416 -0.74335022 5.09399739 -2 8 C-0.68 8.66 0.64 9.32 2 10 C-1.50897269 14.18423892 -5.08060535 18.19588166 -9 22 C-13.59306496 20.5140084 -16.43569245 18.14985318 -20 15 C-19.34 14.67 -18.68 14.34 -18 14 C-17.59270772 11.67843403 -17.25561323 9.3431213 -17 7 C-19.31 6.34 -21.62 5.68 -24 5 C-24 4.01 -24 3.02 -24 2 C-23.34 2.33 -22.68 2.66 -22 3 C-21.34 2.34 -20.68 1.68 -20 1 C-17.03 3.97 -14.06 6.94 -11 10 C-7.19374613 6.77932365 -3.45918464 3.59755203 0 0 Z " fill="#155C3D" transform="translate(157,299)"/>
<path d="M0 0 C1 3 1 3 0 6 C-0.66 6 -1.32 6 -2 6 C-1.67 6.66 -1.34 7.32 -1 8 C0.98 8 2.96 8 5 8 C0.33333333 12.66666667 -4.33333333 17.33333333 -9 22 C-10.13199353 21.0919838 -11.25532363 20.17316174 -12.375 19.25 C-13.00148437 18.73953125 -13.62796875 18.2290625 -14.2734375 17.703125 C-16.85527728 15.15633282 -17.94826301 13.06060834 -18.125 9.4375 C-18.08375 8.633125 -18.0425 7.82875 -18 7 C-18 6.01 -18 5.02 -18 4 C-17.67 3.34 -17.34 2.68 -17 2 C-14.69 4.31 -12.38 6.62 -10 9 C-8.906875 8.071875 -7.81375 7.14375 -6.6875 6.1875 C-6.07261719 5.66542969 -5.45773437 5.14335937 -4.82421875 4.60546875 C-3.14575321 3.12827531 -1.56117966 1.59960869 0 0 Z " fill="#045A32" transform="translate(263,267)"/>
<path d="M0 0 C0 3 0 3 -1.125 4.8125 C-2.40121061 8.00302654 -1.25962661 9.92091274 0 13 C0.99 13 1.98 13 3 13 C4.33981486 13.3062434 5.67511887 13.63451555 7 14 C6.47567383 14.23187012 5.95134766 14.46374023 5.41113281 14.70263672 C3.02365093 15.75910537 0.63682055 16.81703813 -1.75 17.875 C-2.575 18.23980469 -3.4 18.60460937 -4.25 18.98046875 C-5.04921875 19.33496094 -5.8484375 19.68945312 -6.671875 20.0546875 C-7.4050293 20.37937012 -8.13818359 20.70405273 -8.89355469 21.03857422 C-11.01777568 21.97474729 -11.01777568 21.97474729 -13.04785156 23.13720703 C-16.17784908 24.52057512 -18.73864724 23.71156788 -22 23 C-22.99 22.34 -23.98 21.68 -25 21 C-21.7 21.33 -18.4 21.66 -15 22 C-15 21.34 -15 20.68 -15 20 C-13.5 18.375 -13.5 18.375 -12 17 C-12.99 16.67 -13.98 16.34 -15 16 C-10.30233025 10.33870569 -5.25276628 5.14771096 0 0 Z " fill="#125F3C" transform="translate(217,326)"/>
<path d="M0 0 C3.39581516 -0.0291544 6.79159786 -0.04685068 10.1875 -0.0625 C11.14720703 -0.07087891 12.10691406 -0.07925781 13.09570312 -0.08789062 C14.02705078 -0.09111328 14.95839844 -0.09433594 15.91796875 -0.09765625 C17.19837036 -0.10551147 17.19837036 -0.10551147 18.50463867 -0.11352539 C21 0 21 0 26 1 C26 12.88 26 24.76 26 37 C22.535 36.505 22.535 36.505 19 36 C17.60444881 35.92009915 16.2064282 35.86966123 14.80859375 35.8671875 C14.09123047 35.86589844 13.37386719 35.86460938 12.63476562 35.86328125 C11.54711914 35.86908203 11.54711914 35.86908203 10.4375 35.875 C9.70853516 35.87113281 8.97957031 35.86726563 8.22851562 35.86328125 C7.1544043 35.86521484 7.1544043 35.86521484 6.05859375 35.8671875 C5.10424438 35.86887939 5.10424438 35.86887939 4.13061523 35.87060547 C1.39942044 36.03647384 -1.30100247 36.55016708 -4 37 C-4 25.12 -4 13.24 -4 1 C-3.01 1.495 -3.01 1.495 -2 2 C-2.33 12.89 -2.66 23.78 -3 35 C-2.01 34.505 -2.01 34.505 -1 34 C0.8863912 33.915085 2.77578515 33.892807 4.6640625 33.90234375 C6.1792749 33.90609009 6.1792749 33.90609009 7.72509766 33.90991211 C9.01206543 33.91901611 10.2990332 33.92812012 11.625 33.9375 C17.750625 33.9684375 17.750625 33.9684375 24 34 C24 23.77 24 13.54 24 3 C17.5380399 2.07686284 11.71401359 2.00014774 5.23046875 2.16015625 C2 2 2 2 0 0 Z " fill="#CDE9DC" transform="translate(208,85)"/>
<path d="M0 0 C1.32 0.66 2.64 1.32 4 2 C3.67 2.66 3.34 3.32 3 4 C2.01 4.33 1.02 4.66 0 5 C0.515625 5.4125 1.03125 5.825 1.5625 6.25 C2.036875 6.8275 2.51125 7.405 3 8 C2.46768073 13.40247429 -2.1832022 16.5945532 -6 20 C-8.28072662 21.78101685 -10.58969878 23.39313252 -13 25 C-16.875 23.25 -16.875 23.25 -18 21 C-16.35 21.33 -14.7 21.66 -13 22 C-12.67 20.35 -12.34 18.7 -12 17 C-9.525 17.99 -9.525 17.99 -7 19 C-7 18.01 -7 17.02 -7 16 C-9.97 15.505 -9.97 15.505 -13 15 C-11.38989473 10.92623969 -8.46177729 8.23492931 -5.375 5.25 C-4.859375 4.74339844 -4.34375 4.23679687 -3.8125 3.71484375 C-2.54616661 2.47196098 -1.2736856 1.23534724 0 0 Z M4 1 C6 2 6 2 6 2 Z " fill="#125F3D" transform="translate(267,296)"/>
<path d="M0 0 C0 0.66 0 1.32 0 2 C-0.99 2 -1.98 2 -3 2 C-4.01249798 5.36374896 -4.13684702 8.44291163 -4.15821838 11.94781494 C-4.1680072 13.16495178 -4.17779602 14.38208862 -4.18788147 15.6361084 C-4.19378521 16.98168906 -4.19959568 18.32727013 -4.20532227 19.67285156 C-4.21490419 21.09214562 -4.22491445 22.51143685 -4.23532104 23.9307251 C-4.26234216 27.78158694 -4.28336683 31.632461 -4.30332303 35.48336506 C-4.32519982 39.50860632 -4.35258023 43.53381004 -4.37937927 47.559021 C-4.42928326 55.1803834 -4.4742306 62.80176666 -4.51740164 70.42316985 C-4.56679361 79.1002686 -4.62170447 87.77732966 -4.67708123 96.45439196 C-4.79086606 114.30289298 -4.89771272 132.15142957 -5 150 C-5.33 150 -5.66 150 -6 150 C-6 101.16 -6 52.32 -6 2 C-2 0 -2 0 0 0 Z " fill="#D3F0E3" transform="translate(79,76)"/>
<path d="M0 0 C0.33 0 0.66 0 1 0 C1.05397335 2.4377963 1.09365616 4.87439685 1.125 7.3125 C1.15013672 8.34793945 1.15013672 8.34793945 1.17578125 9.40429688 C1.21217794 13.17135396 1.14378864 14.78431704 -1 18 C-1.99 18 -2.98 18 -4 18 C-4.268125 18.598125 -4.53625 19.19625 -4.8125 19.8125 C-5.98493467 21.97224808 -7.19369282 23.35790256 -9 25 C-6.23776722 27.76223278 -3.79293383 27.57856291 0 28 C0.33 28.99 0.66 29.98 1 31 C0.34 31.66 -0.32 32.32 -1 33 C-2.32 32.01 -3.64 31.02 -5 30 C-5.680625 30.70125 -6.36125 31.4025 -7.0625 32.125 C-8.03682613 33.08825424 -9.01655463 34.04605799 -10 35 C-10.5775 35.56203125 -11.155 36.1240625 -11.75 36.703125 C-12.6471875 37.53070313 -12.6471875 37.53070313 -13.5625 38.375 C-14.39974609 39.16003906 -14.39974609 39.16003906 -15.25390625 39.9609375 C-17 41 -17 41 -19.07421875 40.82421875 C-21.92841353 39.60264654 -23.22264217 37.47560555 -25 35 C-23.515 34.505 -23.515 34.505 -22 34 C-21.34 34.66 -20.68 35.32 -20 36 C-16.73908537 35.82837291 -15.23736046 35.19245443 -12.6875 33.125 C-10.68905893 31.06070069 -10.68905893 31.06070069 -11 28 C-11.99 28 -12.98 28 -14 28 C-14 28.66 -14 29.32 -14 30 C-15.32 30.33 -16.64 30.66 -18 31 C-15.19983742 27.59439686 -12.51614061 24.45090617 -9.1875 21.54296875 C-3.80419162 16.82049091 -0.35603294 13.38078448 0.1875 5.8125 C0.17621668 3.87402504 0.13221262 1.93399388 0 0 Z " fill="#1B5A3F" transform="translate(218,280)"/>
<path d="M0 0 C0.91330078 0.01353516 1.82660156 0.02707031 2.76757812 0.04101562 C4.99153259 0.07594685 7.21417952 0.12498414 9.4375 0.1875 C9.4375 0.5175 9.4375 0.8475 9.4375 1.1875 C-1.4525 2.1775 -1.4525 2.1775 -12.5625 3.1875 C-11.9025 4.5075 -11.2425 5.8275 -10.5625 7.1875 C-4.9525 7.5175 0.6575 7.8475 6.4375 8.1875 C6.4375 8.5175 6.4375 8.8475 6.4375 9.1875 C-3.9575 9.6825 -3.9575 9.6825 -14.5625 10.1875 C-14.5625 22.0675 -14.5625 33.9475 -14.5625 46.1875 C-14.8925 46.1875 -15.2225 46.1875 -15.5625 46.1875 C-15.5625 34.6375 -15.5625 23.0875 -15.5625 11.1875 C-17.2125 10.8575 -18.8625 10.5275 -20.5625 10.1875 C-20.5625 6.1875 -20.5625 6.1875 -19.5625 3.1875 C-13.47991427 -0.19502391 -6.76491211 -0.19356682 0 0 Z " fill="#2C6E50" transform="translate(180.5625,75.8125)"/>
<path d="M0 0 C1.11375 1.0209375 1.11375 1.0209375 2.25 2.0625 C4.73469755 4.27089908 4.73469755 4.27089908 7.125 3.75 C7.74375 3.5025 8.3625 3.255 9 3 C9.99 3 10.98 3 12 3 C12.33 3.99 12.66 4.98 13 6 C12.67 6.66 12.34 7.32 12 8 C11.34 7.67 10.68 7.34 10 7 C10 7.66 10 8.32 10 9 C11.32 9.33 12.64 9.66 14 10 C11.69 11.98 9.38 13.96 7 16 C1.00274725 13.89285714 1.00274725 13.89285714 -1 11 C-0.6875 8.8125 -0.6875 8.8125 0 7 C0.66 7 1.32 7 2 7 C1.34 4.69 0.68 2.38 0 0 Z M9 9 C8.67 9.99 8.34 10.98 8 12 C8.66 12 9.32 12 10 12 C9.67 11.01 9.34 10.02 9 9 Z " fill="#17603F" transform="translate(194,272)"/>
<path d="M0 0 C0.45890625 0.39832031 0.9178125 0.79664063 1.390625 1.20703125 C5.28130755 4.57477732 5.28130755 4.57477732 9.375 7.6875 C11 9 11 9 12 12 C11.01 12.33 10.02 12.66 9 13 C9.33 14.65 9.66 16.3 10 18 C11.32 18.33 12.64 18.66 14 19 C12.02 19.99 12.02 19.99 10 21 C7.03 18.69 4.06 16.38 1 14 C1.66 13.67 2.32 13.34 3 13 C3.40729228 10.67843403 3.74438677 8.3431213 4 6 C1.69 5.34 -0.62 4.68 -3 4 C-3 3.01 -3 2.02 -3 1 C-2.34 1.33 -1.68 1.66 -1 2 C-0.67 1.34 -0.34 0.68 0 0 Z " fill="#1F6545" transform="translate(136,300)"/>
<path d="M0 0 C32.34 0 64.68 0 98 0 C95.43753919 2.56246081 93.77760252 2.23147234 90.28556824 2.23773193 C89.08786552 2.22458954 89.08786552 2.22458954 87.8659668 2.21118164 C87.02514557 2.2098674 86.18432434 2.20855316 85.31802368 2.2071991 C82.52830918 2.20068905 79.73886569 2.18024352 76.94921875 2.16015625 C75.01349688 2.15388736 73.07777142 2.14864677 71.14204407 2.14439392 C66.03604297 2.13106607 60.93016058 2.10662783 55.82421875 2.07904053 C47.66163008 2.03599761 39.49901062 2.00618263 31.33634377 1.9829998 C28.48408677 1.97278117 25.63192784 1.95572582 22.77970886 1.93800354 C21.0272124 1.9311734 19.27471506 1.92456471 17.5222168 1.91821289 C16.72982101 1.91147552 15.93742523 1.90473816 15.12101746 1.89779663 C12.02657224 1.89142432 9.23072156 1.94257233 6.21736145 2.69261169 C4 3 4 3 0 0 Z " fill="#ECFEF6" transform="translate(151,133)"/>
<path d="M0 0 C0.99 0.495 0.99 0.495 2 1 C2 11.56 2 22.12 2 33 C9.92 33 17.84 33 26 33 C26.33 33.66 26.66 34.32 27 35 C26.39526855 34.99476318 25.79053711 34.98952637 25.16748047 34.98413086 C22.40333106 34.96322642 19.63919835 34.95029721 16.875 34.9375 C15.92367187 34.92912109 14.97234375 34.92074219 13.9921875 34.91210938 C13.0640625 34.90888672 12.1359375 34.90566406 11.1796875 34.90234375 C10.33132324 34.89710693 9.48295898 34.89187012 8.60888672 34.88647461 C5.41646893 34.9725227 5.41646893 34.9725227 0 36 C0 24.12 0 12.24 0 0 Z " fill="#D0ECE0" transform="translate(166,86)"/>
<path d="M0 0 C5.15171623 -0.09038099 9.91913204 0.15318867 15 1 C15 1.33 15 1.66 15 2 C13.81857422 2.11214844 13.81857422 2.11214844 12.61328125 2.2265625 C4.92839917 3.15420507 -1.15307694 5.10569971 -8.02734375 8.66015625 C-13.69491572 11.21465978 -19.28150405 11.13412337 -25.375 11.0625 C-26.11105469 11.05798828 -26.84710938 11.05347656 -27.60546875 11.04882812 C-29.40368158 11.03715142 -31.20185197 11.01922011 -33 11 C-33 10.67 -33 10.34 -33 10 C-32.0821875 9.95101562 -31.164375 9.90203125 -30.21875 9.8515625 C-23.54838102 9.44517447 -17.42480826 8.81834196 -11 7 C-10.01 7 -9.02 7 -8 7 C-7.67 6.01 -7.34 5.02 -7 4 C-5.35 4 -3.7 4 -2 4 C-1.34 2.68 -0.68 1.36 0 0 Z " fill="#DCF3E9" transform="translate(261,220)"/>
<path d="M0 0 C3.45201639 1.47721422 5.64961936 3.43794001 8.25 6.125 C8.95640625 6.84945313 9.6628125 7.57390625 10.390625 8.3203125 C11.18726563 9.15175781 11.18726563 9.15175781 12 10 C8.87993907 10.85801675 7.08173808 11.15565178 4 10 C1.6495547 8.45542166 0.26346142 7.52692284 -1 5 C-1.66 5 -2.32 5 -3 5 C-3 8.96 -3 12.92 -3 17 C-3.33 17 -3.66 17 -4 17 C-4.10832169 14.91781638 -4.18573541 12.83400871 -4.25 10.75 C-4.29640625 9.58984375 -4.3428125 8.4296875 -4.390625 7.234375 C-3.93035506 3.42333987 -2.94851556 2.34488245 0 0 Z " fill="#D2E9DF" transform="translate(239,309)"/>
<path d="M0 0 C0.33 0 0.66 0 1 0 C1 2.31 1 4.62 1 7 C-1.31 7 -3.62 7 -6 7 C-6 21.85 -6 36.7 -6 52 C-6.33 52 -6.66 52 -7 52 C-7.14285044 45.7886655 -7.28525572 39.57732102 -7.42724609 33.3659668 C-7.47562582 31.25235721 -7.5241278 29.13875042 -7.57275391 27.02514648 C-7.6425733 23.98942782 -7.71195493 20.95369942 -7.78125 17.91796875 C-7.80312378 16.97100632 -7.82499756 16.02404388 -7.84753418 15.04838562 C-7.86755493 14.16769913 -7.88757568 13.28701263 -7.90820312 12.37963867 C-7.92596802 11.60464523 -7.94373291 10.82965179 -7.96203613 10.03117371 C-7.99337678 8.35436092 -8 6.67710565 -8 5 C-3.77777778 2 -3.77777778 2 -1 2 C-0.67 1.34 -0.34 0.68 0 0 Z " fill="#DDF3E9" transform="translate(157,80)"/>
<path d="M0 0 C0.66 0 1.32 0 2 0 C2 2.97 2 5.94 2 9 C2.66 9 3.32 9 4 9 C4.20496094 9.85464844 4.40992187 10.70929688 4.62109375 11.58984375 C4.89050781 12.69457031 5.15992187 13.79929688 5.4375 14.9375 C5.70433594 16.03964844 5.97117187 17.14179688 6.24609375 18.27734375 C6.72995725 20.89421254 6.72995725 20.89421254 8 22 C8.23427778 24.01594582 8.41336124 26.038474 8.5625 28.0625 C8.64628906 29.16722656 8.73007813 30.27195312 8.81640625 31.41015625 C8.87699219 32.26480469 8.93757813 33.11945313 9 34 C9.66 34 10.32 34 11 34 C10.67 34.99 10.34 35.98 10 37 C2.73085927 28.5537541 -0.32651876 10.97103032 0 0 Z " fill="#1D5F43" transform="translate(95,231)"/>
<path d="M0 0 C0.66 0.33 1.32 0.66 2 1 C2 1.99 2 2.98 2 4 C2.721875 4.2475 3.44375 4.495 4.1875 4.75 C7.26894735 6.11953215 9.4060245 7.85997022 12 10 C12.9075 10.45375 13.815 10.9075 14.75 11.375 C17 13 17 13 17.8125 16.1875 C17.874375 17.115625 17.93625 18.04375 18 19 C15 19 15 19 13.09887695 17.43945312 C12.40238037 16.72724609 11.70588379 16.01503906 10.98828125 15.28125 C10.23095703 14.51425781 9.47363281 13.74726563 8.69335938 12.95703125 C7.90767578 12.14621094 7.12199219 11.33539063 6.3125 10.5 C5.51521484 9.68917969 4.71792969 8.87835938 3.89648438 8.04296875 C1.9241252 6.03517797 -0.04091492 4.0207313 -2 2 C-1.34 1.34 -0.68 0.68 0 0 Z " fill="#E8F5F0" transform="translate(203,149)"/>
<path d="M0 0 C1 3 1 3 0 6 C-0.66 6 -1.32 6 -2 6 C-1.67 6.66 -1.34 7.32 -1 8 C0.98 8 2.96 8 5 8 C0.33333333 12.66666667 -4.33333333 17.33333333 -9 22 C-10.65 20.35 -12.3 18.7 -14 17 C-13.113125 17.103125 -12.22625 17.20625 -11.3125 17.3125 C-6.99315142 16.90501428 -5.74357025 15.2277297 -3 12 C-4.3089572 8.87802522 -4.3089572 8.87802522 -7 7 C-4.69 4.69 -2.38 2.38 0 0 Z " fill="#236245" transform="translate(263,267)"/>
<path d="M0 0 C0.66 0.33 1.32 0.66 2 1 C1.525625 1.433125 1.05125 1.86625 0.5625 2.3125 C-1.23686957 4.02309613 -1.23686957 4.02309613 -2 7 C-11.12004552 8.53140195 -19.74400342 9.27675737 -29 9 C-29 8.34 -29 7.68 -29 7 C-29.99 7 -30.98 7 -32 7 C-32 6.34 -32 5.68 -32 5 C-31.05125 5.165 -30.1025 5.33 -29.125 5.5 C-19.23187371 6.8563157 -11.47869877 5.78915574 -2.5625 1.25 C-1.716875 0.8375 -0.87125 0.425 0 0 Z " fill="#E0F1E9" transform="translate(257,207)"/>
<path d="M0 0 C-0.33 0.66 -0.66 1.32 -1 2 C-3.90323324 1.38854026 -6.10397267 0.45466022 -8.66015625 -1.03125 C-13.27984197 -3.39187626 -17.31555923 -3.61561363 -22.4375 -3.5 C-23.2728125 -3.49154053 -24.108125 -3.48308105 -24.96875 -3.47436523 C-31.07544125 -3.29816473 -35.74839911 -2.20502113 -41 1 C-41.99 1.33 -42.98 1.66 -44 2 C-44.66 1.34 -45.32 0.68 -46 0 C-33.25189113 -8.72731169 -12.96039556 -7.80410915 0 0 Z " fill="#DDF5EB" transform="translate(223,210)"/>
<path d="M0 0 C0.33 0.66 0.66 1.32 1 2 C1.86165771 1.9388501 1.86165771 1.9388501 2.74072266 1.87646484 C5.3681398 1.69699791 7.9963808 1.53586126 10.625 1.375 C11.52863281 1.31054688 12.43226563 1.24609375 13.36328125 1.1796875 C18.30796086 0.89094708 22.44694522 0.71610521 27 3 C27.495 4.485 27.495 4.485 28 6 C27.07703125 5.67902344 26.1540625 5.35804688 25.203125 5.02734375 C20.10504427 3.58117964 15.0188011 3.57616412 9.75 3.5625 C8.72817627 3.55863281 7.70635254 3.55476562 6.65356445 3.55078125 C-1.14102833 3.67034359 -6.31488979 4.92193712 -13 9 C-13.66 9 -14.32 9 -15 9 C-13.63016497 5.83884224 -13.0109362 5.0072908 -10 3 C-8.47225481 2.58992103 -6.9279277 2.23847459 -5.375 1.9375 C-2.40230348 1.52905984 -2.40230348 1.52905984 0 0 Z " fill="#306D52" transform="translate(190,202)"/>
<path d="M0 0 C2 0 2 0 3.54296875 1.42578125 C4.08566406 2.04839844 4.62835938 2.67101562 5.1875 3.3125 C5.73792969 3.92738281 6.28835937 4.54226562 6.85546875 5.17578125 C7.42201172 6.07876953 7.42201172 6.07876953 8 7 C7.67 7.99 7.34 8.98 7 10 C5.88625 9.835 4.7725 9.67 3.625 9.5 C-0.39577481 8.7936288 -0.39577481 8.7936288 -4 10 C-4 9.34 -4 8.68 -4 8 C-4.66 7.67 -5.32 7.34 -6 7 C-5.04882866 5.8274869 -4.08882991 4.66212985 -3.125 3.5 C-2.59132812 2.8503125 -2.05765625 2.200625 -1.5078125 1.53125 C-0.76144531 0.77328125 -0.76144531 0.77328125 0 0 Z " fill="#155F3D" transform="translate(199,149)"/>
<path d="M0 0 C0.66 0.33 1.32 0.66 2 1 C1.2575 1.7115625 1.2575 1.7115625 0.5 2.4375 C-1.72821024 6.24402583 -1.54351405 9.69070999 -1 14 C0.99831421 19.2455748 5.76866753 22.51241718 10 26 C9.67 26.99 9.34 27.98 9 29 C-3.23762075 18.57785046 -3.23762075 18.57785046 -5.00390625 12.60546875 C-5.08939374 7.98344521 -5.06822636 5.20957957 -1.93359375 1.66015625 C-0.97646484 0.83837891 -0.97646484 0.83837891 0 0 Z " fill="#E1FAEF" transform="translate(239,243)"/>
<path d="M0 0 C0.33 0 0.66 0 1 0 C1.33 2.64 1.66 5.28 2 8 C-0.97 7.505 -0.97 7.505 -4 7 C-4.2475 7.78375 -4.495 8.5675 -4.75 9.375 C-6.2265111 12.47567332 -7.00808866 12.59204172 -10 14 C-10.680625 14.86625 -11.36125 15.7325 -12.0625 16.625 C-12.701875 17.40875 -13.34125 18.1925 -14 19 C-14.99 19 -15.98 19 -17 19 C-17.33 19.66 -17.66 20.32 -18 21 C-18 18 -18 18 -15.5859375 15.546875 C-14.52183211 14.60750483 -13.45112409 13.67557741 -12.375 12.75 C-7.84921511 8.75033013 -3.84302022 4.67394351 0 0 Z " fill="#175D3F" transform="translate(293,312)"/>
<path d="M0 0 C1.65 0 3.3 0 5 0 C8.76789131 6.17934175 7.89475273 11.74475911 7.12890625 18.671875 C6.66882619 22.13860101 6.66882619 22.13860101 9 25 C5.23312136 25 4.08809695 24.76462683 1 23 C1.8125 21.0625 1.8125 21.0625 3 19 C3.99 18.67 4.98 18.34 6 18 C6.17177752 10.21421069 6.17177752 10.21421069 3.8203125 3.0234375 C2.34561921 1.52659569 2.34561921 1.52659569 0 0 Z " fill="#145738" transform="translate(159,308)"/>
<path d="M0 0 C0 0.66 0 1.32 0 2 C0.99 2 1.98 2 3 2 C4.53266582 5.06533164 4.10276471 8.26754272 4.0625 11.625 C4.05798828 12.33140625 4.05347656 13.0378125 4.04882812 13.765625 C4.03703875 15.51045275 4.01910324 17.255237 4 19 C3.01 18.34 2.02 17.68 1 17 C0.78666864 13.91113966 1.00733311 10.93676764 1.1875 7.84765625 C1.27042421 4.97187348 1.27042421 4.97187348 -0.5 3.12109375 C-0.995 2.75113281 -1.49 2.38117188 -2 2 C-5.94139078 3.66751148 -8.7892812 6.22710649 -12 9 C-12 7.68 -12 6.36 -12 5 C-11.34 5 -10.68 5 -10 5 C-10 4.34 -10 3.68 -10 3 C-9.01 3 -8.02 3 -7 3 C-6.67 2.01 -6.34 1.02 -6 0 C-3.42525708 -0.99667468 -2.51072708 -1.25536354 0 0 Z " fill="#115737" transform="translate(163,275)"/>
<path d="M0 0 C0.66 1.32 1.32 2.64 2 4 C1.01 4.66 0.02 5.32 -1 6 C-1.33 5.67 -1.66 5.34 -2 5 C-2.433125 6.2065625 -2.433125 6.2065625 -2.875 7.4375 C-4 10 -4 10 -6 11 C-8.6723621 11.13415472 -11.32250488 11.04318541 -14 11 C-14.268125 10.38125 -14.53625 9.7625 -14.8125 9.125 C-15.95556848 6.7004767 -15.95556848 6.7004767 -19 5 C-18.34 4.01 -17.68 3.02 -17 2 C-14.69 4.31 -12.38 6.62 -10 9 C-8.906875 8.071875 -7.81375 7.14375 -6.6875 6.1875 C-6.07261719 5.66542969 -5.45773438 5.14335937 -4.82421875 4.60546875 C-3.14575321 3.12827531 -1.56117966 1.59960869 0 0 Z " fill="#25654A" transform="translate(156,267)"/>
<path d="M0 0 C3.02107902 -0.0543251 6.04116528 -0.09382927 9.0625 -0.125 C9.91005859 -0.14175781 10.75761719 -0.15851562 11.63085938 -0.17578125 C16.7992486 -0.21569159 21.05634838 0.30364896 26 2 C26.87527344 2.28101563 27.75054687 2.56203125 28.65234375 2.8515625 C29.40644531 3.10679688 30.16054688 3.36203125 30.9375 3.625 C31.70964844 3.88539062 32.48179687 4.14578125 33.27734375 4.4140625 C33.84582031 4.60742188 34.41429687 4.80078125 35 5 C31.26094761 6.34895595 28.61232649 5.62743363 24.8125 4.6875 C16.60157621 2.80132362 8.37213893 1.86153972 0 1 C0 0.67 0 0.34 0 0 Z " fill="#356E55" transform="translate(236,50)"/>
<path d="M0 0 C0.33 0 0.66 0 1 0 C0.26379133 11.10125175 -1.12255913 21.53090966 -5 32 C-5.33 32 -5.66 32 -6 32 C-5.88597936 29.72858891 -5.75841495 27.45785448 -5.625 25.1875 C-5.55539062 23.92292969 -5.48578125 22.65835938 -5.4140625 21.35546875 C-5 18 -5 18 -3 15 C-2.57781466 13.01324547 -2.2306041 11.00985671 -1.9375 9 C-1.46938004 5.84309185 -1.01039509 3.03118526 0 0 Z " fill="#D1EBDF" transform="translate(325,230)"/>
<path d="M0 0 C1.65 1.32 3.3 2.64 5 4 C4.67 4.99 4.34 5.98 4 7 C3.67 6.34 3.34 5.68 3 5 C2.34 5 1.68 5 1 5 C1.33 6.98 1.66 8.96 2 11 C-1 11 -1 11 -2.60546875 9.46875 C-3.38857422 8.49421875 -3.38857422 8.49421875 -4.1875 7.5 C-4.71730469 6.8503125 -5.24710938 6.200625 -5.79296875 5.53125 C-6.19128906 5.0259375 -6.58960938 4.520625 -7 4 C-6.01 3.34 -5.02 2.68 -4 2 C-3.34 2.66 -2.68 3.32 -2 4 C-1.34 2.68 -0.68 1.36 0 0 Z " fill="#175F40" transform="translate(248,305)"/>
<path d="M0 0 C0.33 0 0.66 0 1 0 C2.08728914 4.32499457 2.17364554 7.67822291 1 12 C-3.13513908 17.73159079 -8.66919861 22.4064371 -14 27 C-14.33 26.34 -14.66 25.68 -15 25 C-13.90344712 23.68113228 -12.79746577 22.37009943 -11.6875 21.0625 C-11.07261719 20.33160156 -10.45773438 19.60070312 -9.82421875 18.84765625 C-8 17 -8 17 -5 16 C-4.29788106 14.34795544 -3.63028587 12.68076231 -3 11 C-2.34 10.67 -1.68 10.34 -1 10 C-0.53248212 7.64400765 -0.53248212 7.64400765 -0.375 4.9375 C-0.30023438 4.01839844 -0.22546875 3.09929687 -0.1484375 2.15234375 C-0.09945312 1.44207031 -0.05046875 0.73179687 0 0 Z " fill="#CEECDE" transform="translate(164,247)"/>
<path d="M0 0 C2.25 0.1875 2.25 0.1875 5 1 C5.639375 1.825 6.27875 2.65 6.9375 3.5 C8.83128201 6.29967784 8.83128201 6.29967784 12.25 6.8125 C13.61125 6.9053125 13.61125 6.9053125 15 7 C15 7.99 15 8.98 15 10 C16.32 9.67 17.64 9.34 19 9 C17.35 10.65 15.7 12.3 14 14 C9.33333333 9.33333333 4.66666667 4.66666667 0 0 Z " fill="#1E5D3F" transform="translate(132,275)"/>
<path d="M0 0 C1.32 0.66 2.64 1.32 4 2 C-4.94241339 5.62880543 -12.84790717 6.18333664 -22 3 C-18.93753253 1.21590198 -16.77920727 0.77119979 -13.25 0.875 C-12.45078125 0.89304688 -11.6515625 0.91109375 -10.828125 0.9296875 C-10.22484375 0.95289063 -9.6215625 0.97609375 -9 1 C-9 1.33 -9 1.66 -9 2 C-6.36 2.33 -3.72 2.66 -1 3 C-0.67 2.01 -0.34 1.02 0 0 Z " fill="#1E6747" transform="translate(247,209)"/>
<path d="M0 0 C3.16115776 1.36983503 3.9927092 1.9890638 6 5 C3.16032769 5 0.76264289 4.59732819 -2 4 C-1.90460938 4.77085937 -1.80921875 5.54171875 -1.7109375 6.3359375 C-1.60007813 7.33882813 -1.48921875 8.34171875 -1.375 9.375 C-1.25898438 10.37273437 -1.14296875 11.37046875 -1.0234375 12.3984375 C-1.01570312 13.25695312 -1.00796875 14.11546875 -1 15 C-1.66 15.66 -2.32 16.32 -3 17 C-4.79792975 15.20207025 -4.25670277 12.61614796 -4.3125 10.1875 C-4.34988281 9.12917969 -4.38726562 8.07085937 -4.42578125 6.98046875 C-3.91002237 3.37015662 -2.77702546 2.26215289 0 0 Z " fill="#BADECF" transform="translate(239,276)"/>
<path d="M0 0 C0 0.33 0 0.66 0 1 C-7.5261324 1.12543554 -7.5261324 1.12543554 -10.125 0.4375 C-15.15481898 -0.73612443 -18.8435932 1.45997362 -23 4 C-23.66 3.67 -24.32 3.34 -25 3 C-25 2.67 -25 2.34 -25 2 C-25.66 1.67 -26.32 1.34 -27 1 C-18.23069438 -3.12673206 -9.09581915 -3.42800391 0 0 Z " fill="#1D6144" transform="translate(139,224)"/>
<path d="M0 0 C1.32 1.32 2.64 2.64 4 4 C3.67 4.99 3.34 5.98 3 7 C2.81050404 9.83401739 2.68352559 12.6656975 2.57421875 15.50390625 C2 18 2 18 -0.04296875 19.33984375 C-0.68878906 19.55769531 -1.33460938 19.77554688 -2 20 C-2.66 19.01 -3.32 18.02 -4 17 C-2.68 17 -1.36 17 0 17 C0 11.39 0 5.78 0 0 Z " fill="#C5DED4" transform="translate(306,196)"/>
<path d="M0 0 C1.32 0.33 2.64 0.66 4 1 C-0.40843437 6.29012124 -5.07559794 11.18808428 -10 16 C-10.33 15.01 -10.66 14.02 -11 13 C-10.34 13 -9.68 13 -9 13 C-8.6596875 12.1646875 -8.6596875 12.1646875 -8.3125 11.3125 C-6.64524348 8.37495279 -4.38188562 6.38188562 -2 4 C-0.70480005 1.83379456 -0.70480005 1.83379456 0 0 Z " fill="#E1F8EE" transform="translate(258,175)"/>
<path d="M0 0 C0.66 0.66 1.32 1.32 2 2 C0.93106782 3.03590338 -0.15578488 4.05333942 -1.25 5.0625 C-2.15492188 5.91521484 -2.15492188 5.91521484 -3.078125 6.78515625 C-5 8 -5 8 -7.09375 7.84375 C-9.91951568 6.59300126 -11.2294966 4.46605831 -13 2 C-12.01 1.67 -11.02 1.34 -10 1 C-9.34 1.66 -8.68 2.32 -8 3 C-4.55834679 2.64700993 -2.93127462 1.95418308 0 0 Z " fill="#306A4F" transform="translate(206,313)"/>
<path d="M0 0 C0.515625 0.309375 1.03125 0.61875 1.5625 0.9375 C4.66665423 2.29059287 7.65115007 2.61359424 11 3 C11.33 3.99 11.66 4.98 12 6 C11.34 6.66 10.68 7.32 10 8 C8.68 7.01 7.36 6.02 6 5 C4.02 6.32 2.04 7.64 0 9 C-0.84454356 5.62182575 -1.10844919 3.32534757 0 0 Z " fill="#10613D" transform="translate(207,305)"/>
<path d="M0 0 C3.16115776 1.36983503 3.9927092 1.9890638 6 5 C5.34 5 4.68 5 4 5 C4 5.66 4 6.32 4 7 C1.35261084 8.4606285 0.10551666 9 -3 9 C-3.33 7.02 -3.66 5.04 -4 3 C-2.68 2.01 -1.36 1.02 0 0 Z " fill="#045A32" transform="translate(132,264)"/>
<path d="M0 0 C1.32 0.33 2.64 0.66 4 1 C3.33613281 1.65226563 2.67226562 2.30453125 1.98828125 2.9765625 C-2.57350463 7.49173159 -7.02110378 11.96006479 -11 17 C-11.66 16.01 -12.32 15.02 -13 14 C-11.68 13.67 -10.36 13.34 -9 13 C-8.896875 12.360625 -8.79375 11.72125 -8.6875 11.0625 C-8.460625 10.381875 -8.23375 9.70125 -8 9 C-7.01 8.67 -6.02 8.34 -5 8 C-4.67 7.175 -4.34 6.35 -4 5.5 C-3.67 4.675 -3.34 3.85 -3 3 C-2.01 2.67 -1.02 2.34 0 2 C0 1.34 0 0.68 0 0 Z " fill="#E3F7F0" transform="translate(175,170)"/>
<path d="M0 0 C4.04165139 -0.02915731 8.0832755 -0.04685173 12.125 -0.0625 C13.83816406 -0.07506836 13.83816406 -0.07506836 15.5859375 -0.08789062 C16.69453125 -0.09111328 17.803125 -0.09433594 18.9453125 -0.09765625 C19.96125488 -0.10289307 20.97719727 -0.10812988 22.02392578 -0.11352539 C25.09114726 0.00347691 27.98633134 0.43223583 31 1 C31 1.33 31 1.66 31 2 C20.29347768 3.0411073 10.61985079 2.84626716 0 1 C0 0.67 0 0.34 0 0 Z " fill="#DBF3EB" transform="translate(205,49)"/>
<path d="M0 0 C0.66 0.99 1.32 1.98 2 3 C1.67 3.66 1.34 4.32 1 5 C-0.32 5 -1.64 5 -3 5 C-4.99340278 6.51016072 -4.99340278 6.51016072 -6.75 8.5 C-7.36359375 9.1496875 -7.9771875 9.799375 -8.609375 10.46875 C-9.06828125 10.9740625 -9.5271875 11.479375 -10 12 C-10.33 10.68 -10.66 9.36 -11 8 C-10.01 7.67 -9.02 7.34 -8 7 C-8 6.34 -8 5.68 -8 5 C-8.66 5 -9.32 5 -10 5 C-10 4.34 -10 3.68 -10 3 C-6.125 2 -6.125 2 -5 2 C-3.327767 1.34742127 -1.66072849 0.68132451 0 0 Z " fill="#145E3C" transform="translate(268,240)"/>
<path d="M0 0 C-5.68439602 3.78959735 -15.07966869 9 -22 9 C-22 8.34 -22 7.68 -22 7 C-21.360625 6.87625 -20.72125 6.7525 -20.0625 6.625 C-19.381875 6.41875 -18.70125 6.2125 -18 6 C-17.67 5.34 -17.34 4.68 -17 4 C-14.66666667 3.66666667 -12.33333333 3.33333333 -10 3 C-9.67 2.34 -9.34 1.68 -9 1 C-3.6407767 -1.21359223 -3.6407767 -1.21359223 0 0 Z " fill="#DFF6EC" transform="translate(226,361)"/>
<path d="M0 0 C2.46800047 1.15173355 4.04783565 2.04783565 6 4 C6.1953125 6.8203125 6.1953125 6.8203125 6.125 10.125 C6.10695312 11.22070312 6.08890625 12.31640625 6.0703125 13.4453125 C6.04710937 14.28835938 6.02390625 15.13140625 6 16 C5.67 16 5.34 16 5 16 C4.67 12.04 4.34 8.08 4 4 C0.08788267 5.15585285 -2.8745041 6.35534962 -6 9 C-6 6 -6 6 -4.6875 4.39453125 C-4.130625 3.87246094 -3.57375 3.35039062 -3 2.8125 C-2.443125 2.28269531 -1.88625 1.75289063 -1.3125 1.20703125 C-0.6628125 0.60955078 -0.6628125 0.60955078 0 0 Z " fill="#BEE1D1" transform="translate(159,276)"/>
<path d="M0 0 C-1.65 0.33 -3.3 0.66 -5 1 C-5.33 1.99 -5.66 2.98 -6 4 C-9.28491373 6.18994248 -10.83095639 6.35277339 -14.6875 6.625 C-16.17830078 6.73714844 -16.17830078 6.73714844 -17.69921875 6.8515625 C-18.45847656 6.90054688 -19.21773437 6.94953125 -20 7 C-16.93737781 4.95825187 -13.88255433 3.39904128 -10.5625 1.8125 C-9.42941406 1.26207031 -8.29632813 0.71164063 -7.12890625 0.14453125 C-4.0502509 -0.98161858 -2.95073726 -1.25424459 0 0 Z " fill="#2C664B" transform="translate(270,223)"/>
<path d="M0 0 C4.75 0.875 4.75 0.875 7 2 C7.99 2.33 8.98 2.66 10 3 C10.309375 3.99 10.61875 4.98 10.9375 6 C11.288125 6.99 11.63875 7.98 12 9 C14.03243548 9.96877057 14.03243548 9.96877057 16 10 C16 10.66 16 11.32 16 12 C11.66923089 10.55113209 8.68128855 8.351329 5.1875 5.4375 C4.21167969 4.63183594 3.23585938 3.82617188 2.23046875 2.99609375 C1.49441406 2.33738281 0.75835937 1.67867188 0 1 C0 0.67 0 0.34 0 0 Z " fill="#D1ECE2" transform="translate(124,329)"/>
<path d="M0 0 C0.99 0.33 1.98 0.66 3 1 C3 1.99 3 2.98 3 4 C3.66 4.33 4.32 4.66 5 5 C4.01 5.495 4.01 5.495 3 6 C2.67 6.99 2.34 7.98 2 9 C0.0625 9.8125 0.0625 9.8125 -2 10 C-2.66 9.34 -3.32 8.68 -4 8 C-3.34 8 -2.68 8 -2 8 C-2.66 6.35 -3.32 4.7 -4 3 C-3.01 3 -2.02 3 -1 3 C-0.67 2.01 -0.34 1.02 0 0 Z " fill="#045A32" transform="translate(148,309)"/>
<path d="M0 0 C0.66 0 1.32 0 2 0 C2.08153933 1.58246707 2.13943557 3.16616273 2.1875 4.75 C2.22230469 5.63171875 2.25710938 6.5134375 2.29296875 7.421875 C1.94355103 10.49675097 1.17867997 11.82639854 -1 14 C-1.99 14 -2.98 14 -4 14 C-3.52188823 12.22888156 -3.0424722 10.45811517 -2.5625 8.6875 C-2.29566406 7.70136719 -2.02882813 6.71523438 -1.75390625 5.69921875 C-1.21920575 3.78482474 -0.62855462 1.88566385 0 0 Z " fill="#1D6040" transform="translate(323,250)"/>
<path d="M0 0 C1.175625 0.01353516 1.175625 0.01353516 2.375 0.02734375 C4.29180055 0.05071937 6.20844191 0.08658347 8.125 0.125 C3.56148485 2.95437939 -1.34307023 2.56008772 -6.5625 2.78125 C-9.5857038 3.0949787 -11.32872535 3.54630972 -13.875 5.125 C-14.205 4.135 -14.535 3.145 -14.875 2.125 C-9.76263219 0.05065268 -5.41169107 -0.11924065 0 0 Z " fill="#2A6A4D" transform="translate(180.875,119.875)"/>
<path d="M0 0 C0 0.33 0 0.66 0 1 C-0.71285156 1.19335938 -1.42570312 1.38671875 -2.16015625 1.5859375 C-7.45013328 3.02412775 -12.73336033 4.47852632 -18 6 C-18.33 5.01 -18.66 4.02 -19 3 C-13.10104429 -1.0449982 -6.92696672 -0.27748976 0 0 Z " fill="#216445" transform="translate(126,57)"/>
<path d="M0 0 C2.31 0.66 4.62 1.32 7 2 C7.33 3.65 7.66 5.3 8 7 C8.99 6.67 9.98 6.34 11 6 C11.66 6.33 12.32 6.66 13 7 C12.67 8.65 12.34 10.3 12 12 C7.47384007 8.32167983 3.60575001 4.58913637 0 0 Z " fill="#DBF0E7" transform="translate(182,325)"/>
<path d="M0 0 C1.65 0 3.3 0 5 0 C5.33 2.31 5.66 4.62 6 7 C7.32 7.33 8.64 7.66 10 8 C8.02 8.99 8.02 8.99 6 10 C2.64888166 7.76592111 1.18446044 6.73784176 0.1875 2.75 C0.125625 1.8425 0.06375 0.935 0 0 Z " fill="#155E3D" transform="translate(140,311)"/>
<path d="M0 0 C2.475 0.495 2.475 0.495 5 1 C5.39163671 3.22630405 5.76267785 5.45623765 6.125 7.6875 C6.33382812 8.92886719 6.54265625 10.17023438 6.7578125 11.44921875 C7.00252483 15.03701724 6.62715667 16.84813727 5 20 C4.67 19.34 4.34 18.68 4 18 C3.34 17.67 2.68 17.34 2 17 C2.33 16.67 2.66 16.34 3 16 C3.15209159 14.06668191 3.22186331 12.12658716 3.25 10.1875 C3.27578125 9.12917969 3.3015625 8.07085937 3.328125 6.98046875 C2.96764676 3.70612476 2.19903775 2.39000682 0 0 Z " fill="#135A3B" transform="translate(161,243)"/>
<path d="M0 0 C0.33 0 0.66 0 1 0 C2.44796872 8.73952546 3.29211698 17.13911833 3 26 C2.34 26 1.68 26 1 26 C0.07446257 22.86149936 -0.11664647 20.06319222 -0.09765625 16.796875 C-0.09443359 15.8171875 -0.09121094 14.8375 -0.08789062 13.828125 C-0.07951172 12.81234375 -0.07113281 11.7965625 -0.0625 10.75 C-0.05798828 9.71875 -0.05347656 8.6875 -0.04882812 7.625 C-0.03706088 5.08327427 -0.02062011 2.54166681 0 0 Z " fill="#2C694E" transform="translate(73,226)"/>
<path d="M0 0 C1.65 0.33 3.3 0.66 5 1 C2.41470532 2.72352979 -0.12269521 4.19447076 -2.875 5.625 C-3.71804687 6.07101563 -4.56109375 6.51703125 -5.4296875 6.9765625 C-8.16014262 8.06376499 -10.09079148 8.19811814 -13 8 C-13 6.35 -13 4.7 -13 3 C-12.67 3.99 -12.34 4.98 -12 6 C-9.55853792 5.05054252 -7.19182705 4.1015555 -4.875 2.875 C-3 2 -3 2 0 2 C0 1.34 0 0.68 0 0 Z " fill="#215F43" transform="translate(107,205)"/>
<path d="M0 0 C-1 3 -1 3 -2.7734375 4.140625 C-5.10382191 5.04007161 -7.14593158 5.46809924 -9.625 5.75 C-10.40101562 5.84796875 -11.17703125 5.9459375 -11.9765625 6.046875 C-14 6 -14 6 -16 4 C-4.45283019 0 -4.45283019 0 0 0 Z " fill="#D9F0E5" transform="translate(128,57)"/>
<path d="M0 0 C0.66 0.33 1.32 0.66 2 1 C1.01 2.98 0.02 4.96 -1 7 C-1.99 7 -2.98 7 -4 7 C-6.41249928 7.88262169 -8.70301176 8.85150588 -11 10 C-11.33 9.01 -11.66 8.02 -12 7 C-10.04754815 5.80285445 -8.08785003 4.61751926 -6.125 3.4375 C-5.03445312 2.77621094 -3.94390625 2.11492187 -2.8203125 1.43359375 C-1.88960937 0.96050781 -0.95890625 0.48742187 0 0 Z " fill="#1F6243" transform="translate(246,350)"/>
<path d="M0 0 C2.46800047 1.15173355 4.04783565 2.04783565 6 4 C6.1953125 7.0390625 6.1953125 7.0390625 6.125 10.625 C6.10695312 11.81351562 6.08890625 13.00203125 6.0703125 14.2265625 C6.04710937 15.14179688 6.02390625 16.05703125 6 17 C5.67 17 5.34 17 5 17 C4.96132812 15.96939453 4.96132812 15.96939453 4.921875 14.91796875 C4.86515625 14.01691406 4.8084375 13.11585938 4.75 12.1875 C4.70359375 11.29417969 4.6571875 10.40085937 4.609375 9.48046875 C4.20054168 6.86672035 4.20054168 6.86672035 2.09375 5.15625 C0.06342189 3.76213703 0.06342189 3.76213703 -2.25 4.3125 C-2.8275 4.539375 -3.405 4.76625 -4 5 C-2.68 3.35 -1.36 1.7 0 0 Z " fill="#BADCCC" transform="translate(159,309)"/>
<path d="M0 0 C0.66 0.99 1.32 1.98 2 3 C-1.3 6.3 -4.6 9.6 -8 13 C-8.66 12.01 -9.32 11.02 -10 10 C-8.71034824 8.62437146 -7.37310707 7.29233607 -6 6 C-5.34 6 -4.68 6 -4 6 C-4 5.34 -4 4.68 -4 4 C-3.34 4 -2.68 4 -2 4 C-1.34 2.68 -0.68 1.36 0 0 Z " fill="#D9EDE4" transform="translate(214,259)"/>
<path d="M0 0 C1.13308594 0.24556641 1.13308594 0.24556641 2.2890625 0.49609375 C7.33130119 1.18077669 12.29359795 1.10511821 17.375 1.0625 C18.39722656 1.05798828 19.41945312 1.05347656 20.47265625 1.04882812 C22.98183194 1.037103 25.4908849 1.02069176 28 1 C28 1.66 28 2.32 28 3 C19.09 3 10.18 3 1 3 C0.67 2.01 0.34 1.02 0 0 Z " fill="#306C50" transform="translate(222,229)"/>
<path d="M0 0 C3.14803691 1.13679111 6.18874979 2.45848549 9.25 3.8125 C8.92 4.8025 8.59 5.7925 8.25 6.8125 C6.64402675 6.36053755 5.04027492 5.90067673 3.4375 5.4375 C2.54417969 5.18226562 1.65085937 4.92703125 0.73046875 4.6640625 C-1.75 3.8125 -1.75 3.8125 -4.75 1.8125 C-1.75 -0.1875 -1.75 -0.1875 0 0 Z " fill="#226748" transform="translate(286.75,57.1875)"/>
<path d="M0 0 C0.66 1.32 1.32 2.64 2 4 C0.06745228 6.0245738 -1.63158688 7.42105792 -4 9 C-4.99 9 -5.98 9 -7 9 C-7.33 9.66 -7.66 10.32 -8 11 C-8.66 10.34 -9.32 9.68 -10 9 C-9.44570312 8.51789063 -8.89140625 8.03578125 -8.3203125 7.5390625 C-7.59585938 6.90742188 -6.87140625 6.27578125 -6.125 5.625 C-5.40570313 4.99851563 -4.68640625 4.37203125 -3.9453125 3.7265625 C-2.5923402 2.52573166 -1.2791655 1.2791655 0 0 Z " fill="#1E6546" transform="translate(253,185)"/>
<path d="M0 0 C0 3.24111347 -0.74567471 5.04864638 -2 8 C-2.33 8.99 -2.66 9.98 -3 11 C-4.65 11 -6.3 11 -8 11 C-8 8 -8 8 -6.25 5.95703125 C-5.5075 5.24933594 -4.765 4.54164063 -4 3.8125 C-2.88625 2.73935547 -2.88625 2.73935547 -1.75 1.64453125 C-1.1725 1.10183594 -0.595 0.55914062 0 0 Z " fill="#216145" transform="translate(157,299)"/>
<path d="M0 0 C0 3.61029169 -0.96092582 6.55806676 -2 10 C-4.64 10.33 -7.28 10.66 -10 11 C-6.79239749 7.19364503 -3.59253891 3.45436433 0 0 Z " fill="#E3EFE9" transform="translate(264,245)"/>
<path d="M0 0 C0.66 0.33 1.32 0.66 2 1 C2 1.99 2 2.98 2 4 C2.7425 4.2475 3.485 4.495 4.25 4.75 C7.20124062 6.09147301 8.84814974 7.60905526 11 10 C10.01 10.66 9.02 11.32 8 12 C4.7 8.7 1.4 5.4 -2 2 C-1.34 1.34 -0.68 0.68 0 0 Z " fill="#DDF1E9" transform="translate(203,149)"/>
<path d="M0 0 C2.68777802 -0.0544207 5.37443212 -0.09387266 8.0625 -0.125 C8.81466797 -0.14175781 9.56683594 -0.15851563 10.34179688 -0.17578125 C15.29327709 -0.21865121 19.30414451 0.41600625 24 2 C23.01 2.66 22.02 3.32 21 4 C20.34 3.67 19.68 3.34 19 3 C17.55487563 2.78217533 16.10263322 2.61026332 14.6484375 2.46484375 C13.79765625 2.37783203 12.946875 2.29082031 12.0703125 2.20117188 C11.18085938 2.11416016 10.29140625 2.02714844 9.375 1.9375 C8.02921875 1.80118164 8.02921875 1.80118164 6.65625 1.66210938 C4.43782728 1.43790708 2.2191024 1.21735434 0 1 C0 0.67 0 0.34 0 0 Z " fill="#2C6B51" transform="translate(210,120)"/>
<path d="M0 0 C2.58422459 0.11418667 5.16679513 0.24092362 7.75 0.375 C8.47960937 0.4059375 9.20921875 0.436875 9.9609375 0.46875 C13.73942656 0.6748494 16.77946668 0.91512843 20 3 C19 4 19 4 16.93359375 4.09765625 C16.10988281 4.08605469 15.28617188 4.07445312 14.4375 4.0625 C13.61121094 4.05347656 12.78492188 4.04445313 11.93359375 4.03515625 C11.29550781 4.02355469 10.65742188 4.01195312 10 4 C10 3.34 10 2.68 10 2 C8.906875 2.226875 7.81375 2.45375 6.6875 2.6875 C4.8621875 2.8421875 4.8621875 2.8421875 3 3 C1.26953125 1.51953125 1.26953125 1.51953125 0 0 Z " fill="#E0F6EB" transform="translate(237,51)"/>
<path d="M0 0 C0.33 0 0.66 0 1 0 C1.27714844 1.18078125 1.55429688 2.3615625 1.83984375 3.578125 C2.2057143 5.13542016 2.57160054 6.69271163 2.9375 8.25 C3.11990234 9.02730469 3.30230469 9.80460938 3.49023438 10.60546875 C3.75610352 11.73662109 3.75610352 11.73662109 4.02734375 12.890625 C4.18968506 13.58188477 4.35202637 14.27314453 4.51928711 14.98535156 C4.9985662 16.99399101 5.49546602 18.99756942 6 21 C5.01 20.34 4.02 19.68 3 19 C3 18.01 3 17.02 3 16 C2.34 16 1.68 16 1 16 C0.67 10.72 0.34 5.44 0 0 Z " fill="#C9E7DB" transform="translate(97,245)"/>
<path d="M0 0 C5.46737191 1.74807129 10.75824848 3.65794081 16 6 C13.4345406 8.5654594 11.52313332 8.54046087 8 9 C8 8.01 8 7.02 8 6 C7.34 5.67 6.68 5.34 6 5 C6 4.34 6 3.68 6 3 C4.02 2.34 2.04 1.68 0 1 C0 0.67 0 0.34 0 0 Z " fill="#156342" transform="translate(205,222)"/>
<path d="M0 0 C5.5 -0.36666667 5.5 -0.36666667 7.875 1.375 C9 3 9 3 9 5 C11.97 5.495 11.97 5.495 15 6 C15 6.99 15 7.98 15 9 C9.26800429 7.53025751 4.66416601 4.55513098 0 1 C0 0.67 0 0.34 0 0 Z " fill="#D4EEE3" transform="translate(144,344)"/>
<path d="M0 0 C0.33 0 0.66 0 1 0 C1 4.29 1 8.58 1 13 C2.32 13.66 3.64 14.32 5 15 C5.33 15.99 5.66 16.98 6 18 C5.01 18.33 4.02 18.66 3 19 C0.39333779 15.20912834 -0.45439956 12.38862215 -0.75 7.8125 C-0.82734375 6.76707031 -0.9046875 5.72164063 -0.984375 4.64453125 C-1 2 -1 2 0 0 Z " fill="#205E42" transform="translate(234,313)"/>
<path d="M0 0 C0.66 0 1.32 0 2 0 C2.07347656 1.01320313 2.07347656 1.01320313 2.1484375 2.046875 C2.22320312 2.93890625 2.29796875 3.8309375 2.375 4.75 C2.44460937 5.63171875 2.51421875 6.5134375 2.5859375 7.421875 C2.8644951 10.00919794 2.8644951 10.00919794 4.1015625 12.140625 C5 14 5 14 4 17 C1.19358805 14.54438955 0.06421329 12.72617673 -0.265625 8.99609375 C-0.25142274 5.98876484 -0.17237569 3.00220998 0 0 Z " fill="#EBFEF7" transform="translate(236,314)"/>
<path d="M0 0 C0.66 0 1.32 0 2 0 C2 1.32 2 2.64 2 4 C2.2981424 5.34164079 2.62243192 6.67851173 3 8 C2.01 8.495 2.01 8.495 1 9 C0.236875 8.195625 -0.52625 7.39125 -1.3125 6.5625 C-3.79430898 3.83200976 -3.79430898 3.83200976 -7 3 C-7 2.34 -7 1.68 -7 1 C-5.5459375 1.0309375 -5.5459375 1.0309375 -4.0625 1.0625 C-1.12534105 1.35618499 -1.12534105 1.35618499 0 0 Z " fill="#196542" transform="translate(191,306)"/>
<path d="M0 0 C1.39214652 4.17643955 -0.29335734 6.83437793 -1.9375 10.6875 C-2.22818359 11.38939453 -2.51886719 12.09128906 -2.81835938 12.81445312 C-3.53710313 14.54650775 -4.26745331 16.27373781 -5 18 C-6.14157393 14.18939406 -5.56699874 12.6563304 -4 9 C-3.855625 7.96875 -3.71125 6.9375 -3.5625 5.875 C-2.96719658 2.83233807 -2.3927955 1.87262256 0 0 Z " fill="#DEF5EA" transform="translate(318,263)"/>
<path d="M0 0 C0.66 0.99 1.32 1.98 2 3 C-2.18461538 8.78461538 -2.18461538 8.78461538 -6.3125 9.875 C-7.6428125 9.936875 -7.6428125 9.936875 -9 10 C-8.06409496 8.8944811 -7.12620142 7.79064547 -6.1875 6.6875 C-5.66542969 6.07261719 -5.14335938 5.45773438 -4.60546875 4.82421875 C-3.12827531 3.14575321 -1.59960869 1.56117966 0 0 Z " fill="#2F6D50" transform="translate(109,180)"/>
<path d="M0 0 C0.33 0 0.66 0 1 0 C1.63019694 9.99562363 1.63019694 9.99562363 -1 14.1875 C-1.66 14.785625 -2.32 15.38375 -3 16 C-1.68 16.66 -0.36 17.32 1 18 C0.34 18.33 -0.32 18.66 -1 19 C-1.99 18.34 -2.98 17.68 -4 17 C-3.52155996 12.85351967 -2.90162402 9.68439654 -1 6 C-0.61709538 4.00889599 -0.27395385 2.00899487 0 0 Z " fill="#E1F8EE" transform="translate(163,315)"/>
<path d="M0 0 C1.98 0 3.96 0 6 0 C6 0.66 6 1.32 6 2 C7.98 2.66 9.96 3.32 12 4 C12 4.99 12 5.98 12 7 C11.01 7.33 10.02 7.66 9 8 C8.61328125 7.55527344 8.2265625 7.11054688 7.828125 6.65234375 C7.30734375 6.08644531 6.7865625 5.52054688 6.25 4.9375 C5.73953125 4.36902344 5.2290625 3.80054688 4.703125 3.21484375 C3.04312742 1.73501743 3.04312742 1.73501743 0.796875 2.31640625 C0.20390625 2.54199219 -0.3890625 2.76757812 -1 3 C-0.67 2.01 -0.34 1.02 0 0 Z " fill="#175F3E" transform="translate(131,242)"/>
<path d="M0 0 C0 0.33 0 0.66 0 1 C2.64 1.33 5.28 1.66 8 2 C8 2.33 8 2.66 8 3 C7.20335937 3.06058594 6.40671875 3.12117187 5.5859375 3.18359375 C-1.04982178 3.69507815 -1.04982178 3.69507815 -7.625 4.6875 C-8.800625 4.8421875 -8.800625 4.8421875 -10 5 C-10.66 4.34 -11.32 3.68 -12 3 C-4.71428571 -0.42857143 -4.71428571 -0.42857143 0 0 Z " fill="#D5EBE0" transform="translate(124,219)"/>
<path d="M0 0 C1.32 0.66 2.64 1.32 4 2 C3.25 3.9375 3.25 3.9375 2 6 C0.0625 6.6875 0.0625 6.6875 -2 7 C-2.99 7.33 -3.98 7.66 -5 8 C-5.99 7.67 -6.98 7.34 -8 7 C-5.36 4.69 -2.72 2.38 0 0 Z " fill="#E3F1EC" transform="translate(154,314)"/>
<path d="M0 0 C1.485 0.99 1.485 0.99 3 2 C3.3984375 4.96875 3.3984375 4.96875 3.375 8.5 C3.38273438 9.6653125 3.39046875 10.830625 3.3984375 12.03125 C3.26695312 13.0109375 3.13546875 13.990625 3 15 C2.01 15.66 1.02 16.32 0 17 C-0.33 16.01 -0.66 15.02 -1 14 C-0.34 14 0.32 14 1 14 C0.814375 13.401875 0.62875 12.80375 0.4375 12.1875 C0 10 0 10 1 7 C0.72230092 4.6593935 0.39460023 2.32375692 0 0 Z " fill="#DDF7EE" transform="translate(215,278)"/>
<path d="M0 0 C0.99 0.33 1.98 0.66 3 1 C-0.96 4.96 -4.92 8.92 -9 13 C-9.66 12.34 -10.32 11.68 -11 11 C-10 9 -10 9 -7 8 C-5.66172696 6.33729713 -4.32810215 4.67083819 -3 3 C-2.34 3 -1.68 3 -1 3 C-0.67 2.01 -0.34 1.02 0 0 Z " fill="#E3F9EF" transform="translate(268,259)"/>
<path d="M0 0 C3.43927579 1.2419607 6.25207819 2.55740284 9 5 C9 5.66 9 6.32 9 7 C10.32 7.33 11.64 7.66 13 8 C11.02 8.99 11.02 8.99 9 10 C7.49702124 8.52386015 5.99768715 7.04400843 4.5 5.5625 C3.6646875 4.73878906 2.829375 3.91507813 1.96875 3.06640625 C0 1 0 1 0 0 Z " fill="#CBECDF" transform="translate(234,184)"/>
<path d="M0 0 C1.43931117 0.45261358 2.87638999 0.91232979 4.3125 1.375 C5.11300781 1.63023437 5.91351563 1.88546875 6.73828125 2.1484375 C9 3 9 3 12 5 C11.01 5.66 10.02 6.32 9 7 C5.48979058 6.00994093 2.72285289 4.42031368 0 2 C0 1.34 0 0.68 0 0 Z " fill="#185E3E" transform="translate(183,366)"/>
<path d="M0 0 C1.14926266 0.95421808 2.29430541 1.91352045 3.4375 2.875 C4.07558594 3.40867187 4.71367187 3.94234375 5.37109375 4.4921875 C7 6 7 6 8 8 C6.02 8.33 4.04 8.66 2 9 C0.21742529 5.76908333 0 3.67481998 0 0 Z " fill="#216547" transform="translate(245,269)"/>
<path d="M0 0 C0.66 0.33 1.32 0.66 2 1 C0.61811547 4.21043882 -0.92421903 6.04936365 -3.625 8.25 C-4.25664062 8.77078125 -4.88828125 9.2915625 -5.5390625 9.828125 C-6.02117187 10.21484375 -6.50328125 10.6015625 -7 11 C-6.5206753 6.68607774 -5.2542015 4.83430453 -2 2 C-1.34 2.33 -0.68 2.66 0 3 C0 2.01 0 1.02 0 0 Z " fill="#D4EDE2" transform="translate(216,323)"/>
<path d="M0 0 C-0.33 0.99 -0.66 1.98 -1 3 C-2.32 3 -3.64 3 -5 3 C-6.9792785 4.2832557 -6.9792785 4.2832557 -8.75 6 C-9.36359375 6.556875 -9.9771875 7.11375 -10.609375 7.6875 C-11.06828125 8.120625 -11.5271875 8.55375 -12 9 C-12 7.68 -12 6.36 -12 5 C-11.34 5 -10.68 5 -10 5 C-10 4.34 -10 3.68 -10 3 C-9.01 3 -8.02 3 -7 3 C-6.67 2.01 -6.34 1.02 -6 0 C-3.42525708 -0.99667468 -2.51072708 -1.25536354 0 0 Z " fill="#1B5C3F" transform="translate(163,275)"/>
<path d="M0 0 C0.99 0 1.98 0 3 0 C3 1.32 3 2.64 3 4 C3.33 5.32 3.66 6.64 4 8 C0.7 8.66 -2.6 9.32 -6 10 C-6 9.01 -6 8.02 -6 7 C-4.02 7 -2.04 7 0 7 C0 4.69 0 2.38 0 0 Z " fill="#165A3D" transform="translate(158,80)"/>
<path d="M0 0 C-6.435 2.97 -6.435 2.97 -13 6 C-13.66 5.34 -14.32 4.68 -15 4 C-14.01 4 -13.02 4 -12 4 C-11.67 3.01 -11.34 2.02 -11 1 C-6.64484531 -0.6434546 -4.57950862 -1.14487716 0 0 Z " fill="#1C6142" transform="translate(224,340)"/>
<path d="M0 0 C0.66 0.33 1.32 0.66 2 1 C1.52949219 1.54140625 1.05898437 2.0828125 0.57421875 2.640625 C-1.26222671 5.39301472 -1.68383854 7.49557207 -2.1875 10.75 C-2.34605469 11.73484375 -2.50460938 12.7196875 -2.66796875 13.734375 C-2.77753906 14.48203125 -2.88710937 15.2296875 -3 16 C-3.33 16 -3.66 16 -4 16 C-4.10841951 14.08458862 -4.18578079 12.16740227 -4.25 10.25 C-4.29640625 9.18265625 -4.3428125 8.1153125 -4.390625 7.015625 C-3.91735478 3.36197888 -2.80844958 2.27771895 0 0 Z " fill="#B5DBCA" transform="translate(239,243)"/>
<path d="M0 0 C10.395 0.99 10.395 0.99 21 2 C17.31912647 4.45391569 14.55644412 4.22802759 10.3125 4.125 C9.2596582 4.11146484 9.2596582 4.11146484 8.18554688 4.09765625 C6.45688475 4.07413704 4.72839855 4.03826713 3 4 C3 3.34 3 2.68 3 2 C2.01 2 1.02 2 0 2 C0 1.34 0 0.68 0 0 Z " fill="#E5F8EF" transform="translate(225,212)"/>
<path d="M0 0 C0.33 0.99 0.66 1.98 1 3 C-5.93 2.67 -12.86 2.34 -20 2 C-20 1.67 -20 1.34 -20 1 C-13.30324864 -0.03026944 -6.7685324 -0.10152799 0 0 Z " fill="#427B62" transform="translate(232,83)"/>
<path d="M0 0 C0.99 0.33 1.98 0.66 3 1 C3.90837763 3.47739354 4 5.33579484 4 8 C-0.75 6.125 -0.75 6.125 -3 5 C-1.125 1.125 -1.125 1.125 0 0 Z " fill="#286448" transform="translate(163,326)"/>
<path d="M0 0 C0.75 1.6875 0.75 1.6875 1 4 C-0.9375 6.75 -0.9375 6.75 -3 9 C-4.98 8.34 -6.96 7.68 -9 7 C-7.50011061 4.00022122 -4.94840874 3.44411857 -2 2 C-1.34 1.34 -0.68 0.68 0 0 Z " fill="#DEEFE9" transform="translate(206,316)"/>
<path d="M0 0 C3.26008643 3.16952847 6.22237877 6.39937989 9 10 C8.01 10.33 7.02 10.66 6 11 C5.67 10.01 5.34 9.02 5 8 C3.7315625 7.319375 3.7315625 7.319375 2.4375 6.625 C1.633125 6.08875 0.82875 5.5525 0 5 C-0.3125 2.3125 -0.3125 2.3125 0 0 Z " fill="#206246" transform="translate(106,312)"/>
<path d="M0 0 C0.33 0 0.66 0 1 0 C1 3.3 1 6.6 1 10 C-0.98 10.33 -2.96 10.66 -5 11 C-3.35 7.37 -1.7 3.74 0 0 Z " fill="#D9EEE3" transform="translate(291,277)"/>
<path d="M0 0 C4 4.625 4 4.625 4 8 C5.32 8.33 6.64 8.66 8 9 C7.67 10.32 7.34 11.64 7 13 C0.13785558 7.08315098 0.13785558 7.08315098 -0.4375 2.5625 C-0.293125 1.716875 -0.14875 0.87125 0 0 Z " fill="#D4EDE2" transform="translate(182,254)"/>
<path d="M0 0 C2.125 0.375 2.125 0.375 4 1 C3.35546875 1.53109375 2.7109375 2.0621875 2.046875 2.609375 C-0.51782225 5.60478476 -0.58073139 7.35682203 -0.75 11.25 C-0.80671875 12.32765625 -0.8634375 13.4053125 -0.921875 14.515625 C-0.94765625 15.33546875 -0.9734375 16.1553125 -1 17 C-3.39652893 13.4052066 -3.1385371 12.14494781 -2.75 7.9375 C-2.66234375 6.87402344 -2.5746875 5.81054688 -2.484375 4.71484375 C-2 2 -2 2 0 0 Z " fill="#246348" transform="translate(183,242)"/>
<path d="M0 0 C-6.435 2.97 -6.435 2.97 -13 6 C-13.66 5.34 -14.32 4.68 -15 4 C-13.25705322 3.13153169 -11.50531337 2.28069373 -9.75 1.4375 C-8.77546875 0.96183594 -7.8009375 0.48617187 -6.796875 -0.00390625 C-4 -1 -4 -1 0 0 Z " fill="#CFE9DE" transform="translate(192,206)"/>
<path d="M0 0 C1.32 1.32 2.64 2.64 4 4 C2.68 4 1.36 4 0 4 C-0.33 4.99 -0.66 5.98 -1 7 C-2.98 7.33 -4.96 7.66 -7 8 C-6.02133662 6.85373678 -5.04205413 5.70800212 -4.0625 4.5625 C-3.51722656 3.92441406 -2.97195313 3.28632813 -2.41015625 2.62890625 C-1.63204305 1.73008851 -0.84063472 0.84063472 0 0 Z " fill="#246145" transform="translate(274,164)"/>
<path d="M0 0 C-8.44827586 7 -8.44827586 7 -12 7 C-12 6.34 -12 5.68 -12 5 C-11.38125 4.9175 -10.7625 4.835 -10.125 4.75 C-7.82027141 4.20605562 -7.82027141 4.20605562 -6.9375 2 C-6.628125 1.34 -6.31875 0.68 -6 0 C-3 -1 -3 -1 0 0 Z " fill="#1B5E41" transform="translate(236,332)"/>
<path d="M0 0 C0.99 0.99 1.98 1.98 3 3 C2.34 4.65 1.68 6.3 1 8 C0.34 7.34 -0.32 6.68 -1 6 C-0.67 5.34 -0.34 4.68 0 4 C-1.65 4 -3.3 4 -5 4 C-3 1 -3 1 0 0 Z " fill="#115F3D" transform="translate(258,274)"/>
<path d="M0 0 C6.19240462 0.68804496 12.01955594 2.28048715 18 4 C17.67 4.66 17.34 5.32 17 6 C15.35 6 13.7 6 12 6 C12 5.34 12 4.68 12 4 C11.13375 3.87625 10.2675 3.7525 9.375 3.625 C6.10486147 3.01941879 3.12743101 2.11693965 0 1 C0 0.67 0 0.34 0 0 Z " fill="#D6F0E6" transform="translate(267,56)"/>
<path d="M0 0 C-4.625 3 -4.625 3 -8 3 C-8.66 4.32 -9.32 5.64 -10 7 C-10.33 6.34 -10.66 5.68 -11 5 C-13.02463255 4.34786708 -13.02463255 4.34786708 -15 4 C-12.87875034 3.13656176 -10.75286928 2.28449352 -8.625 1.4375 C-6.84996094 0.72400391 -6.84996094 0.72400391 -5.0390625 -0.00390625 C-2 -1 -2 -1 0 0 Z " fill="#C9E4D7" transform="translate(218,344)"/>
<path d="M0 0 C0.66 1.32 1.32 2.64 2 4 C1.67 4.99 1.34 5.98 1 7 C-0.65 7.33 -2.3 7.66 -4 8 C-4 8.66 -4 9.32 -4 10 C-4.66 9.67 -5.32 9.34 -6 9 C-4.02 6.03 -2.04 3.06 0 0 Z " fill="#DFEFE7" transform="translate(285,288)"/>
<path d="M0 0 C2.46800047 1.15173355 4.04783565 2.04783565 6 4 C6.1953125 6.8203125 6.1953125 6.8203125 6.125 10.125 C6.10695313 11.22070312 6.08890625 12.31640625 6.0703125 13.4453125 C6.04710937 14.28835938 6.02390625 15.13140625 6 16 C5.67 16 5.34 16 5 16 C5 12.37 5 8.74 5 5 C3.68 4.67 2.36 4.34 1 4 C1 3.34 1 2.68 1 2 C0.34 1.67 -0.32 1.34 -1 1 C-0.67 0.67 -0.34 0.34 0 0 Z " fill="#B6D6C8" transform="translate(266,243)"/>
<path d="M0 0 C3 0 3 0 5.6875 2.375 C8 5 8 5 8 7 C7.34 6.731875 6.68 6.46375 6 6.1875 C2.35060933 4.74294953 -1.32245433 3.37128822 -5 2 C-4.360625 1.855625 -3.72125 1.71125 -3.0625 1.5625 C-1.02454854 1.18992819 -1.02454854 1.18992819 0 0 Z " fill="#D6E9DF" transform="translate(138,221)"/>
<path d="M0 0 C0.66 0.33 1.32 0.66 2 1 C1.67 1.66 1.34 2.32 1 3 C0.34 3 -0.32 3 -1 3 C-1.0825 3.598125 -1.165 4.19625 -1.25 4.8125 C-2.20455872 7.5966296 -3.57132271 8.43311142 -6 10 C-5.58578031 5.16743695 -3.53586014 3.17320782 0 0 Z " fill="#1D5D40" transform="translate(100,190)"/>
<path d="M0 0 C4.95 1.65 9.9 3.3 15 5 C11 7 11 7 8.8125 6.75 C7 6 7 6 6 4 C4.02111039 3.27306096 2.02045442 2.60183749 0 2 C0 1.34 0 0.68 0 0 Z " fill="#D4F0E3" transform="translate(289,62)"/>
<path d="M0 0 C0.80179688 0.00451172 1.60359375 0.00902344 2.4296875 0.01367188 C4.41149006 0.02546832 6.39325433 0.04340395 8.375 0.0625 C8.375 0.3925 8.375 0.7225 8.375 1.0625 C-0.535 2.0525 -0.535 2.0525 -9.625 3.0625 C-9.955 2.4025 -10.285 1.7425 -10.625 1.0625 C-7.31505287 -0.59247356 -3.63377 -0.03834335 0 0 Z " fill="#215F44" transform="translate(153.625,49.9375)"/>
<path d="M0 0 C0.66 0 1.32 0 2 0 C1.34 1.98 0.68 3.96 0 6 C-1.65 6.33 -3.3 6.66 -5 7 C-5.33 5.35 -5.66 3.7 -6 2 C-4.7934375 1.7834375 -4.7934375 1.7834375 -3.5625 1.5625 C-1.07896294 1.25864751 -1.07896294 1.25864751 0 0 Z " fill="#DAEAE4" transform="translate(204,285)"/>
<path d="M0 0 C1.32 0.66 2.64 1.32 4 2 C1 3 1 3 -1 3 C-1 3.66 -1 4.32 -1 5 C-1.66 5 -2.32 5 -3 5 C-3 8.63 -3 12.26 -3 16 C-3.33 16 -3.66 16 -4 16 C-4.10841951 14.08458862 -4.18578079 12.16740227 -4.25 10.25 C-4.29640625 9.18265625 -4.3428125 8.1153125 -4.390625 7.015625 C-3.91735478 3.36197888 -2.80844958 2.27771895 0 0 Z " fill="#B1D3C4" transform="translate(132,276)"/>
<path d="M0 0 C0.99 0.66 1.98 1.32 3 2 C2.51917969 2.37769531 2.03835937 2.75539062 1.54296875 3.14453125 C-0.53662958 5.64531405 -0.49841577 7.47306804 -0.6875 10.6875 C-0.78611328 12.17830078 -0.78611328 12.17830078 -0.88671875 13.69921875 C-0.94279297 14.83810547 -0.94279297 14.83810547 -1 16 C-1.33 16 -1.66 16 -2 16 C-2.24887295 13.89807303 -2.4734719 11.79326036 -2.6875 9.6875 C-2.81511719 8.51574219 -2.94273437 7.34398437 -3.07421875 6.13671875 C-3 3 -3 3 -1.51953125 1.08203125 C-1.01808594 0.72496094 -0.51664063 0.36789063 0 0 Z " fill="#145738" transform="translate(236,242)"/>
<path d="M0 0 C1.65 0 3.3 0 5 0 C5 0.66 5 1.32 5 2 C5.66 2 6.32 2 7 2 C7.33 3.98 7.66 5.96 8 8 C6.85073734 7.04578192 5.70569459 6.08647955 4.5625 5.125 C3.92441406 4.59132812 3.28632813 4.05765625 2.62890625 3.5078125 C1 2 1 2 0 0 Z " fill="#E4F5EC" transform="translate(133,171)"/>
<path d="M0 0 C1.32 0.66 2.64 1.32 4 2 C-0.455 4.97 -0.455 4.97 -5 8 C-5.66 7.67 -6.32 7.34 -7 7 C-4.69 4.69 -2.38 2.38 0 0 Z " fill="#256749" transform="translate(121,168)"/>
<path d="M0 0 C3.42931954 3.7559214 4.56429083 8.23466745 6 13 C5.01 13 4.02 13 3 13 C2.67 10.36 2.34 7.72 2 5 C1.34 5 0.68 5 0 5 C0 3.35 0 1.7 0 0 Z " fill="#C1E0D3" transform="translate(103,266)"/>
<path d="M0 0 C2.64 0 5.28 0 8 0 C8.268125 0.639375 8.53625 1.27875 8.8125 1.9375 C9.88667752 4.33131686 9.88667752 4.33131686 13 5 C8.15340923 4.40895235 4.39251833 3.02055843 0 1 C0 0.67 0 0.34 0 0 Z " fill="#D0EDE0" transform="translate(288,225)"/>
<path d="M0 0 C7.36401674 -0.36820084 7.36401674 -0.36820084 10.375 1.375 C11.58333333 2.58333333 12.79166667 3.79166667 14 5 C8.72250715 4.46148032 4.74354436 3.22656164 0 1 C0 0.67 0 0.34 0 0 Z " fill="#DAEFE6" transform="translate(214,225)"/>
<path d="M0 0 C0.66 0.33 1.32 0.66 2 1 C0.875 2.9375 0.875 2.9375 -1 5 C-4.1875 5.75 -4.1875 5.75 -7 6 C-7.33 5.34 -7.66 4.68 -8 4 C-6.71349294 3.30289269 -5.42059335 2.61757124 -4.125 1.9375 C-3.40570313 1.55464844 -2.68640625 1.17179688 -1.9453125 0.77734375 C-1.30335937 0.52082031 -0.66140625 0.26429688 0 0 Z " fill="#D2EBE1" transform="translate(109,207)"/>
<path d="M0 0 C0.99 0.66 1.98 1.32 3 2 C0.69 4.31 -1.62 6.62 -4 9 C-4.66 8.67 -5.32 8.34 -6 8 C-5.00102287 5.00306862 -4.34869747 3.97290587 -2 2 C-1.34 2 -0.68 2 0 2 C0 1.34 0 0.68 0 0 Z " fill="#D3E9DE" transform="translate(196,149)"/>
<path d="M0 0 C0.66 0.33 1.32 0.66 2 1 C-2.34242429 5.34242429 -6.13551546 5.7444669 -12 6 C-9.48617788 4.32411859 -7.17052712 3.05969689 -4.4375 1.8125 C-3.65246094 1.44769531 -2.86742187 1.08289063 -2.05859375 0.70703125 C-1.37925781 0.47371094 -0.69992188 0.24039062 0 0 Z " fill="#3A7259" transform="translate(226,361)"/>
<path d="M0 0 C3.7910119 1.44950455 7.3874638 3.15172566 11 5 C11 5.33 11 5.66 11 6 C6.55129785 6.39253254 3.85756507 5.15305957 0 3 C0 2.01 0 1.02 0 0 Z " fill="#226345" transform="translate(155,352)"/>
<path d="M0 0 C2.31 1.98 4.62 3.96 7 6 C5.68 6.33 4.36 6.66 3 7 C2.34 7.66 1.68 8.32 1 9 C0.45627049 5.94152152 0 3.11227195 0 0 Z " fill="#206A4A" transform="translate(129,293)"/>
<path d="M0 0 C0.268125 0.598125 0.53625 1.19625 0.8125 1.8125 C1.86180044 4.04292693 1.86180044 4.04292693 3.625 5.4375 C5 7 5 7 5.1875 9.6875 C5.125625 10.450625 5.06375 11.21375 5 12 C2.04250209 8.53258866 -0.07848152 5.13126473 -2 1 C-1.34 0.67 -0.68 0.34 0 0 Z " fill="#D7F2E9" transform="translate(95,291)"/>
<path d="M0 0 C2.97 0.495 2.97 0.495 6 1 C6.66 3.31 7.32 5.62 8 8 C6.85073734 7.04578192 5.70569459 6.08647955 4.5625 5.125 C3.92441406 4.59132812 3.28632813 4.05765625 2.62890625 3.5078125 C1 2 1 2 0 0 Z " fill="#DFF7EC" transform="translate(141,179)"/>
<path d="M0 0 C-3.465 2.97 -3.465 2.97 -7 6 C-7.33 4.35 -7.66 2.7 -8 1 C-4.59449725 -1.06762667 -4.18836538 -1.04709135 0 0 Z " fill="#E1F1E9" transform="translate(191,159)"/>
<path d="M0 0 C0.33 0 0.66 0 1 0 C1.33 2.64 1.66 5.28 2 8 C0.35 7.67 -1.3 7.34 -3 7 C-2.25 2.25 -2.25 2.25 0 0 Z " fill="#1C6645" transform="translate(293,312)"/>
<path d="M0 0 C0.66 0 1.32 0 2 0 C0.44499019 3.81684226 -2.03595495 6.19195732 -5 9 C-5.33 8.34 -5.66 7.68 -6 7 C-4.625 5 -4.625 5 -3 3 C-2.34 3 -1.68 3 -1 3 C-0.67 2.01 -0.34 1.02 0 0 Z " fill="#E4F5EE" transform="translate(296,305)"/>
<path d="M0 0 C0.99 0.33 1.98 0.66 3 1 C1.02 2.98 -0.96 4.96 -3 7 C-4.32 6.34 -5.64 5.68 -7 5 C-6.401875 4.731875 -5.80375 4.46375 -5.1875 4.1875 C-3.02775192 3.01506533 -1.64209744 1.80630718 0 0 Z " fill="#C5E6DA" transform="translate(204,303)"/>
<path d="M0 0 C0.99 0.66 1.98 1.32 3 2 C0.69 4.31 -1.62 6.62 -4 9 C-4.66 8.01 -5.32 7.02 -6 6 C-5.34 6 -4.68 6 -4 6 C-4 5.34 -4 4.68 -4 4 C-2.70766393 2.62689293 -1.37562854 1.28965176 0 0 Z " fill="#D0E9DE" transform="translate(212,294)"/>
<path d="M0 0 C0.33 0.66 0.66 1.32 1 2 C1.66 2 2.32 2 3 2 C3.33 1.34 3.66 0.68 4 0 C4.33 1.65 4.66 3.3 5 5 C4.01 5.66 3.02 6.32 2 7 C1.01 5.02 0.02 3.04 -1 1 C-0.67 0.67 -0.34 0.34 0 0 Z M5 1 C7 2 7 2 7 2 Z " fill="#185F3D" transform="translate(112,281)"/>
<path d="M0 0 C3.16115776 1.36983503 3.9927092 1.9890638 6 5 C2.88772805 5 0.05847848 4.54372951 -3 4 C-2.01 2.68 -1.02 1.36 0 0 Z " fill="#CDECDE" transform="translate(239,276)"/>
<path d="M0 0 C0.66 0.33 1.32 0.66 2 1 C0.92598892 3.91517292 0.22189824 5.77810176 -2 8 C-2.33 7.01 -2.66 6.02 -3 5 C-3.99 5 -4.98 5 -6 5 C-2.25 2 -2.25 2 0 2 C0 1.34 0 0.68 0 0 Z " fill="#035A30" transform="translate(209,271)"/>
<path d="M0 0 C1.65 1.65 3.3 3.3 5 5 C4.34 5 3.68 5 3 5 C3 5.66 3 6.32 3 7 C1.35 7.66 -0.3 8.32 -2 9 C-1.67 7.88625 -1.34 6.7725 -1 5.625 C0.088643 2.30540283 0.088643 2.30540283 0 0 Z " fill="#1B6846" transform="translate(133,264)"/>
<path d="M0 0 C4.455 0.99 4.455 0.99 9 2 C7.68 3.32 6.36 4.64 5 6 C3.35 4.02 1.7 2.04 0 0 Z " fill="#205B41" transform="translate(141,250)"/>
<path d="M0 0 C0.66 0.33 1.32 0.66 2 1 C1.34 3.97 0.68 6.94 0 10 C-1.32 9.67 -2.64 9.34 -4 9 C-2.68 6.03 -1.36 3.06 0 0 Z " fill="#165D3F" transform="translate(301,244)"/>
<path d="M0 0 C3.78383679 0.92493788 5.56693694 1.39371171 7.875 4.625 C8.431875 5.800625 8.431875 5.800625 9 7 C6 7 6 7 4.39453125 5.46875 C3.87246094 4.8190625 3.35039062 4.169375 2.8125 3.5 C2.28269531 2.8503125 1.75289062 2.200625 1.20703125 1.53125 C0.80871094 1.0259375 0.41039062 0.520625 0 0 Z " fill="#E2F6EE" transform="translate(220,169)"/>
<path d="M0 0 C2.62187494 1.04874998 3.79371361 1.64931313 5.25 4.125 C5.4975 4.74375 5.745 5.3625 6 6 C4.68 6 3.36 6 2 6 C0 2.25 0 2.25 0 0 Z " fill="#0D5F38" transform="translate(196,308)"/>
<path d="M0 0 C0.99 0.33 1.98 0.66 3 1 C3 1.66 3 2.32 3 3 C3.66 3.33 4.32 3.66 5 4 C5 4.99 5 5.98 5 7 C3.125 6.75 3.125 6.75 1 6 C-0.3125 4.0625 -0.3125 4.0625 -1 2 C-0.67 1.34 -0.34 0.68 0 0 Z " fill="#0C5F3B" transform="translate(134,306)"/>
<path d="M0 0 C1.65 0 3.3 0 5 0 C6.0625 1.8125 6.0625 1.8125 7 4 C6.67 4.99 6.34 5.98 6 7 C4.02 4.69 2.04 2.38 0 0 Z " fill="#D2EBE2" transform="translate(190,300)"/>
<path d="M0 0 C0.33 0 0.66 0 1 0 C0.67 3.63 0.34 7.26 0 11 C-0.99 11.33 -1.98 11.66 -3 12 C-2.49202991 7.6822542 -1.80317221 3.96697886 0 0 Z " fill="#2E684D" transform="translate(318,266)"/>
<path d="M0 0 C3.78383679 0.92493788 5.56693694 1.39371171 7.875 4.625 C8.431875 5.800625 8.431875 5.800625 9 7 C6 7 6 7 4.39453125 5.46875 C3.87246094 4.8190625 3.35039062 4.169375 2.8125 3.5 C2.28269531 2.8503125 1.75289062 2.200625 1.20703125 1.53125 C0.80871094 1.0259375 0.41039062 0.520625 0 0 Z " fill="#D0EAE0" transform="translate(190,267)"/>
<path d="M0 0 C1.32 0.33 2.64 0.66 4 1 C2.02 3.31 0.04 5.62 -2 8 C-2.66 7.34 -3.32 6.68 -4 6 C-4 4 -4 4 -2.25 1.8125 C-1.5075 1.214375 -0.765 0.61625 0 0 Z " fill="#E2F4ED" transform="translate(101,184)"/>
<path d="M0 0 C4.455 1.98 4.455 1.98 9 4 C4.99998285 5.00000429 2.94476647 4.80688405 -1 4 C-0.67 2.68 -0.34 1.36 0 0 Z " fill="#DCF2E9" transform="translate(173,338)"/>
<path d="M0 0 C0.66 0.33 1.32 0.66 2 1 C0.515 3.475 0.515 3.475 -1 6 C-3.97 5.505 -3.97 5.505 -7 5 C-2.25 1.125 -2.25 1.125 0 0 Z " fill="#D2ECE3" transform="translate(229,336)"/>
<path d="M0 0 C-5.75 5 -5.75 5 -8 5 C-7.1875 2.5625 -7.1875 2.5625 -6 0 C-3 -1 -3 -1 0 0 Z " fill="#D8F1E8" transform="translate(272,333)"/>
<path d="M0 0 C0.66 0 1.32 0 2 0 C2 1.32 2 2.64 2 4 C-1 6.25 -1 6.25 -4 8 C-3.67 6.35 -3.34 4.7 -3 3 C-2.01 2.67 -1.02 2.34 0 2 C0 1.34 0 0.68 0 0 Z " fill="#135C3A" transform="translate(239,305)"/>
<path d="M0 0 C0.66 1.32 1.32 2.64 2 4 C-0.475 5.485 -0.475 5.485 -3 7 C-3.66 6.34 -4.32 5.68 -5 5 C-3.35 3.35 -1.7 1.7 0 0 Z " fill="#236246" transform="translate(163,293)"/>
<path d="M0 0 C0.99 0.33 1.98 0.66 3 1 C0.82575883 3.50037734 -0.73045798 4.43628586 -4 5 C-4.99 3.68 -5.98 2.36 -7 1 C-5.824375 1.309375 -5.824375 1.309375 -4.625 1.625 C-3.75875 1.74875 -2.8925 1.8725 -2 2 C-1.34 1.34 -0.68 0.68 0 0 Z " fill="#125F3B" transform="translate(252,279)"/>
<path d="M0 0 C0.33 1.32 0.66 2.64 1 4 C0.34 4 -0.32 4 -1 4 C-1 4.66 -1 5.32 -1 6 C-2.98 6.66 -4.96 7.32 -7 8 C-6.02133662 6.85373678 -5.04205413 5.70800212 -4.0625 4.5625 C-3.51722656 3.92441406 -2.97195312 3.28632813 -2.41015625 2.62890625 C-1.63204305 1.73008851 -0.84063472 0.84063472 0 0 Z " fill="#195E3E" transform="translate(210,267)"/>
<path d="M0 0 C0.66 0.33 1.32 0.66 2 1 C0.68 4.63 -0.64 8.26 -2 12 C-2.66 11.67 -3.32 11.34 -4 11 C-2.95902388 7.13351728 -1.96301592 3.50538557 0 0 Z " fill="#1D5D42" transform="translate(298,256)"/>
<path d="M0 0 C0.33 0.99 0.66 1.98 1 3 C-6.425 2.01 -6.425 2.01 -14 1 C-14 0.67 -14 0.34 -14 0 C-12.2300132 -0.19532961 -10.45895721 -0.38098882 -8.6875 -0.5625 C-7.70136719 -0.66691406 -6.71523437 -0.77132812 -5.69921875 -0.87890625 C-3 -1 -3 -1 0 0 Z " fill="#D1E8DE" transform="translate(211,221)"/>
<path d="M0 0 C3.96 0.33 7.92 0.66 12 1 C12.33 2.32 12.66 3.64 13 5 C12.154375 4.71125 11.30875 4.4225 10.4375 4.125 C6.97638959 2.99227296 3.50627443 1.98175684 0 1 C0 0.67 0 0.34 0 0 Z " fill="#266549" transform="translate(281,204)"/>
<path d="M0 0 C1.16959987 0.97566112 2.33561177 1.955625 3.5 2.9375 C4.1496875 3.48277344 4.799375 4.02804688 5.46875 4.58984375 C5.9740625 5.05519531 6.479375 5.52054688 7 6 C7 6.33 7 6.66 7 7 C5.35 7 3.7 7 2 7 C1.34 4.69 0.68 2.38 0 0 Z " fill="#2A6A4C" transform="translate(283,173)"/>
<path d="M0 0 C2.97 0.495 2.97 0.495 6 1 C6.33 1.99 6.66 2.98 7 4 C6.34 4.66 5.68 5.32 5 6 C1.125 3.375 1.125 3.375 0 0 Z " fill="#22684A" transform="translate(212,307)"/>
<path d="M0 0 C0.33 0.66 0.66 1.32 1 2 C0.22265625 3.7265625 0.22265625 3.7265625 -0.9375 5.625 C-1.618125 6.73875 -2.29875 7.8525 -3 9 C-3.66 8.01 -4.32 7.02 -5 6 C-3.35 4.02 -1.7 2.04 0 0 Z " fill="#D8EFE4" transform="translate(278,298)"/>
<path d="M0 0 C4.75 0.75 4.75 0.75 7 3 C7.33 3.66 7.66 4.32 8 5 C7.34 5.66 6.68 6.32 6 7 C4.02 4.69 2.04 2.38 0 0 Z " fill="#CEE8DD" transform="translate(183,293)"/>
<path d="M0 0 C1.17539996 0.92652701 2.34010577 1.86663387 3.5 2.8125 C4.1496875 3.33457031 4.799375 3.85664063 5.46875 4.39453125 C7 6 7 6 7 9 C6.67 8.34 6.34 7.68 6 7 C5.360625 6.9175 4.72125 6.835 4.0625 6.75 C3.381875 6.5025 2.70125 6.255 2 6 C0.75 2.9375 0.75 2.9375 0 0 Z " fill="#D6ECE1" transform="translate(138,281)"/>
<path d="M0 0 C0.66 0.33 1.32 0.66 2 1 C-0.475 5.455 -0.475 5.455 -3 10 C-4 6 -4 6 -2.625 3.3125 C-1 1 -1 1 0 0 Z " fill="#256547" transform="translate(288,280)"/>
<path d="M0 0 C1.16959987 0.97566112 2.33561177 1.955625 3.5 2.9375 C4.1496875 3.48277344 4.799375 4.02804688 5.46875 4.58984375 C5.9740625 5.05519531 6.479375 5.52054688 7 6 C7 6.33 7 6.66 7 7 C5.35 7 3.7 7 2 7 C1 5 0 3 -1 1 C-0.67 0.67 -0.34 0.34 0 0 Z " fill="#115939" transform="translate(233,184)"/>
<path d="M0 0 C1.65 1.32 3.3 2.64 5 4 C4.67 4.99 4.34 5.98 4 7 C2.68 6.67 1.36 6.34 0 6 C0 4.02 0 2.04 0 0 Z " fill="#125737" transform="translate(202,152)"/>
<path d="M0 0 C2.12038635 2.61514317 4.13091744 5.19637616 6 8 C5.01 8 4.02 8 3 8 C0.75 5.6875 0.75 5.6875 -1 3 C-0.67 2.01 -0.34 1.02 0 0 Z " fill="#E3F4EC" transform="translate(132,291)"/>
<path d="M0 0 C2.18975773 3.28463659 2.99806563 6.20696275 4 10 C3.34 10 2.68 10 2 10 C2 9.34 2 8.68 2 8 C1.34 8 0.68 8 0 8 C0 5.36 0 2.72 0 0 Z " fill="#296549" transform="translate(82,269)"/>
<path d="M0 0 C0.99 0.33 1.98 0.66 3 1 C3.33 2.65 3.66 4.3 4 6 C3.01 6 2.02 6 1 6 C-0.6875 4 -0.6875 4 -2 2 C-1.34 2 -0.68 2 0 2 C0 1.34 0 0.68 0 0 Z " fill="#13603E" transform="translate(244,242)"/>
<path d="M0 0 C0.99 0.33 1.98 0.66 3 1 C1.35 2.98 -0.3 4.96 -2 7 C-2.6875 5.1875 -2.6875 5.1875 -3 3 C-1.5625 1.25 -1.5625 1.25 0 0 Z " fill="#E0FAEF" transform="translate(122,163)"/>
<path d="M0 0 C-2.97 1.65 -5.94 3.3 -9 5 C-6.64389875 0.2877975 -5.23968794 -1.74656265 0 0 Z " fill="#D5EEE4" transform="translate(259,343)"/>
<path d="M0 0 C1.9375 0.8125 1.9375 0.8125 4 2 C4.33 2.99 4.66 3.98 5 5 C5.66 5.33 6.32 5.66 7 6 C6.67 6.66 6.34 7.32 6 8 C3.69 6.02 1.38 4.04 -1 2 C-0.67 1.34 -0.34 0.68 0 0 Z " fill="#C5E6D9" transform="translate(117,321)"/>
<path d="M0 0 C-1.15173355 2.46800047 -2.04783565 4.04783565 -4 6 C-4.99 5.34 -5.98 4.68 -7 4 C-3.375 0 -3.375 0 0 0 Z " fill="#B9DBCC" transform="translate(215,276)"/>
<path d="M0 0 C2 3 2 3 1.625 5.6875 C1.41875 6.450625 1.2125 7.21375 1 8 C-0.32 8.33 -1.64 8.66 -3 9 C-2.01 6.03 -1.02 3.06 0 0 Z " fill="#C0DFD2" transform="translate(295,268)"/>
<path d="M0 0 C1.98 1.65 3.96 3.3 6 5 C5.01 5.66 4.02 6.32 3 7 C2.34 6.01 1.68 5.02 1 4 C0.01 4.495 0.01 4.495 -1 5 C-0.67 3.35 -0.34 1.7 0 0 Z " fill="#DAEEE5" transform="translate(241,244)"/>
<path d="M0 0 C1.46067199 0.45082469 2.91848032 0.91093537 4.375 1.375 C5.18710938 1.63023437 5.99921875 1.88546875 6.8359375 2.1484375 C9 3 9 3 11 5 C10.01 5.33 9.02 5.66 8 6 C7.34 5.67 6.68 5.34 6 5 C6 4.34 6 3.68 6 3 C4.02 2.34 2.04 1.68 0 1 C0 0.67 0 0.34 0 0 Z " fill="#276348" transform="translate(205,222)"/>
<path d="M0 0 C2.31 1.98 4.62 3.96 7 6 C6.34 6.66 5.68 7.32 5 8 C2.21611025 6.29374499 1.14615794 5.52373261 0.25 2.3125 C0.1675 1.549375 0.085 0.78625 0 0 Z " fill="#28684D" transform="translate(145,184)"/>
<path d="M0 0 C1.65 0 3.3 0 5 0 C5.33 0.99 5.66 1.98 6 3 C6.66 3.66 7.32 4.32 8 5 C7.01 5.33 6.02 5.66 5 6 C3.35 4.02 1.7 2.04 0 0 Z " fill="#E8F9EF" transform="translate(287,176)"/>
<path d="M0 0 C2.475 0.495 2.475 0.495 5 1 C5 1.66 5 2.32 5 3 C5.66 3.33 6.32 3.66 7 4 C6.67 4.99 6.34 5.98 6 7 C4.02 4.69 2.04 2.38 0 0 Z " fill="#E4F8EE" transform="translate(280,169)"/>
<path d="M0 0 C-0.99 1.485 -0.99 1.485 -2 3 C-4.31 2.67 -6.62 2.34 -9 2 C-3.42857143 -1.71428571 -3.42857143 -1.71428571 0 0 Z " fill="#17603E" transform="translate(204,79)"/>
<path d="M0 0 C2.9375 0.8125 2.9375 0.8125 6 2 C6.33 2.99 6.66 3.98 7 5 C1.25 3.25 1.25 3.25 -1 1 C-0.67 0.67 -0.34 0.34 0 0 Z " fill="#D7EEE3" transform="translate(175,360)"/>
<path d="M0 0 C1.65 0 3.3 0 5 0 C0.25 4.875 0.25 4.875 -2 6 C-1.49396008 3.83125748 -1.00016187 2.00032373 0 0 Z " fill="#CDE7DD" transform="translate(275,326)"/>
<path d="M0 0 C0.66 0 1.32 0 2 0 C1.67 0.99 1.34 1.98 1 3 C-1.5625 4.1875 -1.5625 4.1875 -4 5 C-4.99 3.68 -5.98 2.36 -7 1 C-4.69 1.33 -2.38 1.66 0 2 C0 1.34 0 0.68 0 0 Z " fill="#276147" transform="translate(256,316)"/>
<path d="M0 0 C2.35981813 0.93578995 4.69631264 1.93347808 7 3 C6.67 3.66 6.34 4.32 6 5 C3.64828869 4.40138258 1.3140622 3.73075648 -1 3 C-1.33 2.34 -1.66 1.68 -2 1 C-1.34 0.67 -0.68 0.34 0 0 Z " fill="#206242" transform="translate(195,314)"/>
<path d="M0 0 C2.475 0.99 2.475 0.99 5 2 C5 1.34 5 0.68 5 0 C5.66 0 6.32 0 7 0 C6.67 0.99 6.34 1.98 6 3 C3.69 3.33 1.38 3.66 -1 4 C-0.67 2.68 -0.34 1.36 0 0 Z " fill="#1B6442" transform="translate(255,313)"/>
<path d="M0 0 C0.33 0.66 0.66 1.32 1 2 C0.06553465 4.03144641 -0.93224776 6.03533587 -2 8 C-2.99 7.67 -3.98 7.34 -5 7 C-3.35 4.69 -1.7 2.38 0 0 Z " fill="#326E55" transform="translate(299,304)"/>
<path d="M0 0 C0.66 0.66 1.32 1.32 2 2 C0.35 3.32 -1.3 4.64 -3 6 C-3.99 4.68 -4.98 3.36 -6 2 C-4.02 2 -2.04 2 0 2 C0 1.34 0 0.68 0 0 Z " fill="#DBF5E9" transform="translate(149,304)"/>
<path d="M0 0 C4.875 4.625 4.875 4.625 6 8 C3.525 7.01 3.525 7.01 1 6 C1 4.68 1 3.36 1 2 C0.34 1.67 -0.32 1.34 -1 1 C-0.67 0.67 -0.34 0.34 0 0 Z " fill="#D6EDE3" transform="translate(115,290)"/>
<path d="M0 0 C0.99 0.33 1.98 0.66 3 1 C0.47211993 3.79872437 -1.20411134 5.45773019 -5 6 C-3.35 4.02 -1.7 2.04 0 0 Z " fill="#CFEADC" transform="translate(266,276)"/>
<path d="M0 0 C3.24208567 0.35049575 4.61527704 0.56221181 6.8125 3.0625 C7.204375 3.701875 7.59625 4.34125 8 5 C4.86248779 5 3.60242414 4.64820195 1 3 C0.67 2.01 0.34 1.02 0 0 Z " fill="#1A5E3E" transform="translate(238,274)"/>
<path d="M0 0 C0.66 0.66 1.32 1.32 2 2 C1.01 3.98 0.02 5.96 -1 8 C-3 4.25 -3 4.25 -3 2 C-2.01 1.34 -1.02 0.68 0 0 Z " fill="#125C3C" transform="translate(292,271)"/>
<path d="M0 0 C1.32 0.33 2.64 0.66 4 1 C1.36 2.98 -1.28 4.96 -4 7 C-3.67 5.68 -3.34 4.36 -3 3 C-2.34 3 -1.68 3 -1 3 C-0.67 2.01 -0.34 1.02 0 0 Z " fill="#195C3D" transform="translate(157,242)"/>
<path d="M0 0 C2.475 0.99 2.475 0.99 5 2 C4.34 3.32 3.68 4.64 3 6 C2.34 6 1.68 6 1 6 C0.67 4.02 0.34 2.04 0 0 Z " fill="#ECF5F0" transform="translate(144,208)"/>
<path d="M0 0 C1.32 0.66 2.64 1.32 4 2 C2.54293274 2.50367757 1.08429904 3.00282556 -0.375 3.5 C-1.59316406 3.91765625 -1.59316406 3.91765625 -2.8359375 4.34375 C-5 5 -5 5 -7 5 C-7 4.34 -7 3.68 -7 3 C-5.02 3 -3.04 3 -1 3 C-0.67 2.01 -0.34 1.02 0 0 Z " fill="#347458" transform="translate(247,209)"/>
<path d="M0 0 C2.25 0.25 2.25 0.25 4 1 C1.03 3.475 1.03 3.475 -2 6 C-2.66 5.34 -3.32 4.68 -4 4 C-2.25 1.9375 -2.25 1.9375 0 0 Z " fill="#E8F9F2" transform="translate(109,176)"/>
<path d="M0 0 C3.19902639 -0.08886184 5.92677456 0.08941469 9 1 C8.67 1.99 8.34 2.98 8 4 C2.25 2.25 2.25 2.25 0 0 Z " fill="#316E54" transform="translate(318,74)"/>
<path d="M0 0 C6.875 3.75 6.875 3.75 8 6 C2.25 4.125 2.25 4.125 0 3 C0 2.01 0 1.02 0 0 Z " fill="#236046" transform="translate(137,340)"/>
<path d="M0 0 C2.97 0.495 2.97 0.495 6 1 C6 2.65 6 4.3 6 6 C3.97945196 4.35830472 1.97956942 2.69088222 0 1 C0 0.67 0 0.34 0 0 Z " fill="#CBE8DC" transform="translate(182,325)"/>
<path d="M0 0 C3 2 3 2 3.6875 5.125 C3.790625 6.07375 3.89375 7.0225 4 8 C2.35 6.35 0.7 4.7 -1 3 C-0.67 2.01 -0.34 1.02 0 0 Z " fill="#E6F6ED" transform="translate(237,323)"/>
<path d="M0 0 C0.99 0.99 1.98 1.98 3 3 C2.030625 3.28875 1.06125 3.5775 0.0625 3.875 C-3.10664203 4.64214682 -3.10664203 4.64214682 -4 7 C-4.66 6.67 -5.32 6.34 -6 6 C-4 4 -2 2 0 0 Z " fill="#D1EFE1" transform="translate(213,309)"/>
<path d="M0 0 C5.875 3.625 5.875 3.625 7 7 C6.34 7 5.68 7 5 7 C4 6 3 5 2 4 C-0.09989652 2.82425289 -0.09989652 2.82425289 -2 2 C-1.34 1.34 -0.68 0.68 0 0 Z " fill="#D1EFE0" transform="translate(186,309)"/>
<path d="M0 0 C0.66 0.66 1.32 1.32 2 2 C0.35 3.65 -1.3 5.3 -3 7 C-3.1875 4.625 -3.1875 4.625 -3 2 C-2.01 1.34 -1.02 0.68 0 0 Z " fill="#226546" transform="translate(274,299)"/>
<path d="M0 0 C1.32 0.66 2.64 1.32 4 2 C3.67 2.66 3.34 3.32 3 4 C1.02 4 -0.96 4 -3 4 C-2.01 2.68 -1.02 1.36 0 0 Z M4 1 C6 2 6 2 6 2 Z " fill="#1B6847" transform="translate(267,296)"/>
<path d="M0 0 C0.66 1.32 1.32 2.64 2 4 C-1 6 -1 6 -3.1875 5.625 C-3.785625 5.41875 -4.38375 5.2125 -5 5 C-3.35 3.35 -1.7 1.7 0 0 Z " fill="#2E6B50" transform="translate(156,267)"/>
<path d="M0 0 C1 3 1 3 1 5 C-0.98 5.33 -2.96 5.66 -5 6 C-3.35 4.02 -1.7 2.04 0 0 Z " fill="#D9ECE3" transform="translate(259,250)"/>
<path d="M0 0 C2.04119788 1.61594832 4.04072937 3.2856382 6 5 C6 5.66 6 6.32 6 7 C4 6 2 5 0 4 C0 2.68 0 1.36 0 0 Z " fill="#D7EEE4" transform="translate(247,250)"/>
<path d="M0 0 C1.64350079 3.28700157 2.41321669 5.47930015 3 9 C1.68 9 0.36 9 -1 9 C-0.67 6.03 -0.34 3.06 0 0 Z " fill="#195E3F" transform="translate(76,249)"/>
<path d="M0 0 C0.66 0 1.32 0 2 0 C1.60196439 2.88575819 1.20990931 3.82189513 -1.0625 5.75 C-1.701875 6.1625 -2.34125 6.575 -3 7 C-3.33 6.01 -3.66 5.02 -4 4 C-2.68 3.67 -1.36 3.34 0 3 C0 2.01 0 1.02 0 0 Z " fill="#CBE8DD" transform="translate(166,180)"/>
<path d="M0 0 C0.66 0.33 1.32 0.66 2 1 C1.34 2.65 0.68 4.3 0 6 C-1.32 5.34 -2.64 4.68 -4 4 C-2.68 2.68 -1.36 1.36 0 0 Z " fill="#195D41" transform="translate(192,157)"/>
<path d="M0 0 C0.66 0.33 1.32 0.66 2 1 C2 1.99 2 2.98 2 4 C2.99 4.33 3.98 4.66 5 5 C4.34 5.66 3.68 6.32 3 7 C1.35 5.02 -0.3 3.04 -2 1 C-1.34 0.67 -0.68 0.34 0 0 Z " fill="#CEE6DA" transform="translate(203,149)"/>
</svg>
