<?xml version="1.0" encoding="UTF-8"?>
<svg version="1.1" xmlns="http://www.w3.org/2000/svg" width="1000" height="1000">
<path d="M0 0 C330 0 660 0 1000 0 C1000 330 1000 660 1000 1000 C670 1000 340 1000 0 1000 C0 670 0 340 0 0 Z " fill="#0D141E" transform="translate(0,0)"/>
<path d="M0 0 C0.85817166 -0.00720654 1.71634333 -0.01441309 2.60052019 -0.02183801 C4.01528955 -0.01077658 4.01528955 -0.01077658 5.4586401 0.00050831 C6.96107381 -0.0054533 6.96107381 -0.0054533 8.49385971 -0.01153535 C11.86580204 -0.02119569 15.23732873 -0.00931753 18.60925961 0.00241566 C21.02022108 -0.00001105 23.43118156 -0.0037292 25.84213924 -0.00864697 C31.71994367 -0.01709541 37.59763643 -0.01152701 43.47542519 0.00061598 C50.31584802 0.01422249 57.15624149 0.01259934 63.99667441 0.01048265 C76.19845329 0.00729143 88.40017381 0.01896854 100.60193539 0.03854847 C112.45091179 0.05755738 124.29981982 0.0646351 136.14881039 0.05905628 C149.0428669 0.0530034 161.93689333 0.05316621 174.83094734 0.06454211 C176.20485047 0.06574945 177.57875361 0.06695543 178.95265675 0.06816006 C179.96671769 0.06906537 179.96671769 0.06906537 181.00126471 0.06998896 C185.77332056 0.07387386 190.54536524 0.0734723 195.31742191 0.07157421 C201.73514343 0.06923498 208.15279579 0.07775445 214.57049847 0.09363461 C216.93205367 0.09789287 219.2936178 0.09871774 221.65517521 0.0959444 C224.86645449 0.09274416 228.07746645 0.10174967 231.28871822 0.1140337 C232.23412851 0.11025438 233.1795388 0.10647505 234.15359789 0.1025812 C235.00916181 0.1084134 235.86472572 0.11424559 236.74621582 0.12025452 C237.8590151 0.12155468 237.8590151 0.12155468 238.99429518 0.12288111 C240.81018734 0.37473011 240.81018734 0.37473011 242.81018734 2.37473011 C243.06088567 4.73679543 243.06088567 4.73679543 243.06186962 7.76897144 C243.06708512 8.92124068 243.07230061 10.07350992 243.07767415 11.26069641 C243.07321271 12.53751943 243.06875126 13.81434244 243.06415462 15.12985706 C243.06645709 16.49134361 243.06963217 17.85282892 243.07360911 19.2143116 C243.08199523 22.96848455 243.07781465 26.72255645 243.07163668 30.47672987 C243.06712871 34.52040432 243.07408768 38.56406087 243.07959652 42.60773182 C243.08850994 50.53437989 243.08655987 58.46099018 243.08077124 66.38763976 C243.07626239 72.82731961 243.07563847 79.26698884 243.07781887 85.70666981 C243.07812534 86.62169059 243.0784318 87.53671137 243.07874756 88.47946006 C243.07938698 90.33805553 243.0800354 92.196651 243.08069274 94.05524647 C243.08640174 111.50102392 243.07982922 128.94678039 243.06909201 146.3925544 C243.06015598 161.3758813 243.06170786 176.35917721 243.07092953 191.34250355 C243.08162211 208.72401376 243.08585236 226.10550555 243.079705 243.48701859 C243.07906787 245.33894252 243.07843913 247.19086647 243.07781887 249.04279041 C243.07735604 250.4097179 243.07735604 250.4097179 243.07688387 251.80426008 C243.07515388 258.23942652 243.07807854 264.67458133 243.08277798 271.10974598 C243.08837559 278.9474405 243.08689405 286.78509495 243.07621649 294.62278485 C243.07094462 298.62499559 243.06892865 302.6271394 243.07551479 306.62934971 C243.08144523 310.28832451 243.07824766 313.94716992 243.06755969 317.60613286 C243.06424357 319.56700994 243.07082253 321.5278959 243.07767415 323.48876381 C243.06985091 325.21716767 243.06985091 325.21716767 243.06186962 326.98048878 C243.06154492 327.98110686 243.06122021 328.98172495 243.06088567 330.01266479 C242.81018734 332.37473011 242.81018734 332.37473011 240.81018734 334.37473011 C238.99429518 334.62657911 238.99429518 334.62657911 236.74621582 334.6292057 C235.8906519 334.6350379 235.03508799 334.64087009 234.15359789 334.64687902 C233.2081876 334.64309969 232.26277731 334.63932037 231.28871822 334.63542652 C230.28865574 334.63925207 229.28859326 334.64307762 228.25822586 334.64701909 C224.88560129 334.65739092 221.51314564 334.65334902 218.14050961 334.64938831 C215.73131813 334.65373247 213.32212804 334.65891462 210.91294003 334.66487598 C205.03536226 334.67691197 199.15782685 334.67941353 193.28024144 334.67707572 C188.50437469 334.67529519 183.72852183 334.67703649 178.95265675 334.68130016 C178.27383039 334.68189535 177.59500404 334.68249054 176.89560718 334.68310377 C175.51672244 334.68431547 174.1378377 334.68552961 172.75895297 334.68674614 C159.81739959 334.69763147 146.87587225 334.69545452 133.9343174 334.6893613 C122.0865287 334.68419143 110.23882219 334.69544763 98.39104975 334.71445952 C86.23542075 334.73381638 74.07983069 334.7420977 61.92418617 334.73833627 C55.09584597 334.73642092 48.26757575 334.73894409 41.43924809 334.7530508 C35.01988362 334.76617802 28.60064283 334.76373386 22.18127728 334.75063992 C19.8201387 334.74826335 17.45898868 334.75104712 15.0978632 334.75926304 C11.88459407 334.76964109 8.67188825 334.76170198 5.4586401 334.74895191 C4.51546053 334.7563262 3.57228096 334.76370048 2.60052019 334.77129823 C1.74234853 334.76409169 0.88417687 334.75688514 0 334.74946022 C-1.11304281 334.74954274 -1.11304281 334.74954274 -2.24857134 334.74962693 C-4.84329083 334.24852896 -5.68598812 333.54308509 -7.18981266 331.37473011 C-7.56586015 328.90244102 -7.56586015 328.90244102 -7.56733608 325.891469 C-7.57515932 324.7447922 -7.58298257 323.59811541 -7.59104288 322.41669083 C-7.58435071 321.15124467 -7.57765855 319.88579851 -7.57076359 318.5820055 C-7.57421841 317.22861605 -7.57898178 315.8752294 -7.58494532 314.52184868 C-7.59750933 310.79462624 -7.59126059 307.0676332 -7.58198667 303.34040976 C-7.57521851 299.32399157 -7.58566627 295.30761375 -7.59392643 291.2912035 C-7.6072899 283.41982126 -7.60437442 275.54852468 -7.59568851 267.67713904 C-7.58892263 261.28182409 -7.58799048 254.88653321 -7.59125996 248.49121571 C-7.59171966 247.58216986 -7.59217935 246.67312401 -7.59265298 245.73653132 C-7.59361213 243.89001711 -7.59458477 242.0435029 -7.59557076 240.1969887 C-7.60413231 222.8684819 -7.59427853 205.54002265 -7.57816966 188.21152365 C-7.56476578 173.33198271 -7.56709366 158.45251197 -7.58092594 143.5729723 C-7.59696826 126.30790106 -7.60330826 109.04287153 -7.59408915 91.77779388 C-7.59313347 89.9379441 -7.59219036 88.09809431 -7.59125996 86.25824451 C-7.59079713 85.35292345 -7.5903343 84.44760238 -7.58985745 83.51484734 C-7.58726351 77.12471713 -7.59164724 70.73461331 -7.59869862 64.34448719 C-7.60709886 56.56062542 -7.60486467 48.77685445 -7.58885638 40.99300313 C-7.5809537 37.01898687 -7.57791586 33.04512217 -7.58780384 29.07110691 C-7.5967102 25.43673255 -7.59188558 21.80265097 -7.57587118 18.16830337 C-7.5709057 16.22312514 -7.58075614 14.27792676 -7.59104288 12.33276939 C-7.58321963 11.1860926 -7.57539639 10.0394158 -7.56733608 8.85799122 C-7.56684903 7.86437045 -7.56636197 6.87074968 -7.56586015 5.8470192 C-7.18981266 3.37473011 -7.18981266 3.37473011 -5.92808074 1.55544692 C-3.78217005 0.09783928 -2.58329753 -0.00019153 0 0 Z " fill="#00E963" transform="translate(542.1898126602173,332.62526988983154)"/>
<path d="M0 0 C1.07618088 0.00607269 1.07618088 0.00607269 2.17410278 0.01226807 C2.93035446 0.00876343 3.68660614 0.00525879 4.46577454 0.00164795 C6.97289126 -0.00717523 9.47972718 -0.00131765 11.98684692 0.00543213 C13.7255814 0.0040855 15.46431552 0.00214499 17.20304871 -0.00036621 C20.85066302 -0.00331838 24.49817951 0.00098261 28.14578247 0.01031494 C32.824575 0.02170109 37.50313789 0.01515594 42.18192196 0.00317001 C45.77381626 -0.00405331 49.36565602 -0.00175834 52.95755196 0.0034256 C54.68275543 0.00476123 56.40796383 0.00311741 58.13316154 -0.00153351 C60.5440776 -0.00660557 62.95462079 0.0011213 65.36550903 0.01226807 C66.43865356 0.00619537 66.43865356 0.00619537 67.53347778 0 C71.19482547 0.03140309 72.69936093 0.1809623 75.83450317 2.27105713 C76.20364666 4.43808937 76.20364666 4.43808937 76.19526672 7.18112183 C76.19939072 8.2188121 76.20351471 9.25650238 76.20776367 10.32563782 C76.19697784 11.4685881 76.18619202 12.61153839 76.17507935 13.78912354 C76.17573647 15.58909538 76.17573647 15.58909538 76.17640686 17.4254303 C76.17467178 20.72088107 76.1596008 24.01577179 76.13868499 27.31112337 C76.11996308 30.75310405 76.1181713 34.19509174 76.11460876 37.63711548 C76.10527505 44.15720071 76.08064348 50.6771355 76.0505603 57.1971544 C76.01377246 65.34675978 75.99732453 73.49638947 75.98098755 81.64605713 C75.95174667 96.18784107 75.8916542 110.7292966 75.83450317 125.27105713 C103.22450317 125.27105713 130.61450317 125.27105713 158.83450317 125.27105713 C158.79969849 116.49898682 158.7648938 107.7269165 158.72903442 98.68902588 C158.71176428 92.4378355 158.69638422 86.18666297 158.68374157 79.93546391 C158.66709762 71.83072217 158.64594557 63.72607274 158.60818481 55.62139893 C158.57830905 49.20604636 158.55893453 42.79076334 158.55223769 36.37534314 C158.54832229 32.97752449 158.53910277 29.57990484 158.517313 26.18214989 C158.4956417 22.39159556 158.49253199 18.60145802 158.493927 14.81085205 C158.48314117 13.68084778 158.47235535 12.55084351 158.46124268 11.38659668 C158.46536667 10.35594589 158.46949066 9.3252951 158.47373962 8.26341248 C158.47097425 7.3665079 158.46820887 6.46960333 158.46535969 5.54551983 C158.83450317 3.27105713 158.83450317 3.27105713 160.15069103 1.48284435 C162.91828803 -0.50890912 166.00501143 -0.14505121 169.28762817 -0.11712646 C170.42222473 -0.1250119 170.42222473 -0.1250119 171.57974243 -0.13305664 C174.08153903 -0.14626701 176.58270003 -0.1375152 179.08450317 -0.12738037 C180.82180911 -0.12940082 182.55911421 -0.13231201 184.29641724 -0.13607788 C187.93810091 -0.14050263 191.57956389 -0.13406541 195.22122192 -0.12005615 C199.89223802 -0.10296409 204.56273701 -0.11280448 209.23373413 -0.13077354 C212.82135931 -0.14160736 216.40886163 -0.13816691 219.99649048 -0.13039017 C221.71890321 -0.12838704 223.44132705 -0.13085137 225.16372681 -0.13782883 C227.56991173 -0.14543682 229.97525597 -0.13384899 232.38137817 -0.11712646 C233.45216614 -0.1262355 233.45216614 -0.1262355 234.54458618 -0.13552856 C239.34338016 -0.07365426 239.34338016 -0.07365426 241.51726782 1.45216274 C243.33530843 3.96259025 243.21051342 5.66736299 243.2120266 8.75431824 C243.21984984 9.90099504 243.22767308 11.04767183 243.23573339 12.22909641 C243.22569514 14.12726565 243.22569514 14.12726565 243.2154541 16.06378174 C243.21890892 17.41717119 243.2236723 18.77055784 243.22963583 20.12393856 C243.24219984 23.851161 243.2359511 27.57815404 243.22667718 31.30537748 C243.21990902 35.32179566 243.23035679 39.33817349 243.23861694 43.35458374 C243.25198042 51.22596597 243.24906493 59.09726256 243.24037902 66.9686482 C243.23361314 73.36396315 243.232681 79.75925403 243.23595047 86.15457153 C243.23641017 87.06361738 243.23686987 87.97266323 243.2373435 88.90925592 C243.23830264 90.75577013 243.23927528 92.60228434 243.24026127 94.44879854 C243.24882282 111.77730534 243.23896905 129.10576458 243.22286017 146.43426359 C243.2094563 161.31380453 243.21178417 176.19327527 243.22561646 191.07281494 C243.24165877 208.33788618 243.24799878 225.6029157 243.23877966 242.86799335 C243.23782398 244.70784314 243.23688087 246.54769293 243.23595047 248.38754272 C243.23548764 249.29286379 243.23502482 250.19818486 243.23454797 251.1309399 C243.23195402 257.52107011 243.23633776 263.91117393 243.24338913 270.30130005 C243.25178937 278.08516182 243.24955518 285.86893279 243.2335469 293.65278411 C243.22564421 297.62680037 243.22260637 301.60066507 243.23249435 305.57468033 C243.24140072 309.20905469 243.23657609 312.84313626 243.2205617 316.47748387 C243.21559621 318.4226621 243.22544665 320.36786048 243.23573339 322.31301785 C243.22791015 323.45969464 243.22008691 324.60637144 243.2120266 325.78779602 C243.21129601 327.27822717 243.21129601 327.27822717 243.21055067 328.79876804 C242.83450317 331.27105713 242.83450317 331.27105713 241.51726782 333.08995152 C238.73959276 335.03955725 235.65238496 334.68706671 232.38137817 334.65924072 C231.24678162 334.66712616 231.24678162 334.66712616 230.08926392 334.6751709 C227.58746732 334.68838127 225.08630631 334.67962945 222.58450317 334.66949463 C220.84719724 334.67151507 219.10989214 334.67442626 217.37258911 334.67819214 C213.73090544 334.68261689 210.08944246 334.67617966 206.44778442 334.66217041 C201.77676833 334.64507835 197.10626933 334.65491874 192.43527222 334.6728878 C188.84764704 334.68372162 185.26014472 334.68028117 181.67251587 334.67250443 C179.95010314 334.6705013 178.2276793 334.67296563 176.50527954 334.67994308 C174.09909462 334.68755108 171.69375038 334.67596325 169.28762817 334.65924072 C168.57376953 334.66531342 167.85991089 334.67138611 167.12442017 334.67764282 C162.31326785 334.61560918 162.31326785 334.61560918 160.15069103 333.05926991 C158.40137508 330.68259615 158.46468133 329.21660922 158.47373962 326.27870178 C158.46755363 324.7327256 158.46755363 324.7327256 158.46124268 323.15551758 C158.4720285 322.02551331 158.48281433 320.89550903 158.493927 319.73126221 C158.49348892 318.54088852 158.49305084 317.35051483 158.49259949 316.12406921 C158.49433258 312.85973429 158.5093877 309.59578416 158.53032136 306.33152604 C158.54906318 302.920248 158.55083662 299.50896257 158.55439758 296.09764099 C158.56372542 289.63779541 158.58834908 283.17810197 158.61844605 276.71832341 C158.65525488 268.64283156 158.67168651 260.56731504 158.6880188 252.49176025 C158.71724623 238.08474067 158.77734096 223.67805311 158.83450317 209.27105713 C131.44450317 209.27105713 104.05450317 209.27105713 75.83450317 209.27105713 C75.86930786 218.1269165 75.90411255 226.98277588 75.93997192 236.10699463 C75.95724004 242.4145805 75.97262045 248.72214872 75.98526478 255.02974319 C76.00191467 263.20951789 76.02308059 271.38920121 76.06082153 279.56890869 C76.09067962 286.04321531 76.1100676 292.51745311 76.11676866 298.99182665 C76.12068707 302.42147056 76.12992557 305.85091757 76.15169334 309.2804985 C76.17576996 313.10470073 76.17647548 316.92870856 76.17507935 320.75299072 C76.18586517 321.89594101 76.196651 323.0388913 76.20776367 324.21647644 C76.20363968 325.25416672 76.19951569 326.29185699 76.19526672 327.36099243 C76.1980321 328.26619314 76.20079748 329.17139385 76.20364666 330.10402489 C76.08182931 330.81914553 75.96001196 331.53426617 75.83450317 332.27105713 C72.20690588 334.68945533 69.55611054 334.5535599 65.36550903 334.52984619 C64.60750504 334.53335083 63.84950104 334.53685547 63.06852722 334.54046631 C60.56204075 334.54927178 58.05583629 334.54343931 55.54934692 334.53668213 C53.80964605 334.53802898 52.06994555 334.53996968 50.33024597 334.54248047 C46.68441178 334.54543001 43.03867559 334.54113904 39.39285278 334.53179932 C34.71286961 334.52039639 30.03311562 334.52697061 25.35314083 334.53894424 C21.76128909 334.54616023 18.16949198 334.54387628 14.57763863 334.53868866 C12.85160864 334.53735187 11.12557373 334.53900089 9.39954948 334.54364777 C6.99093291 334.54870966 4.58269132 334.54100813 2.17410278 334.52984619 C1.09792191 334.53591888 1.09792191 334.53591888 0 334.54211426 C-4.93696603 334.49958792 -4.93696603 334.49958792 -7.16549683 332.27105713 C-7.41619515 329.90899181 -7.41619515 329.90899181 -7.41717911 326.8768158 C-7.4223946 325.72454656 -7.4276101 324.57227732 -7.43298364 323.38509083 C-7.42852219 322.10826781 -7.42406075 320.8314448 -7.41946411 319.51593018 C-7.42176658 318.15444363 -7.42494166 316.79295832 -7.4289186 315.43147564 C-7.43730471 311.67730269 -7.43312413 307.92323079 -7.42694616 304.16905737 C-7.42243819 300.12538292 -7.42939717 296.08172637 -7.43490601 292.03805542 C-7.44381942 284.11140735 -7.44186935 276.18479706 -7.43608072 268.25814748 C-7.43157188 261.81846763 -7.43094795 255.3787984 -7.43312836 248.93911743 C-7.43343482 248.02409665 -7.43374129 247.10907586 -7.43405704 246.16632718 C-7.43469646 244.3077317 -7.43534489 242.44913623 -7.43600222 240.59054077 C-7.44171123 223.14476331 -7.4351387 205.69900685 -7.42440149 188.25323284 C-7.41546546 173.26990594 -7.41701735 158.28661003 -7.42623901 143.30328369 C-7.4369316 125.92177348 -7.44116185 108.54028169 -7.43501449 91.15876865 C-7.43437736 89.30684471 -7.43374862 87.45492077 -7.43312836 85.60299683 C-7.43281981 84.69171184 -7.43251125 83.78042685 -7.43219335 82.84152716 C-7.43046337 76.40636072 -7.43338803 69.97120591 -7.43808746 63.53604126 C-7.44368508 55.69834674 -7.44220354 47.86069229 -7.43152598 40.02300239 C-7.42625411 36.02079165 -7.42423813 32.01864784 -7.43082428 28.01643753 C-7.43675471 24.35746273 -7.43355715 20.69861732 -7.42286918 17.03965437 C-7.41955305 15.0787773 -7.42613202 13.11789134 -7.43298364 11.15702343 C-7.42776814 10.00475419 -7.42255265 8.85248495 -7.41717911 7.66529846 C-7.4168544 6.66468038 -7.4165297 5.66406229 -7.41619515 4.63312244 C-6.91017634 -0.13455788 -4.15549312 0.03579484 0 0 Z " fill="#FDFDFD" transform="translate(251.16549682617188,332.72894287109375)"/>
</svg>
