<svg version="1.1" id="Layer_1" xmlns:x="ns_extend;" xmlns:i="ns_ai;" xmlns:graph="ns_graphs;" xmlns="http://www.w3.org/2000/svg" xmlns:xlink="http://www.w3.org/1999/xlink" x="0px" y="0px" viewBox="0 0 49.8 56" style="enable-background:new 0 0 49.8 56;" xml:space="preserve">
 <style type="text/css">
  .st0{fill:#FFFFFF;}
 </style>
 <metadata>
  <sfw xmlns="ns_sfw;">
   <slices>
   </slices>
   <sliceSourceBounds bottomLeftOrigin="true" height="56" width="49.8" x="-172.3" y="38.6">
   </sliceSourceBounds>
  </sfw>
 </metadata>
 <desc>
  Created with Sketch.
 </desc>
 <g id="Final">
  <g id="Montserrat--Homepage" transform="translate(-63.000000, -54.000000)">
   <g id="LOGO" transform="translate(63.000000, 54.000000)">
    <path id="Fills" class="st0" d="M17.4,45.5v5c0,1-1.1,1.7-2.1,1.1L13,50.1l-0.6-0.3c0,0-3.2-1.9-10.2-5.9l-0.6-0.3
				c-0.5-0.3-1-0.8-1.3-1.3C0.2,41.8,0,41.2,0,40.6l0-12.3V15.9c0-0.7,0.2-1.3,0.5-1.8c0.3-0.6,0.8-1,1.3-1.3l10-5.8l0.5-0.3
				c0.2-0.1,0.2-0.1,0.6-0.3l9.6-5.5l0.6-0.3C23.7,0.1,24.4,0,25.1,0c0.7,0,1.3,0.2,1.7,0.6l10,5.8l0.6,0.3c0,0,3.4,1.9,10.1,5.9
				l0.6,0.3c0.5,0.3,1,0.8,1.3,1.3c0.3,0.5,0.5,1.1,0.5,1.8l0,11.2c0,1-1.1,1.7-2,1.2l-4.3-2.5c-0.4-0.2-0.7-0.7-0.7-1.2v-6.8
				L34,12.8c-0.1,0-0.2-0.1-0.7-0.4l-8.4-4.9l-8.7,5c-0.1,0.1-0.1,0.1-0.1,0.1c0,0-0.2,0.1-0.6,0.4L7,17.9v20.7l8.8,5.1
				c0.1,0,0.2,0.1,0.7,0.4l0.2,0.2l0.1,0.2C17.2,44.7,17.4,45.1,17.4,45.5z M42.8,32.8c0-1,1.1-1.7,2-1.2l4.3,2.5
				c0.4,0.2,0.7,0.7,0.7,1.2v4.1c0,0.4-0.1,0.7-0.4,0.9l-2,2.1c-0.8,1-1.9,1.4-2.9,0.8l-16-9.3l0,17.5c0.1,0.7-0.2,1.3-0.7,1.7
				c-0.5,0.4-0.5,0.4-3,2.4C24.4,55.8,24,56,23.5,56c-1.1,0-2-0.9-2-2l0-24.2l-2.7-1.6L17.4,29c-0.1,0,0,0-1.4,0.8
				c-1,0.6-2.2,0.3-2.7-0.7c-0.1-0.2-0.1-0.2-0.8-1.3l-0.8-1.3c-0.6-1-0.3-2.2,0.7-2.7c0.2-0.1,0.2-0.1,1.3-0.8l3.3-1.9l0.6-0.3
				c0.6-0.4,1.5-0.5,2.1-0.1l0.7,0.4L42.8,34V32.8z">
    </path>
   </g>
  </g>
 </g>
</svg>