<svg version="1.1" id="Layer_1" xmlns="http://www.w3.org/2000/svg" xmlns:xlink="http://www.w3.org/1999/xlink" x="0px" y="0px"
	 width="100%" viewBox="0 0 400 400" enable-background="new 0 0 400 400" xml:space="preserve">
<path fill="#01274C" opacity="1.000000" stroke="none" 
	d="
M255.000000,401.000000 
	C170.000000,401.000000 85.500000,401.000000 1.000000,401.000000 
	C1.000000,267.666656 1.000000,134.333328 1.000000,1.000000 
	C134.333328,1.000000 267.666656,1.000000 401.000000,1.000000 
	C401.000000,134.333328 401.000000,267.666656 401.000000,401.000000 
	C352.500000,401.000000 304.000000,401.000000 255.000000,401.000000 
M199.155472,247.850815 
	C199.155472,247.850815 199.240829,247.742432 199.271378,248.128830 
	C199.381088,248.403839 199.583389,248.529785 200.611847,248.819672 
	C200.877533,248.829117 201.143219,248.838577 201.370239,249.028290 
	C201.370239,249.028290 201.581482,249.017487 201.581482,249.017487 
	C201.581482,249.017487 201.508728,248.794495 201.652725,248.568695 
	C201.652725,248.568695 201.901611,248.469849 202.520447,248.501770 
	C202.966095,247.613571 203.411743,246.725388 203.928223,245.922760 
	C203.928223,245.922760 203.827194,245.876617 204.525009,245.790070 
	C206.006668,243.502274 207.488312,241.214478 208.993118,238.986603 
	C208.993118,238.986603 208.929214,238.993134 209.403870,238.714203 
	C209.556381,238.388229 209.708908,238.062256 209.864334,237.850403 
	C209.864334,237.850403 209.750214,237.849503 210.476654,237.783905 
	C211.484589,236.072205 212.492523,234.360504 213.529816,232.623703 
	C213.529816,232.623703 213.551163,232.591522 214.119507,232.397232 
	C214.395523,231.891190 214.671555,231.385147 214.955093,230.952988 
	C214.955093,230.952988 214.881073,230.959305 215.571487,230.862595 
	C218.054459,227.209900 220.537430,223.557205 223.121017,219.503662 
	C223.242783,219.237091 223.442169,219.055908 224.376205,218.800797 
	C224.715088,218.049011 225.053955,217.297241 225.480667,216.543976 
	C225.480667,216.543976 225.415939,216.484573 226.008316,216.305908 
	C226.281693,215.789978 226.555069,215.274048 226.837646,214.853043 
	C226.837646,214.853043 226.742432,214.858124 227.386215,214.708176 
	C227.741257,213.982040 228.096283,213.255905 228.997726,212.920746 
	C228.817291,212.787079 228.636871,212.653412 229.150757,212.423599 
	C229.778366,211.278458 230.405975,210.133301 231.043823,209.027908 
	C231.043823,209.027908 231.003342,209.034790 231.495270,208.822220 
	C231.644882,208.509857 231.794495,208.197479 231.946854,207.953949 
	C231.946854,207.953949 231.878418,207.946014 232.574005,207.832108 
	C233.341309,206.493469 234.108612,205.154831 234.884842,203.868790 
	C234.884842,203.868790 234.837387,203.840927 235.514313,203.783401 
	C237.338745,202.375534 239.163177,200.967682 241.214951,199.384384 
	C241.695923,200.602844 242.021545,201.049667 242.027908,201.500992 
	C242.114365,207.649673 242.203934,213.799088 242.192230,219.948120 
	C242.185135,223.680283 243.425293,228.791931 241.510300,230.763474 
	C239.518372,232.814255 234.337921,231.527161 230.682816,232.310913 
	C229.003098,232.671066 226.382553,234.430023 226.322754,235.658569 
	C225.757980,247.260788 225.609421,258.884949 225.482330,270.504333 
	C225.468979,271.724243 226.365402,272.954102 226.972595,274.736389 
	C227.023514,275.115875 227.074417,275.495361 227.002731,276.531250 
	C226.667267,277.811127 226.331787,279.091034 225.792511,281.148499 
	C229.417130,279.644867 232.239502,278.474030 235.839813,277.239441 
	C236.878189,277.256775 237.916580,277.274109 239.393433,277.884735 
	C245.331665,279.439972 251.246796,280.233246 257.974213,277.277435 
	C262.956757,277.293060 267.939301,277.308685 273.325195,277.901398 
	C278.646545,278.892670 283.933014,280.226074 289.299652,280.773010 
	C294.074402,281.259613 299.011230,281.361664 303.728485,280.650818 
	C305.802734,280.338257 307.584778,277.657349 309.264038,275.834839 
	C309.427124,275.657867 307.923706,273.945496 307.114471,272.020966 
	C307.151611,261.704437 307.188721,251.387909 307.711823,240.598953 
	C310.211365,237.060059 309.669495,233.849731 306.304291,230.436539 
	C301.509979,234.455566 301.239075,229.873260 300.180511,226.498901 
	C298.433624,227.207077 296.978729,227.796890 295.705780,228.312927 
	C294.055420,227.081055 292.622894,226.011749 291.147186,224.013580 
	C291.177277,208.367264 291.207367,192.720932 291.916046,176.921188 
	C293.469696,174.769592 295.023376,172.617981 297.036865,169.829559 
	C298.140503,171.755051 299.026733,173.301239 299.228699,173.653595 
	C301.541595,172.456619 303.731140,171.626205 305.563477,170.301605 
	C308.081879,168.481003 310.384674,166.343292 312.629578,164.185135 
	C312.936523,163.890045 312.562988,162.120895 312.191345,162.000443 
	C305.944336,159.975723 308.165436,154.765991 308.091278,150.696487 
	C307.964661,143.747238 307.807190,136.709732 308.747986,129.858337 
	C309.481720,124.514885 308.159882,121.223427 302.792267,121.132629 
	C297.169312,121.037514 291.538452,121.588814 285.907837,121.728157 
	C277.657410,121.932335 269.391388,121.797508 261.158112,122.266083 
	C257.712524,122.462189 254.333847,123.834572 250.310226,124.747322 
	C249.898743,124.727409 249.487259,124.707489 248.920166,124.017349 
	C247.096161,122.980316 245.272171,121.943275 243.444855,120.904350 
	C240.641129,126.306046 239.321564,131.867966 232.364380,131.685364 
	C231.735092,131.668839 230.704636,134.162384 230.481750,135.587433 
	C230.311798,136.674057 231.126205,137.914627 231.952042,140.485565 
	C229.203339,139.156189 227.645248,138.402634 225.205414,137.222626 
	C225.205414,141.203583 225.205414,144.577484 225.205414,147.951385 
	C224.661240,148.231140 224.117065,148.510880 223.572891,148.790634 
	C223.171631,147.511444 222.770355,146.232269 222.370163,144.956512 
	C219.015549,149.310654 216.382767,152.592514 213.952759,156.018188 
	C213.558075,156.574585 213.712234,158.149124 214.208099,158.604080 
	C216.961136,161.129929 215.012543,162.532516 213.452179,164.088928 
	C213.305923,163.598312 213.159683,163.107681 213.013443,162.617065 
	C210.535126,162.817001 208.056824,163.016922 205.578506,163.216843 
	C205.568619,163.663849 205.558731,164.110840 205.548828,164.557846 
	C207.003693,165.772690 208.458542,166.987549 210.974258,169.088257 
	C208.070786,169.088257 206.744705,169.088257 205.413834,169.088257 
	C205.474121,174.281281 203.491455,177.294205 200.336212,176.566452 
	C196.400772,175.658768 195.236267,172.818634 196.571182,169.083771 
	C195.089005,168.657013 193.871155,168.306366 191.564377,167.642197 
	C194.087570,166.522629 195.453415,165.916595 197.261642,165.114258 
	C193.699905,161.722260 190.198227,161.198669 186.144806,162.051285 
	C185.522476,159.035004 191.592239,152.332123 182.498199,154.487793 
	C180.794067,152.468872 179.133621,151.016708 178.134430,149.200714 
	C176.519089,146.264877 175.338562,143.089813 174.003067,139.995102 
	C174.003067,139.995102 174.028549,139.969986 174.512787,139.596100 
	C174.846863,138.384338 171.389633,129.893753 170.049240,129.268814 
	C169.020584,129.838440 167.813446,130.506897 165.991226,131.515961 
	C163.733200,128.535706 161.519333,125.613747 158.776138,121.993156 
	C157.229675,122.702644 155.076553,123.690453 152.114792,124.771179 
	C150.760147,124.731621 149.405502,124.692062 147.593979,124.080872 
	C141.062225,123.740669 134.530472,123.400467 127.239288,122.736549 
	C117.639923,122.193428 108.045570,121.444214 98.438683,121.211060 
	C94.722153,121.120857 92.320534,123.586174 91.980164,127.517769 
	C90.951675,139.397507 89.596535,151.230972 92.905884,163.067337 
	C95.515289,172.400238 96.308060,173.644196 103.231331,173.969589 
	C109.350708,174.257233 109.951172,174.823425 109.970955,181.110184 
	C110.013924,194.762314 110.012650,208.414795 109.951035,222.066788 
	C109.942352,223.990128 109.493095,225.911484 109.253670,227.787506 
	C105.550781,228.083221 102.119896,227.726120 99.209114,228.790833 
	C96.911018,229.631439 94.115189,231.900284 93.498901,234.086823 
	C90.081062,246.213135 90.495361,258.741730 91.294777,271.137573 
	C91.855003,279.824646 93.707237,281.080109 102.376839,280.936462 
	C112.176956,280.774048 121.972443,280.324005 131.769440,279.984283 
	C141.233627,279.656097 150.700089,279.368683 160.157639,278.902618 
	C161.487991,278.837067 162.773315,277.857605 164.901642,277.204956 
	C166.282013,277.225464 167.662399,277.246002 169.267761,277.371521 
	C169.267761,277.371521 169.634537,277.375610 169.634537,277.375610 
	C169.634537,277.375610 169.968445,277.218231 170.654144,277.211945 
	C171.111221,277.220581 171.568298,277.229218 172.246262,277.356628 
	C172.246262,277.356628 172.614243,277.392609 172.614243,277.392609 
	C172.614243,277.392609 172.966415,277.273468 173.643127,277.154205 
	C173.864944,277.097076 174.086746,277.039948 174.579544,276.684784 
	C174.752594,276.473511 174.893448,276.242554 175.155502,275.499359 
	C175.223923,275.341583 175.292343,275.183807 175.951096,274.651947 
	C176.580719,273.153076 177.794861,271.635803 177.748322,270.158264 
	C177.345078,257.361145 179.998993,244.397018 175.678650,231.466080 
	C177.174881,230.456116 178.733047,229.404343 180.291199,228.352554 
	C180.703674,228.598267 181.116135,228.843979 181.528595,229.089676 
	C180.855560,231.706223 180.182526,234.322769 179.509491,236.939316 
	C179.938309,237.180450 180.367126,237.421585 180.795944,237.662720 
	C182.257355,235.385483 183.718781,233.108246 185.791855,230.945023 
	C186.207718,230.965561 186.623581,230.986084 186.984512,231.007217 
	C186.984512,231.007217 187.004730,230.956131 186.940079,231.635468 
	C186.979904,232.088348 187.019714,232.541245 186.913132,233.226822 
	C186.869202,233.538239 187.006073,233.737366 187.923477,233.909698 
	C188.325348,233.910080 188.727203,233.910446 189.060959,233.957138 
	C189.060959,233.957138 189.084564,233.878220 189.106491,234.515182 
	C189.552994,234.930740 189.999496,235.346298 190.321777,235.740387 
	C190.321777,235.740387 190.440292,235.697418 190.133026,236.364517 
	C190.078720,236.602585 190.024399,236.840637 190.120728,237.627045 
	C190.472137,238.063385 190.823547,238.499710 191.840271,238.700760 
	C192.046036,238.586761 192.251785,238.472748 192.589233,238.396042 
	C192.589233,238.396042 192.567108,238.531113 192.612213,239.017624 
	C192.729187,239.349808 192.957855,239.560638 193.351730,239.664978 
	C193.351730,239.664978 193.352753,239.720505 193.433609,240.201126 
	C193.579300,240.520432 193.823364,240.718628 194.214508,240.810806 
	C194.214508,240.810806 194.212448,240.861740 194.117752,241.607422 
	C195.137009,242.704147 196.156250,243.800888 197.103912,244.898193 
	C197.103912,244.898193 197.108627,244.826752 197.175491,245.445374 
	C197.622482,245.830734 198.069473,246.216080 198.331848,246.752594 
	C198.331848,246.752594 198.478745,246.564545 198.532013,247.088928 
	C198.780136,247.320740 199.028259,247.552567 199.155472,247.850815 
M167.141006,286.119049 
	C166.607315,285.033386 166.073608,283.947723 165.539917,282.862061 
	C165.225800,282.961029 164.911697,283.059967 164.597595,283.158905 
	C164.872116,284.665955 165.146637,286.173035 165.421158,287.680084 
	C166.043076,287.356415 166.664993,287.032776 167.141006,286.119049 
M185.228378,237.898422 
	C185.173996,238.573090 185.119629,239.247772 185.065247,239.922424 
	C185.575928,239.801376 186.086624,239.680328 186.597321,239.559296 
	C186.300613,238.958969 186.003906,238.358658 185.228378,237.898422 
M175.845963,281.257568 
	C175.958725,281.101410 176.071487,280.945221 176.184250,280.789062 
	C176.019287,280.887512 175.854324,280.985962 175.845963,281.257568 
M181.501465,148.522629 
	C181.501465,148.522629 181.490646,148.488892 181.501465,148.522629 
z"/>
<path fill="#0D2939" opacity="1.000000" stroke="none" 
	d="
M164.079483,277.301208 
	C162.773315,277.857605 161.487991,278.837067 160.157639,278.902618 
	C150.700089,279.368683 141.233627,279.656097 131.769440,279.984283 
	C121.972443,280.324005 112.176956,280.774048 102.376839,280.936462 
	C93.707237,281.080109 91.855003,279.824646 91.294777,271.137573 
	C90.495361,258.741730 90.081062,246.213135 93.498901,234.086823 
	C94.115189,231.900284 96.911018,229.631439 99.209114,228.790833 
	C102.119896,227.726120 105.550781,228.083221 109.253670,227.787506 
	C109.493095,225.911484 109.942352,223.990128 109.951035,222.066788 
	C110.012650,208.414795 110.013924,194.762314 109.970955,181.110184 
	C109.951172,174.823425 109.350708,174.257233 103.231331,173.969589 
	C96.308060,173.644196 95.515289,172.400238 92.905884,163.067337 
	C89.596535,151.230972 90.951675,139.397507 91.980164,127.517769 
	C92.320534,123.586174 94.722153,121.120857 98.438683,121.211060 
	C108.045570,121.444214 117.639923,122.193428 127.606361,123.197266 
	C127.964714,123.857719 127.955986,124.057457 127.521385,124.262604 
	C121.010048,124.498009 114.922180,124.678467 108.840012,124.975761 
	C104.931000,125.166832 101.030388,125.529808 96.826309,126.138672 
	C96.526604,140.160965 96.526604,153.860321 96.526604,168.005508 
	C101.338707,168.005508 105.927025,168.005508 110.912804,168.212585 
	C111.562088,169.179947 112.030441,169.939224 112.034103,170.700714 
	C112.129578,190.564743 112.207748,210.429108 112.157768,230.293076 
	C112.154678,231.520905 111.077187,232.746048 110.077110,233.858032 
	C105.372139,233.743622 101.089638,233.743622 96.682220,233.743622 
	C96.462914,235.012680 96.209297,235.803055 96.207153,236.594116 
	C96.174324,248.727249 96.149315,260.860565 96.210159,272.993439 
	C96.215492,274.056641 96.834114,275.116791 97.509766,276.378204 
	C99.993759,276.730957 102.135109,277.004944 104.278038,277.017822 
	C124.211700,277.137909 144.145630,277.213043 164.079483,277.301208 
z"/>
<path fill="#0F293A" opacity="1.000000" stroke="none" 
	d="
M186.259918,162.792053 
	C190.198227,161.198669 193.699905,161.722260 197.261642,165.114258 
	C195.453415,165.916595 194.087570,166.522629 191.564377,167.642197 
	C193.871155,168.306366 195.089005,168.657013 196.571182,169.083771 
	C195.236267,172.818634 196.400772,175.658768 200.336212,176.566452 
	C203.491455,177.294205 205.474121,174.281281 205.413834,169.088257 
	C206.744705,169.088257 208.070786,169.088257 210.974258,169.088257 
	C208.458542,166.987549 207.003693,165.772690 205.548828,164.557846 
	C205.558731,164.110840 205.568619,163.663849 205.578506,163.216843 
	C208.056824,163.016922 210.535126,162.817001 213.013443,162.617065 
	C213.159683,163.107681 213.305923,163.598312 213.452179,164.088928 
	C215.012543,162.532516 216.961136,161.129929 214.208099,158.604080 
	C213.712234,158.149124 213.558075,156.574585 213.952759,156.018188 
	C216.382767,152.592514 219.015549,149.310654 222.370163,144.956512 
	C222.770355,146.232269 223.171631,147.511444 223.572891,148.790634 
	C224.117065,148.510880 224.661240,148.231140 225.205414,147.951385 
	C225.205414,144.577484 225.205414,141.203583 225.205414,137.222626 
	C227.645248,138.402634 229.203339,139.156189 231.952042,140.485565 
	C231.126205,137.914627 230.311798,136.674057 230.481750,135.587433 
	C230.704636,134.162384 231.735092,131.668839 232.364380,131.685364 
	C239.321564,131.867966 240.641129,126.306046 243.444855,120.904350 
	C245.272171,121.943275 247.096161,122.980316 248.612091,124.425873 
	C246.838867,125.204086 245.373734,125.573769 243.726425,126.123795 
	C243.431656,126.620964 243.319046,126.937798 242.947327,127.464493 
	C228.945129,146.610794 215.202042,165.547226 201.242615,184.781754 
	C196.284302,178.521301 191.697754,172.730240 187.019196,166.678558 
	C186.638107,166.204071 186.349030,165.990204 186.080490,165.465210 
	C185.938873,164.549286 185.776688,163.944473 185.774811,163.201538 
	C185.935104,163.063385 186.259918,162.792053 186.259918,162.792053 
z"/>
<path fill="#0D2939" opacity="1.000000" stroke="none" 
	d="
M185.180176,230.830994 
	C183.718781,233.108246 182.257355,235.385483 180.795944,237.662720 
	C180.367126,237.421585 179.938309,237.180450 179.509491,236.939316 
	C180.182526,234.322769 180.855560,231.706223 181.528595,229.089676 
	C181.116135,228.843979 180.703674,228.598267 180.291199,228.352554 
	C178.733047,229.404343 177.174881,230.456116 175.678650,231.466080 
	C179.998993,244.397018 177.345078,257.361145 177.748322,270.158264 
	C177.794861,271.635803 176.580719,273.153076 175.540375,274.601379 
	C175.051407,274.393158 174.973190,274.235504 174.970703,273.605164 
	C175.046432,260.086792 175.046432,247.041107 175.046432,233.982849 
	C173.316818,233.880280 172.325134,233.761566 171.335007,233.773315 
	C167.352890,233.820572 163.371246,233.908142 159.057297,233.700806 
	C158.535141,230.145309 158.204269,226.870834 158.181290,223.594193 
	C158.109818,213.405258 158.155106,203.215485 158.155106,193.026047 
	C158.576645,192.889755 158.998199,192.753448 159.419739,192.617157 
	C164.668900,199.969177 169.918076,207.321213 175.188416,214.985413 
	C175.682922,215.962509 176.156265,216.627426 176.755920,217.593536 
	C177.515793,218.423416 178.149353,218.952133 178.896835,219.606461 
	C179.010757,219.732071 179.094955,220.060593 179.115845,220.372543 
	C179.816391,221.433548 180.496063,222.182602 181.126984,222.926239 
	C181.078217,222.920822 181.091110,222.823563 181.166962,223.073792 
	C181.492676,223.558884 181.742523,223.793762 181.984650,224.023376 
	C181.976944,224.018097 181.971664,224.000137 182.018753,224.275345 
	C182.449692,224.912476 182.833527,225.274414 183.295624,225.660385 
	C183.373856,225.684433 183.380875,225.847992 183.388275,226.126038 
	C183.783752,226.765091 184.171860,227.126114 184.592682,227.496506 
	C184.625412,227.505875 184.621552,227.573853 184.553345,227.907990 
	C184.716827,229.105087 184.948502,229.968033 185.180176,230.830994 
M176.230896,222.876328 
	C174.077499,220.274460 169.960266,217.479782 170.192719,215.112152 
	C170.632980,210.628021 168.506454,208.734421 165.795395,206.561615 
	C163.142593,204.435501 161.093399,205.492706 160.852173,208.411407 
	C160.507660,212.579224 160.995316,216.815811 161.127563,221.023026 
	C161.381058,220.977509 161.634567,220.932007 161.888062,220.886490 
	C161.236633,223.786041 160.585220,226.685608 159.949326,229.515976 
	C164.539261,229.913864 168.397629,230.248337 173.571426,230.696823 
	C174.494308,228.670547 175.777222,225.853775 177.261490,222.822205 
	C177.262421,222.620880 177.263367,222.419571 177.264297,222.218246 
	C177.154221,222.456345 177.044144,222.694443 176.230896,222.876328 
z"/>
<path fill="#0F293A" opacity="1.000000" stroke="none" 
	d="
M250.924759,124.672150 
	C254.333847,123.834572 257.712524,122.462189 261.158112,122.266083 
	C269.391388,121.797508 277.657410,121.932335 285.907837,121.728157 
	C291.538452,121.588814 297.169312,121.037514 302.792267,121.132629 
	C308.159882,121.223427 309.481720,124.514885 308.747986,129.858337 
	C307.807190,136.709732 307.964661,143.747238 308.091278,150.696487 
	C308.165436,154.765991 305.944336,159.975723 312.191345,162.000443 
	C312.562988,162.120895 312.936523,163.890045 312.629578,164.185135 
	C310.384674,166.343292 308.081879,168.481003 305.563477,170.301605 
	C303.731140,171.626205 301.541595,172.456619 299.228699,173.653595 
	C299.026733,173.301239 298.140503,171.755051 297.036865,169.829559 
	C295.023376,172.617981 293.469696,174.769592 291.516418,176.560730 
	C291.013184,169.237839 291.106964,169.208450 298.204437,169.031693 
	C300.450684,168.975754 302.686096,168.482391 305.224579,167.867538 
	C305.634369,154.349319 305.761871,141.152847 305.814301,127.956078 
	C305.817139,127.242226 305.191254,126.525879 304.507385,125.613541 
	C302.015991,125.263626 299.876221,124.994530 297.734314,124.976692 
	C282.131348,124.846802 266.527985,124.767464 250.924759,124.672150 
z"/>
<path fill="#E8C52C" opacity="1.000000" stroke="none" 
	d="
M201.408905,248.848022 
	C201.143219,248.838577 200.877533,248.829117 200.238403,248.476593 
	C199.741760,247.868484 199.533722,247.738129 199.240829,247.742432 
	C199.240829,247.742432 199.155472,247.850815 199.164322,247.568970 
	C198.941696,247.046280 198.710220,246.805405 198.478745,246.564545 
	C198.478745,246.564545 198.331848,246.752594 198.338928,246.390198 
	C197.933548,245.627472 197.521088,245.227112 197.108627,244.826752 
	C197.108627,244.826752 197.103912,244.898193 197.055695,244.585175 
	C196.075806,243.135361 195.144119,241.998550 194.212448,240.861740 
	C194.212448,240.861740 194.214508,240.810806 194.151642,240.562775 
	C193.950974,239.983551 193.705643,239.785461 193.352753,239.720505 
	C193.352753,239.720505 193.351730,239.664978 193.289719,239.426010 
	C193.107101,238.868256 192.886902,238.649612 192.567108,238.531113 
	C192.567108,238.531113 192.589233,238.396042 192.458725,238.120483 
	C191.969177,237.480026 191.610138,237.115143 191.245453,236.768509 
	C191.239792,236.786774 191.241486,236.760284 191.203445,236.521576 
	C191.031769,235.953873 190.790054,235.758713 190.440292,235.697418 
	C190.440292,235.697418 190.321777,235.740387 190.322250,235.445099 
	C189.910004,234.725937 189.497284,234.302078 189.084564,233.878220 
	C189.084564,233.878220 189.060959,233.957138 189.055130,233.620728 
	C188.367767,232.508255 187.686249,231.732193 187.004730,230.956131 
	C187.004730,230.956131 186.984512,231.007217 186.955612,230.703842 
	C186.158325,229.458267 185.389938,228.516052 184.621552,227.573853 
	C184.621552,227.573853 184.625412,227.505875 184.504089,227.247375 
	C184.048813,226.608597 183.714844,226.228287 183.380875,225.847992 
	C183.380875,225.847992 183.373856,225.684433 183.242355,225.399200 
	C182.731125,224.742676 182.351395,224.371414 181.971664,224.000137 
	C181.971664,224.000137 181.976944,224.018097 181.933701,223.758728 
	C181.624008,223.274094 181.357559,223.048828 181.091110,222.823563 
	C181.091110,222.823563 181.078217,222.920822 181.084442,222.639923 
	C180.953827,221.999542 180.816986,221.640030 180.826996,221.145050 
	C180.973862,221.009567 181.265396,220.736282 181.538696,220.807892 
	C182.183441,220.944901 182.554901,221.010300 183.044281,221.340363 
	C185.534470,221.030090 187.906723,220.455154 190.959854,219.715210 
	C190.254517,221.206085 189.931870,222.095352 189.437729,222.876068 
	C188.910873,223.708466 188.005356,224.349396 187.644196,225.229462 
	C186.541565,227.916336 189.009109,229.935333 192.729279,229.051056 
	C193.284561,231.230072 193.587952,233.531662 194.472336,235.582733 
	C195.379929,237.687607 196.855469,239.547607 198.725372,242.545547 
	C199.391617,239.514221 199.734222,237.955353 200.076843,236.396484 
	C200.448349,236.348129 200.819855,236.299759 201.191360,236.251404 
	C201.881744,237.679123 202.572113,239.106842 203.690659,241.420059 
	C206.122208,236.499313 208.224594,232.244736 210.436615,227.768250 
	C211.613052,228.027771 213.161728,228.369400 214.873047,228.862503 
	C215.035706,229.013962 215.361267,229.316620 215.267914,229.588715 
	C215.076721,230.226974 214.978897,230.593140 214.881073,230.959305 
	C214.881073,230.959305 214.955093,230.952988 214.688049,231.039398 
	C214.131058,231.614380 213.841095,232.102951 213.551147,232.591522 
	C213.551163,232.591522 213.529816,232.623703 213.261841,232.831085 
	C211.912659,234.642151 210.831436,236.245834 209.750214,237.849503 
	C209.750214,237.849503 209.864334,237.850403 209.603714,237.911072 
	C209.205139,238.312225 209.067184,238.652679 208.929230,238.993134 
	C208.929214,238.993134 208.993118,238.986603 208.695847,239.131302 
	C206.874786,241.476212 205.350983,243.676407 203.827194,245.876617 
	C203.827194,245.876617 203.928223,245.922760 203.628540,246.005569 
	C202.853119,246.882202 202.377365,247.676025 201.901611,248.469849 
	C201.901611,248.469849 201.652725,248.568695 201.532333,248.648834 
	C201.411942,248.728973 201.408905,248.848022 201.408905,248.848022 
z"/>
<path fill="#34380D" opacity="1.000000" stroke="none" 
	d="
M226.839722,274.179352 
	C226.365402,272.954102 225.468979,271.724243 225.482330,270.504333 
	C225.609421,258.884949 225.757980,247.260788 226.322754,235.658569 
	C226.382553,234.430023 229.003098,232.671066 230.682816,232.310913 
	C234.337921,231.527161 239.518372,232.814255 241.510300,230.763474 
	C243.425293,228.791931 242.185135,223.680283 242.192230,219.948120 
	C242.203934,213.799088 242.114365,207.649673 242.027908,201.500992 
	C242.021545,201.049667 241.695923,200.602844 241.214951,199.384384 
	C239.163177,200.967682 237.338745,202.375534 235.271179,203.441620 
	C235.005951,202.374054 234.983856,201.648270 235.062683,200.688721 
	C235.441986,200.264481 235.720352,200.074005 236.316010,199.860382 
	C237.112869,199.189011 237.592422,198.540802 238.254089,197.654266 
	C239.272034,196.307968 240.107849,195.199997 241.042175,193.859329 
	C241.139877,193.458130 241.139084,193.289658 241.093994,193.068604 
	C241.049698,193.016006 241.112747,193.138062 241.427750,193.133514 
	C242.484268,192.768845 243.225784,192.408722 243.983032,192.434479 
	C244.067963,193.846817 244.137177,194.873260 244.143677,196.376251 
	C244.159180,208.867920 244.237381,220.883057 244.083054,233.154404 
	C243.196884,233.614960 242.543259,233.819290 241.442276,233.937012 
	C237.358826,233.837463 233.716705,233.706146 230.090698,233.891006 
	C229.129456,233.940018 228.217773,234.961487 227.252625,235.741302 
	C227.197372,236.221481 227.224609,236.491577 227.202072,237.230896 
	C227.013580,249.863358 226.926651,262.021362 226.839722,274.179352 
z"/>
<path fill="#0F293A" opacity="1.000000" stroke="none" 
	d="
M173.974411,140.015778 
	C175.338562,143.089813 176.519089,146.264877 178.134430,149.200714 
	C179.133621,151.016708 180.794067,152.468872 182.498199,154.487793 
	C191.592239,152.332123 185.522476,159.035004 186.202362,162.421661 
	C186.259918,162.792053 185.935104,163.063385 185.507446,163.001678 
	C176.325241,150.987061 167.570694,139.034180 158.795990,126.841385 
	C158.603500,126.326019 158.383347,126.096359 157.800049,125.695648 
	C155.964264,125.211937 154.443848,124.945099 152.923416,124.678261 
	C155.076553,123.690453 157.229675,122.702644 158.776138,121.993156 
	C161.519333,125.613747 163.733200,128.535706 165.991226,131.515961 
	C167.813446,130.506897 169.020584,129.838440 170.049240,129.268814 
	C171.389633,129.893753 174.846863,138.384338 174.244293,139.639191 
	C173.826599,139.576141 173.677368,139.470032 173.528152,139.363907 
	C173.676910,139.581192 173.825653,139.798492 173.974411,140.015778 
z"/>
<path fill="#C4B452" opacity="1.000000" stroke="none" 
	d="
M226.906158,274.457886 
	C226.926651,262.021362 227.013580,249.863358 227.350815,237.640488 
	C227.718246,239.565292 227.907883,241.553787 227.940262,243.544830 
	C228.105255,253.692169 228.229584,263.840149 228.647263,274.215881 
	C230.976868,274.488586 233.027359,274.533325 235.382996,274.589844 
	C236.094360,274.578583 236.500580,274.555511 237.268890,274.592865 
	C238.117950,274.621735 238.604935,274.590210 239.549713,274.616669 
	C245.610657,274.712982 251.213806,274.751312 257.163269,274.815430 
	C257.740753,274.829926 257.971985,274.818573 258.658997,274.801361 
	C262.909027,274.802673 266.704315,274.868469 270.497437,274.805878 
	C281.033844,274.632080 291.569397,274.404846 302.391693,274.155579 
	C303.183350,273.842804 303.688568,273.573151 304.369781,272.910797 
	C304.673920,265.771545 304.940063,259.023895 304.885040,252.278854 
	C304.843781,247.218811 304.389435,242.162125 304.051575,236.759750 
	C303.895966,235.955978 303.807800,235.496414 303.836914,234.748260 
	C303.979767,234.253616 304.005402,234.047562 304.346832,233.911346 
	C305.117889,234.389145 305.573151,234.797089 305.943054,235.646133 
	C305.909607,248.665619 305.961517,261.244019 305.959259,274.169495 
	C305.525513,275.079895 305.145905,275.643219 304.322998,276.147949 
	C297.590424,276.124847 291.301208,276.160339 284.565247,276.132690 
	C281.408417,276.111603 278.698273,276.153595 275.522919,276.142273 
	C259.412537,276.099274 243.767395,276.109589 227.881165,276.025452 
	C227.468491,275.912292 227.296906,275.893555 227.125336,275.874847 
	C227.074417,275.495361 227.023514,275.115875 226.906158,274.457886 
z"/>
<path fill="#C7B85D" opacity="1.000000" stroke="none" 
	d="
M174.894958,274.077850 
	C174.973190,274.235504 175.051407,274.393158 175.245209,274.788422 
	C175.292343,275.183807 175.223923,275.341583 174.854538,275.770264 
	C174.553574,276.041138 174.130844,276.198700 173.657944,276.133606 
	C147.845993,276.105133 122.506935,276.141754 97.167877,276.178345 
	C96.834114,275.116791 96.215492,274.056641 96.210159,272.993439 
	C96.149315,260.860565 96.174324,248.727249 96.207153,236.594116 
	C96.209297,235.803055 96.462914,235.012680 96.682220,233.743622 
	C101.089638,233.743622 105.372139,233.743622 110.194534,234.081940 
	C110.797852,234.576111 110.861282,234.731964 110.612206,234.934204 
	C109.880249,235.022324 109.460785,235.064041 108.768440,235.089233 
	C108.314468,235.093307 108.133377,235.113937 107.515778,235.121368 
	C104.752617,235.132050 102.425972,235.155960 99.713303,235.208145 
	C98.573936,236.725281 97.286827,238.173660 97.170235,239.710815 
	C96.856628,243.845627 96.942444,248.021011 97.053223,252.175415 
	C97.238289,259.116333 97.566147,266.053436 97.835800,273.033325 
	C97.837692,273.074493 97.910027,273.114075 98.079025,273.454773 
	C101.532036,274.058411 104.816032,274.321350 108.559914,274.627472 
	C127.311417,274.642792 145.603043,274.614899 164.339050,274.683472 
	C167.892502,274.529510 171.001556,274.279083 174.306946,274.037048 
	C174.503265,274.045410 174.894958,274.077850 174.894958,274.077850 
z"/>
<path fill="#0F293A" opacity="1.000000" stroke="none" 
	d="
M304.766327,276.206543 
	C305.145905,275.643219 305.525513,275.079895 306.171082,274.048096 
	C306.696289,273.376526 306.948547,273.165283 307.193878,272.945831 
	C307.923706,273.945496 309.427124,275.657867 309.264038,275.834839 
	C307.584778,277.657349 305.802734,280.338257 303.728485,280.650818 
	C299.011230,281.361664 294.074402,281.259613 289.299652,280.773010 
	C283.933014,280.226074 278.646545,278.892670 273.505737,277.532471 
	C274.462311,277.097687 275.238342,277.031860 276.460999,276.981934 
	C279.600372,276.987213 282.293060,276.976562 285.454651,276.985229 
	C292.204468,276.738525 298.485413,276.472534 304.766327,276.206543 
z"/>
<path fill="#34380D" opacity="1.000000" stroke="none" 
	d="
M304.031067,233.841492 
	C304.005402,234.047562 303.979767,234.253616 303.403198,234.701355 
	C300.112244,234.932129 297.346802,235.141434 294.641602,234.829056 
	C292.977539,234.636917 291.405548,233.647598 289.852417,232.549484 
	C289.871735,211.017578 289.830841,189.952423 289.956329,168.654190 
	C290.448975,168.226639 290.775208,168.032150 291.554199,167.913147 
	C296.313446,168.055511 300.619934,168.122375 304.926453,168.189240 
	C302.686096,168.482391 300.450684,168.975754 298.204437,169.031693 
	C291.106964,169.208450 291.013184,169.237839 291.177124,176.637436 
	C291.207367,192.720932 291.177277,208.367264 291.111633,224.912689 
	C291.087402,232.667953 291.214783,232.733398 297.811310,232.937958 
	C299.891907,233.002472 301.958221,233.527313 304.031067,233.841492 
z"/>
<path fill="#0F293A" opacity="1.000000" stroke="none" 
	d="
M304.346832,233.911346 
	C301.958221,233.527313 299.891907,233.002472 297.811310,232.937958 
	C291.214783,232.733398 291.087402,232.667953 291.133240,225.377136 
	C292.622894,226.011749 294.055420,227.081055 295.705780,228.312927 
	C296.978729,227.796890 298.433624,227.207077 300.180511,226.498901 
	C301.239075,229.873260 301.509979,234.455566 306.304291,230.436539 
	C309.669495,233.849731 310.211365,237.060059 307.402283,240.443756 
	C306.737976,238.594055 306.383179,236.899551 306.028412,235.205048 
	C305.573151,234.797089 305.117889,234.389145 304.346832,233.911346 
z"/>
<path fill="#E8C52C" opacity="1.000000" stroke="none" 
	d="
M234.961761,200.922485 
	C234.983856,201.648270 235.005951,202.374054 234.932709,203.470383 
	C234.837387,203.840927 234.884842,203.868790 234.588989,203.994141 
	C233.488235,205.395004 232.683334,206.670502 231.878418,207.946014 
	C231.878418,207.946014 231.946854,207.953949 231.684113,208.006683 
	C231.282013,208.384552 231.142670,208.709671 231.003342,209.034790 
	C231.003342,209.034790 231.043823,209.027908 230.757736,209.157288 
	C229.799911,210.364365 229.128189,211.442047 228.456451,212.519745 
	C228.636871,212.653412 228.817291,212.787079 228.461197,212.874130 
	C227.530594,213.504395 227.136520,214.181259 226.742432,214.858124 
	C226.742432,214.858124 226.837646,214.853043 226.564697,214.919327 
	C225.999817,215.485260 225.707886,215.984924 225.415955,216.484589 
	C225.415939,216.484573 225.480667,216.543976 225.194611,216.728851 
	C224.512070,217.595856 224.115616,218.277985 223.719147,218.960114 
	C223.442169,219.055908 223.242783,219.237091 222.785477,219.893173 
	C220.087036,223.293991 217.724152,226.305298 215.361267,229.316620 
	C215.361267,229.316620 215.035706,229.013962 214.945450,228.492096 
	C216.569809,225.312851 218.284424,222.655457 220.232330,219.780243 
	C221.647614,218.053909 222.829620,216.545380 224.166794,214.711090 
	C227.868561,209.897720 231.415161,205.410110 234.961761,200.922485 
z"/>
<path fill="#2C2F0A" opacity="1.000000" stroke="none" 
	d="
M97.509773,276.378235 
	C122.506935,276.141754 147.845993,276.105133 173.692719,276.331726 
	C174.200378,276.594910 174.308563,276.982819 174.308563,276.982819 
	C174.086746,277.039948 173.864944,277.097076 173.070770,277.184387 
	C172.498398,277.214600 172.025375,277.237854 172.025375,277.237854 
	C171.568298,277.229218 171.111221,277.220581 170.079346,277.206238 
	C169.504547,277.200531 169.042770,277.266541 169.042770,277.266541 
	C167.662399,277.246002 166.282013,277.225464 164.490570,277.253082 
	C144.145630,277.213043 124.211700,277.137909 104.278038,277.017822 
	C102.135109,277.004944 99.993759,276.730957 97.509773,276.378235 
z"/>
<path fill="#2C2F0A" opacity="1.000000" stroke="none" 
	d="
M152.519104,124.724716 
	C154.443848,124.945099 155.964264,125.211937 157.319397,125.711327 
	C137.144745,125.901161 117.135384,125.858444 97.126015,125.815727 
	C101.030388,125.529808 104.931000,125.166832 108.840012,124.975761 
	C114.922180,124.678467 121.010048,124.498009 127.900360,124.415894 
	C135.153763,124.593346 141.602310,124.622925 148.050858,124.652504 
	C149.405502,124.692062 150.760147,124.731621 152.519104,124.724716 
z"/>
<path fill="#2C2F0A" opacity="1.000000" stroke="none" 
	d="
M250.617493,124.709732 
	C266.527985,124.767464 282.131348,124.846802 297.734314,124.976692 
	C299.876221,124.994530 302.015991,125.263626 304.056885,125.666779 
	C283.940857,125.925926 263.924713,125.934685 243.908600,125.943451 
	C245.373734,125.573769 246.838867,125.204086 248.689880,124.760986 
	C249.487259,124.707489 249.898743,124.727409 250.617493,124.709732 
z"/>
<path fill="#2C2F0A" opacity="1.000000" stroke="none" 
	d="
M276.014343,276.966003 
	C275.238342,277.031860 274.462311,277.097687 273.304077,277.243896 
	C267.939301,277.308685 262.956757,277.293060 257.046692,277.234436 
	C250.397766,277.224762 244.676361,277.258118 238.954956,277.291443 
	C237.916580,277.274109 236.878189,277.256775 235.043915,277.195557 
	C232.206085,276.807770 230.164154,276.463837 228.122238,276.119904 
	C243.767395,276.109589 259.412537,276.099274 275.529327,276.334900 
	C276.000946,276.580811 276.014343,276.966003 276.014343,276.966003 
z"/>
<path fill="#0F293A" opacity="1.000000" stroke="none" 
	d="
M147.822418,124.366684 
	C141.602310,124.622925 135.153763,124.593346 128.326233,124.410477 
	C127.955986,124.057457 127.964714,123.857719 127.986076,123.359116 
	C134.530472,123.400467 141.062225,123.740669 147.822418,124.366684 
z"/>
<path fill="#34380D" opacity="1.000000" stroke="none" 
	d="
M305.943054,235.646133 
	C306.383179,236.899551 306.737976,238.594055 307.159302,240.679962 
	C307.188721,251.387909 307.151611,261.704437 307.154175,272.483398 
	C306.948547,273.165283 306.696289,273.376526 306.225281,273.700989 
	C305.961517,261.244019 305.909607,248.665619 305.943054,235.646133 
z"/>
<path fill="#0F293A" opacity="1.000000" stroke="none" 
	d="
M239.174194,277.588104 
	C244.676361,277.258118 250.397766,277.224762 256.584839,277.270477 
	C251.246796,280.233246 245.331665,279.439972 239.174194,277.588104 
z"/>
<path fill="#34380D" opacity="1.000000" stroke="none" 
	d="
M215.267914,229.588715 
	C217.724152,226.305298 220.087036,223.293991 222.735168,220.093597 
	C220.537430,223.557205 218.054459,227.209900 215.226273,230.910950 
	C214.978897,230.593140 215.076721,230.226974 215.267914,229.588715 
z"/>
<path fill="#0F293A" opacity="1.000000" stroke="none" 
	d="
M227.881165,276.025452 
	C230.164154,276.463837 232.206085,276.807770 234.654938,277.227448 
	C232.239502,278.474030 229.417130,279.644867 225.792511,281.148499 
	C226.331787,279.091034 226.667267,277.811127 227.064026,276.203064 
	C227.296906,275.893555 227.468491,275.912292 227.881165,276.025452 
z"/>
<path fill="#0D2939" opacity="1.000000" stroke="none" 
	d="
M167.213959,286.414062 
	C166.664993,287.032776 166.043076,287.356415 165.421158,287.680084 
	C165.146637,286.173035 164.872116,284.665955 164.597595,283.158905 
	C164.911697,283.059967 165.225800,282.961029 165.539917,282.862061 
	C166.073608,283.947723 166.607315,285.033386 167.213959,286.414062 
z"/>
<path fill="#34380D" opacity="1.000000" stroke="none" 
	d="
M204.176102,245.833344 
	C205.350983,243.676407 206.874786,241.476212 208.684265,239.101334 
	C207.488312,241.214478 206.006668,243.502274 204.176102,245.833344 
z"/>
<path fill="#34380D" opacity="1.000000" stroke="none" 
	d="
M210.113434,237.816711 
	C210.831436,236.245834 211.912659,234.642151 213.247177,232.843628 
	C212.492523,234.360504 211.484589,236.072205 210.113434,237.816711 
z"/>
<path fill="#0D2939" opacity="1.000000" stroke="none" 
	d="
M185.467789,237.828369 
	C186.003906,238.358658 186.300613,238.958969 186.597321,239.559296 
	C186.086624,239.680328 185.575928,239.801376 185.065247,239.922424 
	C185.119629,239.247772 185.173996,238.573090 185.467789,237.828369 
z"/>
<path fill="#34380D" opacity="1.000000" stroke="none" 
	d="
M194.165100,241.234589 
	C195.144119,241.998550 196.075806,243.135361 197.091492,244.584900 
	C196.156250,243.800888 195.137009,242.704147 194.165100,241.234589 
z"/>
<path fill="#34380D" opacity="1.000000" stroke="none" 
	d="
M232.226212,207.889069 
	C232.683334,206.670502 233.488235,205.395004 234.584534,203.967834 
	C234.108612,205.154831 233.341309,206.493469 232.226212,207.889069 
z"/>
<path fill="#34380D" opacity="1.000000" stroke="none" 
	d="
M228.803604,212.471680 
	C229.128189,211.442047 229.799911,210.364365 230.752625,209.137405 
	C230.405975,210.133301 229.778366,211.278458 228.803604,212.471680 
z"/>
<path fill="#34380D" opacity="1.000000" stroke="none" 
	d="
M184.553345,227.907990 
	C185.389938,228.516052 186.158325,229.458267 186.983078,230.703537 
	C186.623581,230.986084 186.207718,230.965561 185.486023,230.888000 
	C184.948502,229.968033 184.716827,229.105087 184.553345,227.907990 
z"/>
<path fill="#34380D" opacity="1.000000" stroke="none" 
	d="
M202.211029,248.485809 
	C202.377365,247.676025 202.853119,246.882202 203.593124,245.962799 
	C203.411743,246.725388 202.966095,247.613571 202.211029,248.485809 
z"/>
<path fill="#34380D" opacity="1.000000" stroke="none" 
	d="
M227.064331,214.783142 
	C227.136520,214.181259 227.530594,213.504395 228.187988,212.678650 
	C228.096283,213.255905 227.741257,213.982040 227.064331,214.783142 
z"/>
<path fill="#34380D" opacity="1.000000" stroke="none" 
	d="
M186.972412,231.295807 
	C187.686249,231.732193 188.367767,232.508255 189.089188,233.597565 
	C188.727203,233.910446 188.325348,233.910080 187.564178,233.657288 
	C187.204865,233.404892 187.059525,232.994125 187.059525,232.994125 
	C187.019714,232.541245 186.979904,232.088348 186.972412,231.295807 
z"/>
<path fill="#34380D" opacity="1.000000" stroke="none" 
	d="
M224.047668,218.880463 
	C224.115616,218.277985 224.512070,217.595856 225.150681,216.729584 
	C225.053955,217.297241 224.715088,218.049011 224.047668,218.880463 
z"/>
<path fill="#0D2939" opacity="1.000000" stroke="none" 
	d="
M175.767654,281.170990 
	C175.854324,280.985962 176.019287,280.887512 176.184250,280.789062 
	C176.071487,280.945221 175.958725,281.101410 175.767654,281.170990 
z"/>
<path fill="#34380D" opacity="1.000000" stroke="none" 
	d="
M197.142059,245.136063 
	C197.521088,245.227112 197.933548,245.627472 198.431244,246.314621 
	C198.069473,246.216080 197.622482,245.830734 197.142059,245.136063 
z"/>
<path fill="#34380D" opacity="1.000000" stroke="none" 
	d="
M191.251099,236.750244 
	C191.610138,237.115143 191.969177,237.480026 192.392883,238.101837 
	C192.251785,238.472748 192.046036,238.586761 191.493027,238.453476 
	C191.180893,237.720871 191.216003,237.235565 191.251099,236.750244 
z"/>
<path fill="#34380D" opacity="1.000000" stroke="none" 
	d="
M213.835327,232.494370 
	C213.841095,232.102951 214.131058,231.614380 214.684296,231.002441 
	C214.671555,231.385147 214.395523,231.891190 213.835327,232.494370 
z"/>
<path fill="#0D2939" opacity="1.000000" stroke="none" 
	d="
M191.245453,236.768509 
	C191.216003,237.235565 191.180893,237.720871 191.160370,238.571121 
	C190.823547,238.499710 190.472137,238.063385 190.365967,237.282730 
	C190.821320,236.879044 191.031403,236.819656 191.241486,236.760284 
	C191.241486,236.760284 191.239792,236.786774 191.245453,236.768509 
z"/>
<path fill="#34380D" opacity="1.000000" stroke="none" 
	d="
M225.712128,216.395248 
	C225.707886,215.984924 225.999817,215.485260 226.560089,214.871857 
	C226.555069,215.274048 226.281693,215.789978 225.712128,216.395248 
z"/>
<path fill="#34380D" opacity="1.000000" stroke="none" 
	d="
M189.095520,234.196701 
	C189.497284,234.302078 189.910004,234.725937 190.384354,235.455841 
	C189.999496,235.346298 189.552994,234.930740 189.095520,234.196701 
z"/>
<path fill="#34380D" opacity="1.000000" stroke="none" 
	d="
M193.393188,239.960815 
	C193.705643,239.785461 193.950974,239.983551 194.127289,240.555237 
	C193.823364,240.718628 193.579300,240.520432 193.393188,239.960815 
z"/>
<path fill="#0D2939" opacity="1.000000" stroke="none" 
	d="
M172.135818,277.297241 
	C172.025375,277.237854 172.498398,277.214600 172.732407,277.244019 
	C172.966415,277.273468 172.614243,277.392609 172.614243,277.392609 
	C172.614243,277.392609 172.246262,277.356628 172.135818,277.297241 
z"/>
<path fill="#0D2939" opacity="1.000000" stroke="none" 
	d="
M169.155273,277.319031 
	C169.042770,277.266541 169.504547,277.200531 169.736496,277.209381 
	C169.968445,277.218231 169.634537,277.375610 169.634537,277.375610 
	C169.634537,277.375610 169.267761,277.371521 169.155273,277.319031 
z"/>
<path fill="#0F293A" opacity="1.000000" stroke="none" 
	d="
M181.496063,148.505768 
	C181.490646,148.488892 181.501465,148.522629 181.496063,148.505768 
z"/>
<path fill="#0D2939" opacity="1.000000" stroke="none" 
	d="
M186.986328,233.110474 
	C187.059525,232.994125 187.204865,233.404892 187.264313,233.614532 
	C187.006073,233.737366 186.869202,233.538239 186.986328,233.110474 
z"/>
<path fill="#0D2939" opacity="1.000000" stroke="none" 
	d="
M174.444061,276.833801 
	C174.308563,276.982819 174.200378,276.594910 174.165619,276.396790 
	C174.130844,276.198700 174.553574,276.041138 174.777832,276.016541 
	C174.893448,276.242554 174.752594,276.473511 174.444061,276.833801 
z"/>
<path fill="#34380D" opacity="1.000000" stroke="none" 
	d="
M231.249298,208.928497 
	C231.142670,208.709671 231.282013,208.384552 231.682724,207.972275 
	C231.794495,208.197479 231.644882,208.509857 231.249298,208.928497 
z"/>
<path fill="#34380D" opacity="1.000000" stroke="none" 
	d="
M191.203445,236.521576 
	C191.031403,236.819656 190.821320,236.879044 190.290649,237.008545 
	C190.024399,236.840637 190.078720,236.602585 190.286652,236.030975 
	C190.790054,235.758713 191.031769,235.953873 191.203445,236.521576 
z"/>
<path fill="#34380D" opacity="1.000000" stroke="none" 
	d="
M201.389572,248.938156 
	C201.408905,248.848022 201.411942,248.728973 201.460327,248.761734 
	C201.508728,248.794495 201.581482,249.017487 201.581482,249.017487 
	C201.581482,249.017487 201.370239,249.028290 201.389572,248.938156 
z"/>
<path fill="#34380D" opacity="1.000000" stroke="none" 
	d="
M199.256104,247.935638 
	C199.533722,247.738129 199.741760,247.868484 199.871613,248.320099 
	C199.583389,248.529785 199.381088,248.403839 199.256104,247.935638 
z"/>
<path fill="#34380D" opacity="1.000000" stroke="none" 
	d="
M198.505371,246.826736 
	C198.710220,246.805405 198.941696,247.046280 199.224777,247.535767 
	C199.028259,247.552567 198.780136,247.320740 198.505371,246.826736 
z"/>
<path fill="#34380D" opacity="1.000000" stroke="none" 
	d="
M209.166550,238.853668 
	C209.067184,238.652679 209.205139,238.312225 209.602264,237.854034 
	C209.708908,238.062256 209.556381,238.388229 209.166550,238.853668 
z"/>
<path fill="#34380D" opacity="1.000000" stroke="none" 
	d="
M192.589661,238.774368 
	C192.886902,238.649612 193.107101,238.868256 193.262970,239.418564 
	C192.957855,239.560638 192.729187,239.349808 192.589661,238.774368 
z"/>
<path fill="#E7C52E" opacity="1.000000" stroke="none" 
	d="
M110.924706,234.887817 
	C110.861282,234.731964 110.797852,234.576111 110.617004,234.196350 
	C111.077187,232.746048 112.154678,231.520905 112.157768,230.293076 
	C112.207748,210.429108 112.129578,190.564743 112.034103,170.700714 
	C112.030441,169.939224 111.562088,169.179947 111.047974,167.986130 
	C110.852623,167.391556 110.919556,167.230515 111.357605,167.149078 
	C112.481987,168.743301 113.878807,170.252808 113.890884,171.773315 
	C114.045204,191.195496 114.074593,210.620010 113.873856,230.041214 
	C113.857056,231.666733 111.952309,233.272751 110.924706,234.887817 
z"/>
<path fill="#C4B55D" opacity="1.000000" stroke="none" 
	d="
M110.986481,167.069458 
	C110.919556,167.230515 110.852623,167.391556 110.650513,167.779053 
	C105.927025,168.005508 101.338707,168.005508 96.526604,168.005508 
	C96.526604,153.860321 96.526604,140.160965 96.826309,126.138672 
	C117.135384,125.858444 137.144745,125.901161 157.634766,125.928192 
	C158.383347,126.096359 158.603500,126.326019 158.464935,126.869598 
	C157.713654,127.180885 157.273270,127.224060 156.549744,127.243706 
	C155.887924,127.223572 155.509262,127.226959 154.703247,127.179176 
	C153.133804,127.188477 151.991714,127.248947 150.392014,127.275543 
	C135.004913,127.270935 120.075432,127.300224 104.728348,127.241943 
	C102.169296,127.680244 100.027855,128.206100 97.853165,128.796906 
	C97.819923,128.861862 97.833176,129.007187 97.639130,129.364777 
	C97.306618,137.650574 96.986305,145.580704 97.068985,153.506622 
	C97.223000,168.271179 94.493431,167.181335 110.943176,167.023102 
	C110.954338,167.041168 110.986481,167.069458 110.986481,167.069458 
z"/>
<path fill="#FECB05" opacity="1.000000" stroke="none" 
	d="
M155.130600,127.230347 
	C155.509262,127.226959 155.887924,127.223572 156.625595,127.573959 
	C158.445572,129.894821 160.085876,131.756531 161.320053,133.856873 
	C162.719940,136.239258 163.756149,138.835312 165.370468,142.218689 
	C169.330170,142.828125 169.995270,144.016266 168.245758,148.043076 
	C170.026489,149.524521 171.520401,150.767349 172.766388,152.110703 
	C172.199677,152.731628 171.880890,153.252029 171.562088,153.772430 
	C171.825562,153.886581 172.089035,154.000717 172.352493,154.114868 
	C172.563568,153.404587 172.774628,152.694321 173.322937,152.061646 
	C176.216919,155.626373 178.630356,159.233292 181.398239,162.543884 
	C182.567780,163.942719 184.483429,164.717743 186.059937,165.776321 
	C186.349030,165.990204 186.638107,166.204071 186.986023,167.086731 
	C187.248581,170.124405 186.606461,173.148209 187.829514,174.727875 
	C190.497116,178.173294 194.207031,180.791031 197.320160,183.917130 
	C201.616150,188.231018 201.885376,188.204376 205.733261,183.449783 
	C208.128830,180.489746 209.498352,176.651352 214.284348,175.785507 
	C216.282867,175.423920 217.756744,172.162537 219.631454,170.035522 
	C218.235321,169.401001 217.267639,168.961212 216.174438,168.464355 
	C218.248596,163.453552 221.122284,163.865875 224.990082,166.367111 
	C224.137955,164.745636 223.285812,163.124161 222.764099,162.131409 
	C224.391983,158.465652 225.846313,155.190720 227.756027,150.890335 
	C228.832672,152.956436 229.341095,153.932114 229.849533,154.907791 
	C230.504257,154.791046 231.158981,154.674316 231.813705,154.557571 
	C233.055984,150.720291 234.298279,146.882996 235.714249,142.509216 
	C238.593445,143.008423 241.185028,142.120270 240.297836,137.468552 
	C240.163498,136.764160 241.004120,135.682877 241.659409,135.051743 
	C244.574997,132.243607 246.485977,128.169144 251.504150,127.349335 
	C254.272995,127.321785 256.607788,127.364006 259.175842,127.686600 
	C261.320251,128.302048 263.228882,128.909439 265.142944,128.927032 
	C275.758789,129.024567 286.376221,128.937881 296.992615,128.998108 
	C302.850403,129.031342 303.870209,130.117218 303.941101,136.059998 
	C303.988586,140.040710 303.963684,144.022476 303.949799,148.003693 
	C303.928375,154.157043 305.299866,160.736237 298.709229,164.886642 
	C298.250092,165.175781 298.169800,166.066589 297.549011,166.718658 
	C296.452271,166.763046 295.719788,166.766388 294.871704,166.703064 
	C294.482971,166.559082 294.233582,166.609344 293.668945,166.808868 
	C292.877167,166.830627 292.424377,166.830704 291.713470,166.686981 
	C288.649719,166.105911 287.861664,167.357864 288.666626,170.333038 
	C288.694855,172.146851 288.688751,173.542511 288.391235,175.165344 
	C287.746735,176.468155 287.091431,177.542389 287.086304,178.619720 
	C287.016052,193.450150 286.994049,208.281326 287.103577,223.111252 
	C287.113342,224.433548 288.120087,225.748489 288.704620,227.471710 
	C288.705414,229.228851 288.665405,230.581146 288.509094,232.227722 
	C288.017731,235.262955 289.078094,236.624084 291.974854,236.422318 
	C296.087708,236.135849 300.271210,235.722031 301.730255,241.135117 
	C301.855347,241.599228 303.193298,241.736404 303.972595,242.491623 
	C303.970612,252.629410 303.963928,262.301025 303.677734,272.098267 
	C302.967285,272.882202 302.536285,273.540466 302.105286,274.198730 
	C291.569397,274.404846 281.033844,274.632080 270.497437,274.805878 
	C266.704315,274.868469 262.909027,274.802673 258.494141,274.714355 
	C257.521332,274.685394 257.169159,274.737518 256.816956,274.789642 
	C251.213806,274.751312 245.610657,274.712982 239.440369,274.436981 
	C238.217773,274.310364 237.562302,274.421417 236.906815,274.532471 
	C236.500580,274.555511 236.094360,274.578583 235.207642,274.347717 
	C233.161743,274.038757 231.596313,273.983765 230.021103,273.464691 
	C230.005280,264.242096 229.812546,255.477982 230.077271,246.727692 
	C230.197449,242.754822 230.085831,238.036133 236.226746,237.868454 
	C236.537964,237.859955 236.803299,236.171463 237.470688,235.194519 
	C238.881592,235.116699 239.911819,235.109528 241.062408,235.400940 
	C242.028152,236.847794 242.873535,237.996048 244.007462,239.536209 
	C244.735596,238.049042 245.252319,236.993668 245.804230,235.866409 
	C246.782288,236.693542 247.507477,237.306839 248.232681,237.920135 
	C248.709396,237.600403 249.186127,237.280670 249.662857,236.960938 
	C248.471466,234.957474 247.280075,232.954025 246.080048,230.485199 
	C246.060181,223.358505 246.048950,216.697189 246.300537,209.916840 
	C246.406738,208.842026 246.250137,207.886246 246.087219,206.523468 
	C246.074890,204.759781 246.068893,203.403061 246.354584,201.885757 
	C246.453552,200.131973 246.260864,198.538773 246.056152,196.551300 
	C246.023483,195.105392 246.002808,194.053757 246.275421,192.876953 
	C246.361328,191.442596 246.153931,190.133423 245.946533,188.824234 
	C244.331467,189.243912 242.716400,189.663589 241.084641,190.465057 
	C241.082886,191.610580 241.097809,192.374329 241.112732,193.138062 
	C241.112747,193.138062 241.049698,193.016006 240.808533,193.023895 
	C240.375137,193.019699 240.182907,193.007614 239.673859,193.004059 
	C238.259247,194.681992 237.161469,196.351379 236.044861,198.330841 
	C236.016937,199.055115 236.007828,199.469330 235.998718,199.883530 
	C235.720352,200.074005 235.441986,200.264481 235.062683,200.688721 
	C231.415161,205.410110 227.868561,209.897720 223.979858,214.447662 
	C222.668655,211.501465 221.528366,210.969894 219.088165,213.581757 
	C216.440216,216.415955 217.402924,218.187714 219.999023,219.998062 
	C218.284424,222.655457 216.569809,225.312851 214.782791,228.340637 
	C213.161728,228.369400 211.613052,228.027771 210.436615,227.768250 
	C208.224594,232.244736 206.122208,236.499313 203.690659,241.420059 
	C202.572113,239.106842 201.881744,237.679123 201.191360,236.251404 
	C200.819855,236.299759 200.448349,236.348129 200.076843,236.396484 
	C199.734222,237.955353 199.391617,239.514221 198.725372,242.545547 
	C196.855469,239.547607 195.379929,237.687607 194.472336,235.582733 
	C193.587952,233.531662 193.284561,231.230072 192.729279,229.051056 
	C189.009109,229.935333 186.541565,227.916336 187.644196,225.229462 
	C188.005356,224.349396 188.910873,223.708466 189.437729,222.876068 
	C189.931870,222.095352 190.254517,221.206085 190.959854,219.715210 
	C187.906723,220.455154 185.534470,221.030090 183.235916,221.039612 
	C185.693710,215.672791 180.719299,207.963852 175.414749,208.282639 
	C175.249710,208.292557 175.116302,208.828903 174.688904,208.922607 
	C170.106506,203.087814 165.898483,197.372925 161.427338,191.871902 
	C160.422241,190.635284 158.498001,190.145721 156.996902,189.312241 
	C156.322952,190.977829 155.089325,192.635086 155.064392,194.310333 
	C154.880081,206.695648 154.871964,219.085281 155.011017,231.471268 
	C155.025940,232.799942 156.081970,234.935318 157.105484,235.255203 
	C158.946106,235.830444 161.128357,235.312653 163.529633,235.233810 
	C164.857986,235.288330 165.824554,235.360565 166.868820,235.730865 
	C167.630875,239.969391 170.843002,240.405792 173.907639,241.514740 
	C173.888901,252.312149 173.868301,262.644043 173.536133,273.113037 
	C170.114594,273.695770 167.004623,274.141388 163.894669,274.587006 
	C145.603043,274.614899 127.311417,274.642792 108.324890,274.356262 
	C104.389999,273.732635 101.150009,273.423370 97.910027,273.114075 
	C97.910027,273.114075 97.837692,273.074493 97.889626,272.570374 
	C97.972015,262.267700 97.866760,252.465530 98.126350,242.673035 
	C98.192970,240.159637 99.410522,237.676758 100.099335,235.179855 
	C102.425972,235.155960 104.752617,235.132050 107.643097,235.202393 
	C108.206932,235.296646 108.649582,235.319443 108.649582,235.319443 
	C108.649582,235.319443 109.041328,235.105774 109.041328,235.105774 
	C109.460785,235.064041 109.880249,235.022324 110.612206,234.934204 
	C111.952309,233.272751 113.857056,231.666733 113.873856,230.041214 
	C114.074593,210.620010 114.045204,191.195496 113.890884,171.773315 
	C113.878807,170.252808 112.481987,168.743301 111.357605,167.149078 
	C110.986481,167.069458 110.954338,167.041168 110.695404,166.769547 
	C109.212845,166.051987 108.019279,165.350357 106.760612,165.202362 
	C99.567764,164.356506 98.063499,162.693329 98.021362,155.284805 
	C97.971535,146.525528 97.897003,137.766388 97.833176,129.007187 
	C97.833176,129.007187 97.819923,128.861862 98.269424,128.847809 
	C100.861267,128.332352 103.003609,127.830940 105.145950,127.329514 
	C120.075432,127.300224 135.004913,127.270935 150.562180,127.521942 
	C152.503510,127.611603 153.817062,127.420975 155.130600,127.230347 
z"/>
<path fill="#F3CA1D" opacity="1.000000" stroke="none" 
	d="
M251.070114,127.419113 
	C246.485977,128.169144 244.574997,132.243607 241.659409,135.051743 
	C241.004120,135.682877 240.163498,136.764160 240.297836,137.468552 
	C241.185028,142.120270 238.593445,143.008423 235.714249,142.509216 
	C234.298279,146.882996 233.055984,150.720291 231.813705,154.557571 
	C231.158981,154.674316 230.504257,154.791046 229.849533,154.907791 
	C229.341095,153.932114 228.832672,152.956436 227.756027,150.890335 
	C225.846313,155.190720 224.391983,158.465652 222.764099,162.131409 
	C223.285812,163.124161 224.137955,164.745636 224.990082,166.367111 
	C221.122284,163.865875 218.248596,163.453552 216.174438,168.464355 
	C217.267639,168.961212 218.235321,169.401001 219.631454,170.035522 
	C217.756744,172.162537 216.282867,175.423920 214.284348,175.785507 
	C209.498352,176.651352 208.128830,180.489746 205.733261,183.449783 
	C201.885376,188.204376 201.616150,188.231018 197.320160,183.917130 
	C194.207031,180.791031 190.497116,178.173294 187.829514,174.727875 
	C186.606461,173.148209 187.248581,170.124405 187.078018,167.347351 
	C191.697754,172.730240 196.284302,178.521301 201.242615,184.781754 
	C215.202042,165.547226 228.945129,146.610794 243.386993,127.441406 
	C246.413879,127.278679 248.742004,127.348900 251.070114,127.419113 
z"/>
<path fill="#E7C52E" opacity="1.000000" stroke="none" 
	d="
M173.014313,152.010178 
	C171.520401,150.767349 170.026489,149.524521 168.245758,148.043076 
	C169.995270,144.016266 169.330170,142.828125 165.370468,142.218689 
	C163.756149,138.835312 162.719940,136.239258 161.320053,133.856873 
	C160.085876,131.756531 158.445572,129.894821 156.908752,127.597473 
	C157.273270,127.224060 157.713654,127.180885 158.485077,127.109497 
	C167.570694,139.034180 176.325241,150.987061 185.347153,163.139816 
	C185.776688,163.944473 185.938873,164.549286 186.080490,165.465210 
	C184.483429,164.717743 182.567780,163.942719 181.398239,162.543884 
	C178.630356,159.233292 176.216919,155.626373 173.329681,152.068970 
	C172.999176,151.998657 173.014313,152.010178 173.014313,152.010178 
z"/>
<path fill="#C3B45A" opacity="1.000000" stroke="none" 
	d="
M251.504150,127.349335 
	C248.742004,127.348900 246.413879,127.278679 243.646103,127.231537 
	C243.319046,126.937798 243.431656,126.620964 243.726425,126.123795 
	C263.924713,125.934685 283.940857,125.925926 304.407501,125.863930 
	C305.191254,126.525879 305.817139,127.242226 305.814301,127.956078 
	C305.761871,141.152847 305.634369,154.349319 305.224579,167.867554 
	C300.619934,168.122375 296.313446,168.055511 291.679443,167.730255 
	C291.563385,167.262894 291.769928,167.049194 291.971588,166.830780 
	C292.424377,166.830704 292.877167,166.830627 293.914124,166.834869 
	C294.498260,166.839157 294.987335,166.769730 294.987335,166.769730 
	C295.719788,166.766388 296.452271,166.763046 297.972595,166.804764 
	C301.931641,167.104645 304.922333,167.187988 304.902466,162.661453 
	C304.856659,152.220474 304.859802,141.779144 304.884674,131.338058 
	C304.891541,128.458267 303.600861,127.069977 300.681091,127.095802 
	C286.768433,127.218887 272.855438,127.306190 258.942566,127.406235 
	C256.607788,127.364006 254.272995,127.321785 251.504150,127.349335 
z"/>
<path fill="#01274C" opacity="1.000000" stroke="none" 
	d="
M177.060135,223.036987 
	C175.777222,225.853775 174.494308,228.670547 173.571426,230.696823 
	C168.397629,230.248337 164.539261,229.913864 159.949326,229.515976 
	C160.585220,226.685608 161.236633,223.786041 161.888062,220.886490 
	C161.634567,220.932007 161.381058,220.977509 161.127563,221.023026 
	C160.995316,216.815811 160.507660,212.579224 160.852173,208.411407 
	C161.093399,205.492706 163.142593,204.435501 165.795395,206.561615 
	C168.506454,208.734421 170.632980,210.628021 170.192719,215.112152 
	C169.960266,217.479782 174.077499,220.274460 176.613190,222.931519 
	C176.995499,222.986694 177.060135,223.036987 177.060135,223.036987 
M164.370377,211.928040 
	C164.055801,212.894958 163.741241,213.861877 163.426666,214.828796 
	C163.838165,214.992981 164.249649,215.157150 164.661148,215.321335 
	C165.406342,213.717255 166.151535,212.113174 166.896729,210.509094 
	C166.509842,210.321854 166.122971,210.134598 165.736084,209.947357 
	C165.377380,210.431992 165.018692,210.916626 164.370377,211.928040 
M169.743927,225.849380 
	C169.898285,225.961090 170.052658,226.072784 170.207016,226.184494 
	C170.109726,226.021225 170.012451,225.857956 169.743927,225.849380 
z"/>
<path fill="#E8C52C" opacity="1.000000" stroke="none" 
	d="
M163.167877,235.251526 
	C161.128357,235.312653 158.946106,235.830444 157.105484,235.255203 
	C156.081970,234.935318 155.025940,232.799942 155.011017,231.471268 
	C154.871964,219.085281 154.880081,206.695648 155.064392,194.310333 
	C155.089325,192.635086 156.322952,190.977829 156.996902,189.312241 
	C158.498001,190.145721 160.422241,190.635284 161.427338,191.871902 
	C165.898483,197.372925 170.106506,203.087814 174.771881,209.266144 
	C175.740555,211.879120 176.346970,213.951324 176.699097,215.895935 
	C176.018951,215.403305 175.593094,215.038269 175.167236,214.673233 
	C169.918076,207.321213 164.668900,199.969177 159.419739,192.617157 
	C158.998199,192.753448 158.576645,192.889755 158.155106,193.026047 
	C158.155106,203.215485 158.109818,213.405258 158.181290,223.594193 
	C158.204269,226.870834 158.535141,230.145309 159.284210,233.932526 
	C160.951462,234.713364 162.059677,234.982452 163.167877,235.251526 
z"/>
<path fill="#DFC649" opacity="1.000000" stroke="none" 
	d="
M163.529633,235.233826 
	C162.059677,234.982452 160.951462,234.713364 159.616348,234.212555 
	C163.371246,233.908142 167.352890,233.820572 171.335007,233.773315 
	C172.325134,233.761566 173.316818,233.880280 175.046432,233.982849 
	C175.046432,247.041107 175.046432,260.086792 174.970703,273.605164 
	C174.894958,274.077850 174.503265,274.045410 174.245911,273.772644 
	C173.941605,273.325256 173.894669,273.150574 173.847717,272.975922 
	C173.868301,262.644043 173.888901,252.312149 173.949677,241.107971 
	C173.814209,237.652359 174.797424,233.980133 169.671783,235.870087 
	C169.468262,235.883377 169.060745,235.901718 168.800980,235.758682 
	C167.957855,235.554703 167.374496,235.493774 166.791138,235.432816 
	C165.824554,235.360565 164.857986,235.288330 163.529633,235.233826 
z"/>
<path fill="#E8C52C" opacity="1.000000" stroke="none" 
	d="
M179.094955,220.060593 
	C179.094955,220.060593 179.010757,219.732071 178.805054,219.320618 
	C178.346527,218.367096 178.093719,217.825043 178.182373,217.295609 
	C179.437683,218.450912 180.351532,219.593597 181.265396,220.736282 
	C181.265396,220.736282 180.973862,221.009567 180.604431,221.018646 
	C179.854996,220.705338 179.474976,220.382965 179.094955,220.060593 
z"/>
<path fill="#34380D" opacity="1.000000" stroke="none" 
	d="
M179.115845,220.372543 
	C179.474976,220.382965 179.854996,220.705338 180.457581,221.154129 
	C180.816986,221.640030 180.953827,221.999542 181.133209,222.645340 
	C180.496063,222.182602 179.816391,221.433548 179.115845,220.372543 
z"/>
<path fill="#34380D" opacity="1.000000" stroke="none" 
	d="
M175.188416,214.985413 
	C175.593094,215.038269 176.018951,215.403305 176.714630,215.888199 
	C176.984467,216.008057 176.967865,216.021896 176.953079,216.270081 
	C176.938293,216.518265 176.980927,217.013687 176.893524,217.083878 
	C176.806107,217.154068 176.629593,217.292358 176.629608,217.292358 
	C176.156265,216.627426 175.682922,215.962509 175.188416,214.985413 
z"/>
<path fill="#34380D" opacity="1.000000" stroke="none" 
	d="
M177.840897,217.282990 
	C178.093719,217.825043 178.346527,218.367096 178.691132,219.195007 
	C178.149353,218.952133 177.515793,218.423416 176.755920,217.593536 
	C176.629593,217.292358 176.806107,217.154068 177.112122,217.184509 
	C177.418137,217.214966 177.899460,217.218445 177.874557,217.225494 
	C177.849655,217.232529 177.840897,217.282990 177.840897,217.282990 
z"/>
<path fill="#01274C" opacity="1.000000" stroke="none" 
	d="
M176.964783,222.959625 
	C177.044144,222.694443 177.154221,222.456345 177.264297,222.218246 
	C177.263367,222.419571 177.262421,222.620880 177.160812,222.929596 
	C177.060135,223.036987 176.995499,222.986694 176.964783,222.959625 
z"/>
<path fill="#34380D" opacity="1.000000" stroke="none" 
	d="
M182.018753,224.275345 
	C182.351395,224.371414 182.731125,224.742676 183.164124,225.375153 
	C182.833527,225.274414 182.449692,224.912476 182.018753,224.275345 
z"/>
<path fill="#34380D" opacity="1.000000" stroke="none" 
	d="
M183.388275,226.126038 
	C183.714844,226.228287 184.048813,226.608597 184.471375,227.238007 
	C184.171860,227.126114 183.783752,226.765091 183.388275,226.126038 
z"/>
<path fill="#34380D" opacity="1.000000" stroke="none" 
	d="
M181.166962,223.073792 
	C181.357559,223.048828 181.624008,223.274094 181.941406,223.764008 
	C181.742523,223.793762 181.492676,223.558884 181.166962,223.073792 
z"/>
<path fill="#F7CE0F" opacity="1.000000" stroke="none" 
	d="
M181.538696,220.807892 
	C180.351532,219.593597 179.437683,218.450912 178.182373,217.295609 
	C177.840897,217.282990 177.849655,217.232529 177.771912,216.987900 
	C177.452072,216.502808 177.209976,216.262360 176.967865,216.021896 
	C176.967865,216.021896 176.984467,216.008057 176.968933,216.015793 
	C176.346970,213.951324 175.740555,211.879120 175.051147,209.463379 
	C175.116302,208.828903 175.249710,208.292557 175.414749,208.282639 
	C180.719299,207.963852 185.693710,215.672791 183.117981,220.774933 
	C182.554901,221.010300 182.183441,220.944901 181.538696,220.807892 
z"/>
<path fill="#F5CB1B" opacity="1.000000" stroke="none" 
	d="
M237.089996,235.265182 
	C236.803299,236.171463 236.537964,237.859955 236.226746,237.868454 
	C230.085831,238.036133 230.197449,242.754822 230.077271,246.727692 
	C229.812546,255.477982 230.005280,264.242096 229.742661,273.483032 
	C229.105392,273.972961 228.736771,273.980438 228.368149,273.987915 
	C228.229584,263.840149 228.105255,253.692169 227.940262,243.544830 
	C227.907883,241.553787 227.718246,239.565292 227.452377,237.166031 
	C227.224609,236.491577 227.197372,236.221481 227.680389,235.625885 
	C231.122559,235.292114 234.106293,235.278656 237.089996,235.265182 
z"/>
<path fill="#E8C52C" opacity="1.000000" stroke="none" 
	d="
M246.062912,202.046356 
	C246.068893,203.403061 246.074890,204.759781 246.061707,206.911774 
	C246.040924,208.483337 246.039322,209.259598 246.037720,210.035858 
	C246.048950,216.697189 246.060181,223.358505 245.992401,230.760010 
	C245.617645,231.985718 245.321915,232.471283 245.028198,232.492493 
	C245.026138,224.575836 245.116669,217.121826 244.983185,209.671814 
	C244.900879,205.077957 244.476944,200.490204 244.206390,195.899719 
	C244.137177,194.873260 244.067963,193.846817 244.018768,192.390610 
	C244.038788,191.960861 244.112762,191.875351 244.372360,191.970535 
	C245.082016,192.377853 245.532074,192.689987 245.982132,193.002121 
	C246.002808,194.053757 246.023483,195.105392 246.036713,196.976868 
	C246.040482,199.213242 246.051697,200.629807 246.062912,202.046356 
z"/>
<path fill="#F5CB1B" opacity="1.000000" stroke="none" 
	d="
M245.026169,232.956833 
	C245.321915,232.471283 245.617645,231.985718 246.001038,231.225372 
	C247.280075,232.954025 248.471466,234.957474 249.662857,236.960938 
	C249.186127,237.280670 248.709396,237.600403 248.232681,237.920135 
	C247.507477,237.306839 246.782288,236.693542 245.804230,235.866409 
	C245.252319,236.993668 244.735596,238.049042 244.007462,239.536209 
	C242.873535,237.996048 242.028152,236.847794 241.230606,235.227661 
	C241.521423,234.544495 241.725159,234.300446 241.889633,234.023621 
	C242.543259,233.819290 243.196884,233.614960 244.258820,233.192871 
	C244.667114,232.975128 245.026169,232.956833 245.026169,232.956833 
z"/>
<path fill="#C4B452" opacity="1.000000" stroke="none" 
	d="
M245.028198,232.492493 
	C245.026169,232.956833 244.667114,232.975128 244.491348,232.936661 
	C244.237381,220.883057 244.159180,208.867920 244.143692,196.376251 
	C244.476944,200.490204 244.900879,205.077957 244.983185,209.671814 
	C245.116669,217.121826 245.026138,224.575836 245.028198,232.492493 
z"/>
<path fill="#C4B452" opacity="1.000000" stroke="none" 
	d="
M241.442276,233.937027 
	C241.725159,234.300446 241.521423,234.544495 241.110229,234.929077 
	C239.911819,235.109528 238.881592,235.116699 237.470703,235.194519 
	C234.106293,235.278656 231.122559,235.292114 227.711090,235.421021 
	C228.217773,234.961487 229.129456,233.940018 230.090698,233.891006 
	C233.716705,233.706146 237.358826,233.837463 241.442276,233.937027 
z"/>
<path fill="#F5CB1B" opacity="1.000000" stroke="none" 
	d="
M236.063675,198.020752 
	C237.161469,196.351379 238.259247,194.681992 239.814392,193.201859 
	C240.469681,193.649719 240.693649,193.883362 240.943680,194.092041 
	C240.107849,195.199997 239.272034,196.307968 237.919800,197.688934 
	C236.956818,197.981537 236.510239,198.001144 236.063675,198.020752 
z"/>
<path fill="#E8C52C" opacity="1.000000" stroke="none" 
	d="
M241.427734,193.133514 
	C241.097809,192.374329 241.082886,191.610580 241.396667,190.484161 
	C242.521164,190.706100 243.316971,191.290726 244.112762,191.875351 
	C244.112762,191.875351 244.038788,191.960861 244.003052,192.004730 
	C243.225784,192.408722 242.484268,192.768845 241.427734,193.133514 
z"/>
<path fill="#E8C52C" opacity="1.000000" stroke="none" 
	d="
M236.044861,198.330841 
	C236.510239,198.001144 236.956818,197.981537 237.737671,197.927277 
	C237.592422,198.540802 237.112869,199.189011 236.316010,199.860382 
	C236.007828,199.469330 236.016937,199.055115 236.044861,198.330841 
z"/>
<path fill="#E8C52C" opacity="1.000000" stroke="none" 
	d="
M241.042175,193.859329 
	C240.693649,193.883362 240.469681,193.649719 240.131226,193.193329 
	C240.182907,193.007614 240.375137,193.019699 240.852814,193.076492 
	C241.139084,193.289658 241.139877,193.458130 241.042175,193.859329 
z"/>
<path fill="#01274C" opacity="1.000000" stroke="none" 
	d="
M173.988739,140.005432 
	C173.825653,139.798492 173.676910,139.581192 173.528152,139.363907 
	C173.677368,139.470032 173.826599,139.576141 174.002182,139.826126 
	C174.028549,139.969986 174.003067,139.995102 173.988739,140.005432 
z"/>
<path fill="#F3CA1D" opacity="1.000000" stroke="none" 
	d="
M303.967865,242.025452 
	C303.193298,241.736404 301.855347,241.599228 301.730255,241.135117 
	C300.271210,235.722031 296.087708,236.135849 291.974854,236.422318 
	C289.078094,236.624084 288.017731,235.262955 288.692505,232.422333 
	C289.258942,232.553879 289.525574,232.785049 289.792206,233.016220 
	C291.405548,233.647598 292.977539,234.636917 294.641602,234.829056 
	C297.346802,235.141434 300.112244,234.932129 303.285950,234.989929 
	C303.807800,235.496414 303.895966,235.955978 304.027283,237.164459 
	C304.036224,239.284058 304.002045,240.654755 303.967865,242.025452 
z"/>
<path fill="#F2CF39" opacity="1.000000" stroke="none" 
	d="
M303.972595,242.491623 
	C304.002045,240.654755 304.036224,239.284058 304.094727,237.508652 
	C304.389435,242.162125 304.843781,247.218811 304.885040,252.278854 
	C304.940063,259.023895 304.673920,265.771545 304.309174,272.577148 
	C304.034149,272.415009 303.995697,272.193817 303.957214,271.972626 
	C303.963928,262.301025 303.970612,252.629410 303.972595,242.491623 
z"/>
<path fill="#2C2F0A" opacity="1.000000" stroke="none" 
	d="
M304.322998,276.147949 
	C298.485413,276.472534 292.204468,276.738525 285.461548,276.793030 
	C284.999512,276.581543 285.011963,276.195801 285.011963,276.195801 
	C291.301208,276.160339 297.590424,276.124847 304.322998,276.147949 
z"/>
<path fill="#F3CA1D" opacity="1.000000" stroke="none" 
	d="
M228.647263,274.215881 
	C228.736771,273.980438 229.105392,273.972961 229.752457,273.947144 
	C231.596313,273.983765 233.161743,274.038757 234.902496,274.335876 
	C233.027359,274.533325 230.976868,274.488586 228.647263,274.215881 
z"/>
<path fill="#34380D" opacity="1.000000" stroke="none" 
	d="
M284.565247,276.132690 
	C285.011963,276.195801 284.999512,276.581543 284.992645,276.773743 
	C282.293060,276.976562 279.600372,276.987213 276.460999,276.981934 
	C276.014343,276.966003 276.000946,276.580811 275.994537,276.388214 
	C278.698273,276.153595 281.408417,276.111603 284.565247,276.132690 
z"/>
<path fill="#F3CA1D" opacity="1.000000" stroke="none" 
	d="
M303.677734,272.098267 
	C303.995697,272.193817 304.034149,272.415009 304.133209,272.969849 
	C303.688568,273.573151 303.183350,273.842804 302.391693,274.155579 
	C302.536285,273.540466 302.967285,272.882202 303.677734,272.098267 
z"/>
<path fill="#F3CA1D" opacity="1.000000" stroke="none" 
	d="
M237.268890,274.592896 
	C237.562302,274.421417 238.217773,274.310364 238.982590,274.378998 
	C238.604935,274.590210 238.117950,274.621735 237.268890,274.592896 
z"/>
<path fill="#F2CF39" opacity="1.000000" stroke="none" 
	d="
M257.163269,274.815430 
	C257.169159,274.737518 257.521332,274.685394 258.038391,274.720276 
	C257.971985,274.818573 257.740753,274.829926 257.163269,274.815430 
z"/>
<path fill="#E7C52E" opacity="1.000000" stroke="none" 
	d="
M99.713303,235.208145 
	C99.410522,237.676758 98.192970,240.159637 98.126350,242.673035 
	C97.866760,252.465530 97.972015,262.267700 97.887726,272.529205 
	C97.566147,266.053436 97.238289,259.116333 97.053223,252.175415 
	C96.942444,248.021011 96.856628,243.845627 97.170235,239.710815 
	C97.286827,238.173660 98.573936,236.725281 99.713303,235.208145 
z"/>
<path fill="#F5CB23" opacity="1.000000" stroke="none" 
	d="
M98.079025,273.454773 
	C101.150009,273.423370 104.389999,273.732635 107.865013,274.313110 
	C104.816032,274.321350 101.532036,274.058411 98.079025,273.454773 
z"/>
<path fill="#F5CB23" opacity="1.000000" stroke="none" 
	d="
M173.536133,273.113037 
	C173.894669,273.150574 173.941605,273.325256 174.049591,273.764282 
	C171.001556,274.279083 167.892502,274.529510 164.339050,274.683472 
	C167.004623,274.141388 170.114594,273.695770 173.536133,273.113037 
z"/>
<path fill="#E7C52E" opacity="1.000000" stroke="none" 
	d="
M108.768440,235.089233 
	C109.041328,235.105774 108.649582,235.319443 108.649582,235.319443 
	C108.649582,235.319443 108.206932,235.296646 108.079613,235.215607 
	C108.133377,235.113937 108.314468,235.093307 108.768440,235.089233 
z"/>
<path fill="#C4B452" opacity="1.000000" stroke="none" 
	d="
M289.852417,232.549484 
	C289.525574,232.785049 289.258942,232.553879 288.808868,232.128082 
	C288.665405,230.581146 288.705414,229.228851 288.786957,227.003906 
	C288.779877,209.066895 288.731262,192.002548 288.682678,174.938187 
	C288.688751,173.542511 288.694855,172.146851 288.853638,170.154678 
	C289.267548,169.334534 289.528748,169.110901 289.789917,168.887253 
	C289.830841,189.952423 289.871735,211.017578 289.852417,232.549484 
z"/>
<path fill="#F3CA1D" opacity="1.000000" stroke="none" 
	d="
M289.956360,168.654190 
	C289.528748,169.110901 289.267548,169.334534 288.819336,169.736542 
	C287.861664,167.357864 288.649719,166.105911 291.713470,166.686981 
	C291.769928,167.049194 291.563385,167.262894 291.226746,167.654770 
	C290.775208,168.032150 290.448975,168.226639 289.956360,168.654190 
z"/>
<path fill="#F7CE0F" opacity="1.000000" stroke="none" 
	d="
M220.232330,219.780243 
	C217.402924,218.187714 216.440216,216.415955 219.088165,213.581757 
	C221.528366,210.969894 222.668655,211.501465 223.824692,214.773438 
	C222.829620,216.545380 221.647614,218.053909 220.232330,219.780243 
z"/>
<path fill="#E7C52E" opacity="1.000000" stroke="none" 
	d="
M97.639130,129.364777 
	C97.897003,137.766388 97.971535,146.525528 98.021362,155.284805 
	C98.063499,162.693329 99.567764,164.356506 106.760612,165.202362 
	C108.019279,165.350357 109.212845,166.051987 110.684250,166.751480 
	C94.493431,167.181335 97.223000,168.271179 97.068985,153.506622 
	C96.986305,145.580704 97.306618,137.650574 97.639130,129.364777 
z"/>
<path fill="#E7C52E" opacity="1.000000" stroke="none" 
	d="
M104.728348,127.241951 
	C103.003609,127.830940 100.861267,128.332352 98.302673,128.782867 
	C100.027855,128.206100 102.169296,127.680244 104.728348,127.241951 
z"/>
<path fill="#E7C52E" opacity="1.000000" stroke="none" 
	d="
M154.703247,127.179184 
	C153.817062,127.420975 152.503510,127.611603 151.019806,127.555824 
	C151.991714,127.248947 153.133804,127.188477 154.703247,127.179184 
z"/>
<path fill="#F3CA1D" opacity="1.000000" stroke="none" 
	d="
M259.175842,127.686592 
	C272.855438,127.306190 286.768433,127.218887 300.681091,127.095802 
	C303.600861,127.069977 304.891541,128.458267 304.884674,131.338058 
	C304.859802,141.779144 304.856659,152.220474 304.902466,162.661453 
	C304.922333,167.187988 301.931641,167.104645 298.336884,166.763718 
	C298.169800,166.066589 298.250092,165.175781 298.709229,164.886642 
	C305.299866,160.736237 303.928375,154.157043 303.949799,148.003693 
	C303.963684,144.022476 303.988586,140.040710 303.941101,136.059998 
	C303.870209,130.117218 302.850403,129.031342 296.992615,128.998108 
	C286.376221,128.937881 275.758789,129.024567 265.142944,128.927032 
	C263.228882,128.909439 261.320251,128.302048 259.175842,127.686592 
z"/>
<path fill="#F3CA1D" opacity="1.000000" stroke="none" 
	d="
M288.391235,175.165344 
	C288.731262,192.002548 288.779877,209.066895 288.746155,226.599060 
	C288.120087,225.748489 287.113342,224.433548 287.103577,223.111252 
	C286.994049,208.281326 287.016052,193.450150 287.086304,178.619720 
	C287.091431,177.542389 287.746735,176.468155 288.391235,175.165344 
z"/>
<path fill="#F5CB23" opacity="1.000000" stroke="none" 
	d="
M169.875320,235.856796 
	C174.797424,233.980133 173.814209,237.652359 173.947845,240.642426 
	C170.843002,240.405792 167.630875,239.969391 166.868820,235.730881 
	C167.374496,235.493774 167.957855,235.554703 168.892761,235.849548 
	C169.244308,236.083435 169.603729,236.109909 169.603729,236.109909 
	C169.603729,236.109909 169.875320,235.856796 169.875320,235.856796 
z"/>
<path fill="#F5CB1B" opacity="1.000000" stroke="none" 
	d="
M244.372360,191.970535 
	C243.316971,191.290726 242.521164,190.706100 241.413361,190.102371 
	C242.716400,189.663589 244.331467,189.243912 245.946533,188.824234 
	C246.153931,190.133423 246.361328,191.442596 246.275421,192.876953 
	C245.532074,192.689987 245.082016,192.377853 244.372360,191.970535 
z"/>
<path fill="#F5CB1B" opacity="1.000000" stroke="none" 
	d="
M246.354584,201.885757 
	C246.051697,200.629807 246.040482,199.213242 246.048706,197.371140 
	C246.260864,198.538773 246.453552,200.131973 246.354584,201.885757 
z"/>
<path fill="#E7C52E" opacity="1.000000" stroke="none" 
	d="
M172.992432,151.991348 
	C172.774628,152.694321 172.563568,153.404587 172.352493,154.114868 
	C172.089035,154.000717 171.825562,153.886581 171.562088,153.772430 
	C171.880890,153.252029 172.199677,152.731628 172.766388,152.110703 
	C173.014313,152.010178 172.999176,151.998657 172.992432,151.991348 
z"/>
<path fill="#F5CB1B" opacity="1.000000" stroke="none" 
	d="
M246.300537,209.916840 
	C246.039322,209.259598 246.040924,208.483337 246.068024,207.318756 
	C246.250137,207.886246 246.406738,208.842026 246.300537,209.916840 
z"/>
<path fill="#F3CA1D" opacity="1.000000" stroke="none" 
	d="
M294.871704,166.703064 
	C294.987335,166.769730 294.498260,166.839157 294.253082,166.813156 
	C294.233582,166.609344 294.482971,166.559082 294.871704,166.703064 
z"/>
<path fill="#0D2939" opacity="1.000000" stroke="none" 
	d="
M164.515182,211.664658 
	C165.018692,210.916626 165.377380,210.431992 165.736084,209.947357 
	C166.122971,210.134598 166.509842,210.321854 166.896729,210.509094 
	C166.151535,212.113174 165.406342,213.717255 164.661148,215.321335 
	C164.249649,215.157150 163.838165,214.992981 163.426666,214.828796 
	C163.741241,213.861877 164.055801,212.894958 164.515182,211.664658 
z"/>
<path fill="#0D2939" opacity="1.000000" stroke="none" 
	d="
M169.829559,225.772034 
	C170.012451,225.857956 170.109726,226.021225 170.207016,226.184494 
	C170.052658,226.072784 169.898285,225.961090 169.829559,225.772034 
z"/>
<path fill="#E8C52C" opacity="1.000000" stroke="none" 
	d="
M169.671783,235.870087 
	C169.875320,235.856796 169.603729,236.109909 169.603729,236.109909 
	C169.603729,236.109909 169.244308,236.083435 169.152527,235.992584 
	C169.060745,235.901718 169.468262,235.883377 169.671783,235.870087 
z"/>
<path fill="#E8C52C" opacity="1.000000" stroke="none" 
	d="
M176.953079,216.270081 
	C177.209976,216.262360 177.452072,216.502808 177.796814,216.980865 
	C177.899460,217.218445 177.418137,217.214966 177.199524,217.114319 
	C176.980927,217.013687 176.938293,216.518265 176.953079,216.270081 
z"/>
</svg>