<svg xmlns="http://www.w3.org/2000/svg" fill="none" viewBox="0 0 100 100"><g clip-path="url(#a)"><path fill="#000" d="M75.886.027c-13.002-.612-23.935 8.79-25.8 21.178-.074.575-.185 1.13-.277 1.687-2.9 15.429-16.4 27.112-32.615 27.112-5.78 0-11.21-1.483-15.938-4.08A.843.843 0 0 0 0 46.666v53.333h49.79V62.503c0-6.899 5.578-12.5 12.448-12.5h12.448c14.09 0 25.43-11.738 24.876-26.017C99.064 11.136 88.685.64 75.886.027"/></g><defs><clipPath id="a"><path fill="#fff" d="M0 0h100v100H0z"/></clipPath></defs></svg>